{"glyphs":{"0":{"ha":986,"x_min":67,"x_max":919,"o":"m 67 485 q 124 734 67 619 q 280 916 182 849 q 493 983 378 983 q 706 916 608 983 q 862 734 804 849 q 919 485 919 619 q 862 234 919 349 q 706 53 804 119 q 493 -14 608 -14 q 280 53 378 -14 q 124 234 182 119 q 67 485 67 349 m 201 485 q 240 303 201 386 q 347 171 279 219 q 493 122 414 122 q 640 171 572 122 q 746 303 707 219 q 785 485 785 386 q 746 667 785 583 q 640 799 707 750 q 493 847 572 847 q 347 799 414 847 q 240 667 279 750 q 201 485 201 583 z "},"1":{"ha":347,"x_min":67,"x_max":282,"o":"m 147 0 l 147 838 l 67 840 l 67 896 l 282 972 l 282 0 l 147 0 z "},"2":{"ha":879,"x_min":67,"x_max":814,"o":"m 78 125 q 358 242 228 164 q 568 423 489 321 q 647 633 647 525 q 584 783 647 722 q 438 846 521 844 l 414 846 q 260 792 318 846 q 203 667 203 739 l 67 667 q 113 824 67 751 q 237 938 158 896 q 411 981 315 981 l 440 981 q 613 938 535 981 q 738 815 692 894 q 783 633 783 735 q 716 406 783 513 q 545 227 649 299 q 340 136 442 156 l 814 136 l 814 0 l 78 0 l 78 125 z "},"3":{"ha":957,"x_min":67,"x_max":893,"o":"m 447 -3 q 249 40 336 -3 q 115 156 163 83 q 67 315 67 229 l 203 315 q 265 187 203 240 q 447 133 328 133 l 503 133 q 685 176 617 133 q 756 283 753 219 q 695 399 756 347 q 542 450 635 450 l 342 450 l 342 585 l 565 586 q 665 625 631 588 q 700 722 700 663 q 651 811 700 772 q 531 850 603 850 l 417 850 q 265 794 325 850 q 206 667 206 739 l 69 667 q 117 825 69 751 q 244 942 164 899 q 417 985 324 985 l 533 985 q 752 908 668 985 q 836 722 836 832 q 785 583 836 639 q 639 528 733 528 l 639 513 q 829 453 765 513 q 892 283 893 393 q 783 77 888 157 q 503 -3 678 -3 l 447 -3 z "},"4":{"ha":918,"x_min":67,"x_max":851,"o":"m 625 256 l 67 256 l 67 392 l 614 969 l 761 969 l 761 392 l 851 392 l 851 256 l 761 256 l 761 0 l 625 0 l 625 256 m 240 392 l 625 392 l 625 783 l 240 392 z "},"5":{"ha":881,"x_min":67,"x_max":814,"o":"m 476 686 q 716 592 619 686 q 814 346 813 499 q 763 161 814 239 q 624 42 711 83 q 431 1 538 1 q 246 42 329 1 q 115 153 163 82 q 67 310 67 224 l 203 310 q 270 188 203 238 q 433 138 338 138 q 612 193 544 138 q 679 346 679 249 q 609 497 679 436 q 447 558 539 558 q 302 519 369 558 q 221 429 235 481 l 92 460 l 164 964 l 764 964 l 751 828 l 281 828 l 253 624 q 349 669 290 651 q 476 686 407 686 z "},"6":{"ha":878,"x_min":53,"x_max":815,"o":"m 440 647 q 703 568 600 647 q 811 338 806 489 q 767 168 814 244 q 639 47 721 92 q 458 3 557 3 q 187 103 293 3 q 69 374 81 204 q 151 799 53 639 q 436 964 249 958 q 446 964 436 964 q 640 924 554 964 q 772 821 725 885 l 718 694 q 612 792 676 757 q 447 826 547 826 q 324 787 379 826 q 238 678 268 747 q 208 525 207 608 q 299 613 233 578 q 440 647 365 647 m 225 326 q 294 194 226 249 q 454 139 361 139 q 613 194 547 139 q 676 326 678 249 q 608 457 675 403 q 446 511 540 511 q 290 457 354 511 q 225 326 225 403 z "},"7":{"ha":760,"x_min":67,"x_max":694,"o":"m 549 832 l 69 832 l 69 967 l 694 967 l 694 832 l 225 0 l 67 0 l 549 832 z "},"8":{"ha":981,"x_min":67,"x_max":914,"o":"m 67 289 q 133 454 67 397 q 328 511 200 511 l 328 528 q 182 577 233 528 q 131 714 131 626 q 218 908 131 836 q 447 981 306 979 l 531 981 q 767 905 675 979 q 858 714 858 831 q 806 578 858 628 q 661 526 754 528 l 661 511 q 848 453 782 511 q 914 289 914 396 q 826 76 914 156 q 590 -3 738 -3 l 390 -3 q 155 76 243 -3 q 67 289 67 156 m 225 289 q 276 178 225 222 q 415 133 326 133 l 565 133 q 705 178 654 133 q 756 289 756 222 q 701 400 756 353 q 558 447 647 447 l 422 447 q 279 400 333 447 q 225 289 225 353 m 265 713 q 311 619 265 654 q 436 585 357 585 l 546 585 q 672 621 622 585 q 722 713 722 657 q 669 810 722 774 q 533 846 617 846 l 446 846 q 315 809 365 846 q 265 713 265 772 z "},"9":{"ha":878,"x_min":63,"x_max":826,"o":"m 438 322 q 176 401 279 322 q 67 632 72 481 q 110 801 64 725 q 240 922 157 878 q 419 967 322 967 q 692 866 585 967 q 810 597 799 765 q 727 172 825 332 q 442 6 629 13 q 432 6 442 6 q 238 45 325 6 q 106 150 151 85 l 160 275 q 267 178 203 213 q 431 144 332 144 q 554 184 499 144 q 640 292 610 224 q 669 444 671 361 q 579 358 646 393 q 438 322 513 322 m 653 644 q 584 777 651 722 q 425 832 517 832 q 265 777 331 832 q 201 644 200 722 q 270 513 203 567 q 432 458 338 458 q 590 513 525 458 q 653 644 654 567 z "},"\r":{"ha":347,"x_min":0,"x_max":0,"o":""}," ":{"ha":361,"x_min":0,"x_max":0,"o":""},"!":{"ha":322,"x_min":72,"x_max":257,"o":"m 75 94 q 101 160 75 133 q 167 186 128 186 q 231 160 204 186 q 257 94 257 133 q 231 30 257 57 q 167 3 204 3 q 101 30 128 3 q 75 94 75 57 m 72 972 l 250 972 l 211 250 l 114 250 l 72 972 z "},"\"":{"ha":406,"x_min":67,"x_max":339,"o":"m 92 781 l 67 972 l 190 972 l 164 781 l 92 781 m 240 781 l 215 972 l 339 972 l 314 781 l 240 781 z "},"#":{"ha":1035,"x_min":67,"x_max":969,"o":"m 139 0 l 219 300 l 67 300 l 72 435 l 256 435 l 293 575 l 124 575 l 131 711 l 331 711 l 399 969 l 533 969 l 465 711 l 679 711 l 747 969 l 883 969 l 815 711 l 969 711 l 963 575 l 778 575 l 742 435 l 910 435 l 903 300 l 704 300 l 625 0 l 489 0 l 569 300 l 356 300 l 275 0 l 139 0 m 392 435 l 606 435 l 642 575 l 428 575 l 392 435 z "},"$":{"ha":842,"x_min":67,"x_max":775,"o":"m 775 257 q 694 69 775 135 q 492 -6 614 4 l 492 -75 l 356 -75 l 356 -6 q 200 19 272 0 q 81 64 128 39 l 81 213 q 196 160 122 182 q 356 132 269 139 l 356 435 q 140 542 213 481 q 67 722 67 604 q 144 895 67 825 q 356 978 222 965 l 356 1039 l 492 1039 l 492 979 q 645 951 568 974 q 753 900 722 929 l 719 775 q 492 843 628 833 l 492 532 q 705 423 635 482 q 775 257 775 364 m 639 257 q 602 331 639 300 q 492 389 565 361 l 492 131 q 599 169 557 136 q 639 257 640 203 m 201 724 q 240 641 201 675 q 356 581 279 607 l 356 843 q 242 803 282 836 q 201 724 201 771 z "},"%":{"ha":1179,"x_min":67,"x_max":1114,"o":"m 881 0 q 712 61 776 0 q 647 226 647 122 q 712 392 647 331 q 881 453 776 453 q 1049 392 985 453 q 1114 226 1114 331 q 1049 61 1114 122 q 881 0 985 0 m 299 528 q 131 589 196 528 q 67 754 67 650 q 131 919 67 858 q 299 981 194 981 q 467 919 403 981 q 531 754 531 858 q 466 589 531 650 q 299 528 401 528 m 825 1042 l 963 1042 l 379 6 l 242 6 l 825 1042 m 881 361 q 806 318 829 361 q 783 226 783 275 q 807 135 783 179 q 881 92 831 92 q 954 135 931 92 q 978 226 978 179 q 955 318 978 275 q 881 361 932 361 m 299 889 q 224 845 247 889 q 201 754 201 801 q 224 663 201 707 q 299 619 247 619 q 373 663 350 619 q 396 754 396 707 q 373 845 396 801 q 299 889 350 889 z "},"&":{"ha":961,"x_min":58,"x_max":896,"o":"m 667 225 q 747 324 719 261 q 774 453 774 388 l 896 450 q 858 279 896 367 q 740 132 821 192 l 844 0 l 682 0 l 636 57 q 400 8 535 8 q 171 65 267 8 q 69 231 75 121 q 121 387 60 319 q 283 493 182 454 q 189 622 221 567 q 157 743 157 676 q 229 914 157 853 q 400 975 301 975 q 572 916 499 975 q 646 746 646 857 q 588 586 646 651 q 453 489 529 521 l 667 225 m 324 426 q 216 320 242 379 q 226 208 190 261 q 303 151 251 172 q 419 131 356 131 q 549 154 488 131 l 324 426 m 292 744 q 394 568 292 675 q 511 740 511 650 q 481 825 511 794 q 397 856 450 856 q 321 824 350 856 q 292 744 292 793 z "},"'":{"ha":257,"x_min":67,"x_max":192,"o":"m 92 721 l 67 972 l 192 972 l 167 721 l 92 721 z "},"(":{"ha":481,"x_min":67,"x_max":414,"o":"m 317 -22 q 135 194 203 49 q 67 489 67 340 q 135 783 67 638 q 317 1000 203 929 l 414 1000 q 257 769 313 913 q 201 489 201 625 q 257 209 201 353 q 414 -22 313 65 l 317 -22 z "},")":{"ha":481,"x_min":67,"x_max":414,"o":"m 67 -22 q 224 210 169 67 q 279 489 279 354 q 224 767 279 624 q 67 1000 169 911 l 164 1000 q 346 783 278 929 q 414 489 414 638 q 347 197 414 343 q 164 -22 279 50 l 67 -22 z "},"*":{"ha":575,"x_min":57,"x_max":515,"o":"m 292 467 q 249 491 263 467 q 243 554 235 515 l 261 653 l 172 579 q 85 571 122 536 q 69 624 58 594 q 121 668 79 654 l 226 703 l 121 742 q 74 808 63 763 q 115 846 82 840 q 178 825 147 851 l 263 756 l 243 861 q 251 928 235 906 q 293 953 267 951 q 335 928 322 954 q 342 868 347 903 l 324 761 l 397 825 q 444 851 424 847 q 485 835 465 854 q 501 782 511 810 q 446 738 490 754 l 351 703 l 451 667 q 507 597 515 644 q 469 556 501 561 q 404 579 438 551 l 325 644 l 343 554 q 335 490 351 514 q 292 467 318 467 z "},"+":{"ha":700,"x_min":67,"x_max":633,"o":"m 286 51 l 286 311 l 67 311 l 67 439 l 286 439 l 286 626 l 414 626 l 414 439 l 633 439 l 633 311 l 414 311 l 414 51 l 286 51 z "},",":{"ha":275,"x_min":67,"x_max":215,"o":"m 67 71 q 87 119 67 99 q 138 139 107 139 q 186 119 167 139 q 208 72 206 100 q 176 -12 214 18 q 108 -37 138 -43 q 149 6 144 -24 l 138 4 q 88 22 110 1 q 67 71 67 42 z "},"-":{"ha":617,"x_min":67,"x_max":550,"o":"m 67 300 l 67 422 l 550 422 l 550 300 l 67 300 z "},".":{"ha":282,"x_min":67,"x_max":215,"o":"m 67 75 q 88 128 67 107 q 142 150 110 150 q 194 128 172 150 q 215 75 215 106 q 194 22 215 44 q 142 0 172 0 q 88 22 110 0 q 67 75 67 43 z "},"/":{"ha":594,"x_min":67,"x_max":528,"o":"m 67 -26 l 428 994 l 528 994 l 168 -26 l 67 -26 z "},":":{"ha":267,"x_min":67,"x_max":201,"o":"m 67 192 q 86 242 67 222 q 136 263 106 263 q 179 242 161 263 q 197 192 197 222 q 178 149 197 168 q 136 131 160 131 q 87 149 107 131 q 67 192 67 167 m 67 569 q 86 619 67 599 q 135 639 106 639 q 182 619 163 639 q 201 569 201 599 q 182 522 201 542 q 135 503 163 503 q 86 522 106 503 q 67 569 67 542 z "},";":{"ha":282,"x_min":64,"x_max":201,"o":"m 67 569 q 86 619 67 599 q 135 639 106 639 q 182 619 163 639 q 201 569 201 599 q 181 522 201 542 q 135 503 161 503 q 86 522 106 503 q 67 569 67 542 m 64 196 q 83 240 64 222 q 129 258 101 258 q 174 241 156 258 q 194 197 192 224 q 164 119 199 147 q 103 97 129 92 q 139 136 136 110 l 128 135 q 83 151 103 132 q 64 196 64 169 z "},"<":{"ha":742,"x_min":67,"x_max":675,"o":"m 69 425 l 67 425 l 67 553 l 675 764 l 675 631 l 275 488 l 675 361 l 675 228 l 69 425 z "},"=":{"ha":742,"x_min":67,"x_max":675,"o":"m 67 283 l 67 406 l 675 406 l 675 283 l 67 283 m 67 572 l 67 694 l 675 694 l 675 572 l 67 572 z "},">":{"ha":742,"x_min":67,"x_max":675,"o":"m 67 361 l 467 488 l 67 631 l 67 764 l 675 553 l 675 425 l 672 425 l 67 228 l 67 361 z "},"?":{"ha":782,"x_min":67,"x_max":717,"o":"m 364 -4 q 299 22 326 -4 q 272 86 272 49 q 299 151 272 125 q 364 178 326 178 q 428 151 401 178 q 456 86 456 125 q 428 22 456 49 q 364 -4 401 -4 m 289 292 q 326 422 289 372 q 435 529 363 471 q 536 629 503 585 q 569 743 569 674 q 528 865 569 818 q 397 913 486 913 q 258 862 306 913 q 211 733 211 811 l 67 733 q 160 966 67 886 q 400 1046 253 1046 q 631 965 546 1046 q 717 733 717 885 q 693 613 717 664 q 637 530 669 563 q 551 456 604 497 q 463 376 492 410 q 435 292 435 342 l 289 292 z "},"@":{"ha":1231,"x_min":67,"x_max":1175,"o":"m 617 189 q 443 258 508 189 q 378 435 378 328 q 449 609 378 539 q 622 679 521 679 q 748 647 690 679 q 839 561 806 615 q 872 442 872 507 l 872 328 q 894 260 872 282 q 950 240 917 239 q 1037 331 1013 246 q 1036 538 1061 417 q 899 767 1006 682 q 643 853 793 853 q 412 799 514 853 q 252 647 310 744 q 194 426 194 550 q 240 235 194 318 q 369 105 286 151 q 558 58 451 58 l 692 58 l 692 -56 l 558 -56 q 302 5 414 -56 q 128 174 190 65 q 67 424 67 283 q 140 703 67 579 q 344 898 214 828 q 639 968 475 968 q 986 851 846 968 q 1158 536 1126 735 q 1153 338 1174 431 q 1079 190 1132 246 q 950 135 1026 135 q 825 177 878 135 q 772 306 772 219 l 764 306 q 719 222 764 256 q 617 189 675 189 m 624 301 q 717 340 679 301 q 756 436 756 379 q 717 528 756 492 q 624 565 679 565 q 531 527 569 565 q 492 435 492 489 q 531 340 492 379 q 624 301 569 301 z "},"A":{"ha":890,"x_min":67,"x_max":825,"o":"m 67 628 q 112 800 67 722 q 236 922 157 878 q 411 967 315 967 l 486 967 q 656 922 578 967 q 779 799 733 876 q 825 628 825 722 l 825 0 l 689 0 l 689 349 l 201 349 l 201 0 l 67 0 l 67 628 m 411 832 q 262 774 322 832 q 201 628 201 715 l 201 483 l 689 483 l 689 628 q 628 773 689 714 q 479 832 567 832 l 411 832 z "},"B":{"ha":967,"x_min":67,"x_max":901,"o":"m 67 -3 l 67 633 q 113 806 67 726 q 239 933 158 886 q 419 981 319 981 l 538 981 q 754 906 669 981 q 839 714 839 831 q 789 578 839 631 q 644 525 739 525 l 644 511 q 901 292 901 511 q 856 140 901 207 q 731 35 811 74 q 550 -3 651 -3 l 67 -3 m 203 133 l 550 133 q 706 177 646 133 q 767 292 767 221 q 706 408 765 371 q 546 446 647 446 l 203 446 l 203 133 m 203 581 l 546 581 q 663 619 624 581 q 703 715 703 658 q 657 808 703 769 q 535 846 611 846 l 419 846 q 263 783 324 846 q 203 633 203 721 l 203 581 z "},"C":{"ha":1086,"x_min":67,"x_max":1019,"o":"m 201 485 q 248 310 201 390 q 374 183 294 229 q 547 136 454 136 q 738 186 651 136 q 865 321 825 236 l 1011 321 q 844 97 969 194 q 557 0 718 0 q 312 65 425 0 q 133 242 199 131 q 67 485 67 353 q 133 727 67 615 q 311 904 199 839 q 556 969 424 969 q 761 923 664 969 q 926 797 858 876 q 1019 621 994 717 l 878 621 q 753 773 842 713 q 554 833 665 833 q 378 787 460 833 q 249 660 297 740 q 201 485 201 579 z "},"D":{"ha":901,"x_min":67,"x_max":836,"o":"m 67 647 q 112 815 67 738 q 235 938 157 892 q 411 983 314 983 l 540 983 q 690 948 622 983 q 797 851 757 913 q 836 713 836 789 l 836 293 q 572 0 836 0 l 67 0 l 67 647 m 203 136 l 544 136 q 700 293 700 136 l 700 711 q 653 806 700 764 q 536 849 606 849 l 411 849 q 261 789 319 849 q 203 649 203 729 l 203 136 z "},"E":{"ha":785,"x_min":67,"x_max":719,"o":"m 650 444 l 201 442 l 201 350 q 264 199 201 263 q 413 136 326 136 l 719 136 l 719 0 l 417 0 q 240 47 321 0 q 113 174 160 93 q 67 350 67 254 l 67 617 q 113 794 67 714 q 240 920 160 874 q 417 967 321 967 l 719 967 l 719 832 l 413 832 q 264 769 326 832 q 201 617 201 706 l 201 578 l 650 581 l 650 444 z "},"F":{"ha":785,"x_min":67,"x_max":719,"o":"m 650 444 l 201 442 l 201 0 l 67 0 l 67 611 q 113 790 67 708 q 240 919 160 871 q 417 967 321 967 l 719 967 l 719 832 l 413 832 q 265 767 328 832 q 201 615 201 703 l 201 578 l 650 581 l 650 444 z "},"G":{"ha":1067,"x_min":67,"x_max":1000,"o":"m 201 485 q 248 310 201 390 q 375 183 294 229 q 551 136 456 136 q 712 172 639 136 q 827 267 785 207 q 869 401 869 328 l 483 401 l 483 536 l 1000 536 l 1000 399 q 940 198 1000 289 q 776 53 879 107 q 551 0 674 0 q 308 65 419 0 q 131 242 196 131 q 67 485 67 353 q 131 728 67 617 q 307 904 196 839 q 551 969 418 969 q 817 889 701 969 q 967 697 933 808 l 822 694 q 712 797 785 760 q 551 833 639 833 q 375 787 456 833 q 248 660 294 740 q 201 485 201 579 z "},"H":{"ha":890,"x_min":67,"x_max":825,"o":"m 67 972 l 201 972 l 201 567 l 689 567 l 689 972 l 825 972 l 825 0 l 689 0 l 689 432 l 201 432 l 201 0 l 67 0 l 67 972 z "},"I":{"ha":268,"x_min":67,"x_max":201,"o":"m 67 0 l 67 969 l 201 969 l 201 0 l 67 0 z "},"J":{"ha":876,"x_min":67,"x_max":811,"o":"m 469 136 q 615 196 556 136 q 675 342 675 256 l 675 969 l 811 969 l 811 342 q 766 169 811 247 q 644 47 721 92 q 478 1 567 1 l 408 1 q 236 48 314 1 q 113 174 158 94 q 67 344 67 253 l 201 344 q 263 197 201 257 q 408 136 324 136 l 469 136 z "},"K":{"ha":849,"x_min":67,"x_max":783,"o":"m 67 967 l 201 967 l 201 235 l 631 969 l 775 969 l 525 531 l 783 0 l 629 0 l 442 388 l 218 0 l 67 0 l 67 967 z "},"L":{"ha":776,"x_min":67,"x_max":711,"o":"m 67 967 l 201 967 l 201 136 l 711 136 l 711 0 l 67 0 l 67 967 z "},"M":{"ha":1406,"x_min":67,"x_max":1340,"o":"m 1206 626 q 1142 774 1206 713 q 983 835 1079 835 q 828 776 885 835 q 771 629 771 717 l 771 1 l 636 1 l 636 629 q 574 774 636 714 q 422 833 511 833 q 265 773 329 833 q 201 629 201 713 l 201 1 l 67 1 l 67 629 q 115 801 67 722 q 247 924 164 879 q 428 969 331 969 q 616 910 546 969 q 693 749 686 851 l 707 749 q 792 910 715 850 q 985 969 868 969 q 1165 925 1083 969 q 1294 801 1247 881 q 1340 626 1340 722 l 1340 1 l 1206 1 l 1206 626 z "},"N":{"ha":890,"x_min":67,"x_max":825,"o":"m 415 833 q 263 773 325 833 q 201 628 201 713 l 201 -8 l 67 -8 l 67 628 q 113 801 67 722 q 240 924 160 879 q 415 969 319 969 l 486 969 q 656 924 578 969 q 779 801 733 879 q 825 628 825 722 l 825 -8 l 689 -8 l 689 628 q 628 773 689 713 q 478 833 567 833 l 415 833 z "},"O":{"ha":1122,"x_min":67,"x_max":1056,"o":"m 67 485 q 133 734 67 619 q 313 916 200 849 q 561 983 426 983 q 809 916 696 983 q 989 734 922 849 q 1056 485 1056 619 q 989 234 1056 349 q 809 53 922 119 q 561 -14 696 -14 q 313 53 426 -14 q 133 234 200 119 q 67 485 67 349 m 201 485 q 249 303 201 386 q 380 171 297 219 q 561 122 463 122 q 742 171 660 122 q 873 303 825 219 q 921 485 921 386 q 873 667 921 583 q 742 799 825 750 q 561 847 660 847 q 380 799 463 847 q 249 667 297 750 q 201 485 201 583 z "},"P":{"ha":894,"x_min":67,"x_max":828,"o":"m 67 0 l 67 642 q 113 810 67 732 q 240 935 160 889 q 413 981 319 981 l 531 981 q 745 895 663 981 q 828 674 828 810 q 732 429 828 503 q 514 356 636 356 l 203 356 l 203 0 l 67 0 m 203 492 l 514 492 q 648 542 603 492 q 693 674 693 593 q 649 795 693 746 q 528 844 604 844 l 413 844 q 314 820 363 844 q 234 750 265 796 q 203 642 203 704 l 203 492 z "},"Q":{"ha":1122,"x_min":67,"x_max":1057,"o":"m 67 485 q 133 734 67 619 q 313 916 200 849 q 561 983 426 983 q 810 916 696 983 q 990 734 924 849 q 1056 485 1056 619 q 1001 256 1056 350 q 883 128 947 161 l 1036 129 l 1036 4 l 556 4 q 291 76 401 3 q 124 260 181 149 q 67 485 67 372 m 201 485 q 250 303 201 386 q 381 173 299 221 q 561 125 464 125 q 742 173 660 125 q 873 303 825 221 q 921 485 921 386 q 873 667 921 583 q 742 799 825 750 q 561 847 660 847 q 380 799 463 847 q 249 667 297 750 q 201 485 201 583 z "},"R":{"ha":901,"x_min":67,"x_max":836,"o":"m 67 633 q 114 803 67 722 q 237 932 161 883 q 392 981 313 981 l 536 981 q 689 941 621 981 q 797 833 757 901 q 836 678 836 764 q 785 508 836 569 q 639 447 733 447 l 639 431 q 785 377 733 432 q 836 221 836 322 l 836 0 l 700 0 l 700 224 q 542 375 700 375 l 201 375 l 200 0 l 67 0 l 67 633 m 542 511 q 659 558 618 511 q 700 678 700 606 q 656 797 700 747 q 536 846 611 846 l 392 846 q 259 783 315 846 q 203 633 203 721 l 203 511 l 542 511 z "},"S":{"ha":836,"x_min":67,"x_max":769,"o":"m 769 258 q 671 54 769 118 q 424 -10 572 -10 q 226 13 317 -10 q 86 65 136 36 l 86 217 q 238 150 138 175 q 444 125 339 125 q 581 157 526 125 q 635 258 635 189 q 590 337 635 310 q 451 397 546 364 q 401 414 418 408 q 367 426 390 418 q 208 492 267 463 q 108 577 149 522 q 67 718 67 632 q 160 908 67 833 q 417 983 253 983 q 609 960 513 983 q 747 903 706 938 l 714 778 q 583 829 667 811 q 417 847 500 847 q 260 815 319 847 q 201 718 201 783 q 253 628 201 663 q 390 563 304 594 q 474 532 418 551 q 636 466 578 494 q 732 388 694 438 q 769 258 769 338 z "},"T":{"ha":851,"x_min":67,"x_max":786,"o":"m 358 843 l 67 843 l 67 967 l 786 967 l 786 843 l 493 843 l 493 0 l 358 0 l 358 843 z "},"U":{"ha":897,"x_min":67,"x_max":831,"o":"m 483 136 q 633 197 571 136 q 696 342 696 257 l 696 969 l 831 969 l 831 342 q 784 169 831 247 q 660 47 738 92 q 490 1 582 1 l 419 1 q 242 46 322 1 q 114 169 161 90 q 67 342 67 247 l 67 969 l 201 969 l 201 342 q 265 197 201 257 q 419 136 329 136 l 483 136 z "},"V":{"ha":853,"x_min":58,"x_max":786,"o":"m 303 136 q 510 174 435 136 q 619 293 586 211 q 651 518 651 375 l 651 969 l 786 969 l 786 518 q 671 127 786 253 q 303 1 556 1 l 58 1 l 58 969 l 194 969 l 194 136 l 303 136 z "},"W":{"ha":1344,"x_min":67,"x_max":1278,"o":"m 1142 971 l 1278 971 l 1278 347 q 1233 173 1278 251 q 1110 49 1188 94 q 935 3 1032 4 q 758 56 835 3 q 672 183 682 108 l 661 183 q 585 56 654 106 q 413 6 517 6 q 240 51 318 6 q 114 174 161 96 q 67 344 67 251 l 67 972 l 201 972 l 201 344 q 261 201 201 261 q 407 140 321 140 q 547 200 489 140 q 604 344 604 260 l 604 972 l 739 972 l 739 344 q 792 197 739 256 q 938 139 846 139 q 1084 200 1026 139 q 1142 347 1142 261 l 1142 971 z "},"X":{"ha":874,"x_min":67,"x_max":808,"o":"m 578 469 q 693 434 640 469 q 777 339 746 399 q 808 207 808 279 l 808 -1 l 672 -1 l 672 204 q 607 350 672 297 q 432 403 542 403 q 265 348 329 403 q 201 204 201 293 l 201 -1 l 67 -1 l 67 207 q 133 394 67 318 q 294 469 199 469 l 294 486 q 133 562 199 486 q 67 749 67 638 l 67 957 l 201 957 l 201 751 q 267 607 201 661 q 432 553 332 553 q 606 606 539 553 q 672 751 672 658 l 672 957 l 808 957 l 808 749 q 777 617 808 676 q 693 522 746 557 q 578 486 640 486 l 578 469 z "},"Y":{"ha":853,"x_min":67,"x_max":786,"o":"m 428 458 q 591 515 531 458 q 651 663 651 572 l 651 969 l 786 969 l 786 663 q 700 422 786 515 q 492 329 614 329 l 494 0 l 361 0 l 358 329 q 210 372 276 329 q 105 492 143 415 q 67 663 67 568 l 67 969 l 201 969 l 201 663 q 261 515 201 572 q 428 458 321 458 z "},"Z":{"ha":810,"x_min":67,"x_max":744,"o":"m 572 833 l 108 833 l 108 969 l 736 969 l 736 833 l 233 131 l 744 131 l 744 -4 l 67 -4 l 67 135 l 572 833 z "},"[":{"ha":358,"x_min":67,"x_max":292,"o":"m 67 -56 l 67 961 l 292 961 l 292 825 l 211 825 l 211 81 l 292 81 l 292 -56 l 67 -56 z "},"\\":{"ha":608,"x_min":67,"x_max":543,"o":"m 67 994 l 182 994 l 543 -26 l 425 -26 l 67 994 z "},"]":{"ha":358,"x_min":67,"x_max":292,"o":"m 67 81 l 147 81 l 147 825 l 67 825 l 67 961 l 292 961 l 292 -56 l 67 -56 l 67 81 z "},"^":{"ha":674,"x_min":67,"x_max":608,"o":"m 67 756 l 286 972 l 389 972 l 608 756 l 467 756 l 339 878 l 207 756 l 67 756 z "},"_":{"ha":746,"x_min":67,"x_max":681,"o":"m 67 0 l 67 125 l 681 125 l 681 0 l 67 0 z "},"`":{"ha":369,"x_min":67,"x_max":304,"o":"m 67 972 l 213 972 l 304 778 l 214 778 l 67 972 z "},"a":{"ha":846,"x_min":65,"x_max":775,"o":"m 408 -8 q 229 37 307 -8 q 108 161 151 82 q 65 339 65 240 q 113 519 65 439 q 241 646 160 600 q 421 692 322 692 q 599 646 518 692 q 728 521 681 600 q 775 346 775 442 l 775 1 l 640 1 l 640 163 l 628 163 q 560 41 626 90 q 408 -8 493 -8 m 421 119 q 572 184 510 119 q 635 339 635 249 q 573 494 635 432 q 421 557 511 557 q 265 494 328 557 q 203 339 203 432 q 266 183 203 247 q 421 119 329 119 z "},"b":{"ha":829,"x_min":67,"x_max":763,"o":"m 217 521 q 283 638 224 592 q 433 685 343 685 q 606 640 531 685 q 722 516 681 594 q 763 343 763 438 q 717 166 763 246 q 593 40 672 86 q 417 -6 514 -6 q 241 40 321 -6 q 114 164 161 85 q 67 340 67 243 l 67 968 l 203 968 l 203 521 l 217 521 m 626 343 q 565 490 626 431 q 415 549 503 549 q 267 488 328 549 q 206 343 206 428 q 267 191 206 251 q 417 131 328 131 q 566 191 506 131 q 626 343 626 251 z "},"c":{"ha":829,"x_min":67,"x_max":763,"o":"m 203 342 q 267 192 203 256 q 419 129 331 129 q 547 169 490 129 q 624 272 603 210 l 763 272 q 640 74 736 154 q 421 -7 544 -7 q 244 40 325 -7 q 115 167 163 88 q 67 342 67 247 q 114 517 67 436 q 242 644 161 597 q 419 692 324 692 q 644 608 547 692 q 763 401 742 525 l 624 401 q 546 513 603 469 q 419 556 489 556 q 267 492 331 556 q 203 342 203 429 z "},"d":{"ha":829,"x_min":67,"x_max":763,"o":"m 626 521 l 626 972 l 763 972 l 763 340 q 715 165 763 243 q 588 41 668 86 q 413 -4 508 -4 q 236 42 315 -4 q 112 167 157 88 q 67 343 67 246 q 108 515 67 436 q 223 639 149 593 q 396 685 297 685 q 546 639 486 685 q 613 521 606 593 l 626 521 m 203 343 q 263 192 203 251 q 413 132 324 132 q 563 192 501 132 q 624 343 624 253 q 562 488 624 428 q 413 549 500 549 q 264 488 325 549 q 203 343 203 428 z "},"e":{"ha":815,"x_min":67,"x_max":757,"o":"m 67 339 q 113 513 67 433 q 239 638 160 592 q 414 683 318 683 q 599 634 519 683 q 718 497 679 585 q 746 297 757 408 l 210 297 q 274 176 221 221 q 400 131 326 131 q 576 213 519 131 l 729 211 q 609 53 696 113 q 408 -6 522 -6 q 237 41 315 -6 q 113 167 158 88 q 67 339 67 246 m 608 413 q 544 508 601 468 q 414 549 488 549 q 278 509 336 549 q 208 413 219 469 l 608 413 z "},"f":{"ha":611,"x_min":67,"x_max":546,"o":"m 164 560 l 67 560 l 67 694 l 167 694 l 167 733 q 240 901 167 835 q 428 967 314 967 l 546 967 l 546 832 l 429 832 q 338 805 374 832 q 303 738 303 778 l 303 694 l 496 694 l 496 560 l 300 560 l 299 4 l 164 4 l 164 560 z "},"g":{"ha":856,"x_min":67,"x_max":782,"o":"m 414 -1 q 240 46 319 -1 q 113 172 160 93 q 67 344 67 251 q 113 519 67 439 q 240 645 160 599 q 414 692 319 692 q 588 645 508 692 q 715 519 668 599 q 761 344 761 439 q 715 172 761 251 q 588 46 668 93 q 414 -1 508 -1 m 696 667 q 634 692 660 667 q 608 754 608 718 q 634 815 608 790 q 696 840 660 840 q 756 815 731 840 q 782 754 782 789 q 757 692 782 718 q 696 667 732 667 m 201 344 q 264 197 201 260 q 413 135 326 135 q 562 197 499 135 q 625 344 625 260 q 562 493 625 431 q 413 556 499 556 q 264 493 326 556 q 201 344 201 431 m 413 -371 q 578 -330 503 -371 q 701 -218 654 -289 q 754 -61 749 -147 l 617 -61 q 549 -186 607 -136 q 413 -236 490 -236 q 272 -185 332 -236 q 206 -61 213 -135 l 69 -61 q 124 -219 76 -149 q 248 -331 172 -290 q 413 -371 324 -371 z "},"h":{"ha":806,"x_min":67,"x_max":739,"o":"m 603 364 q 544 499 603 443 q 401 554 485 554 q 260 498 319 554 q 201 364 201 442 l 201 0 l 67 0 l 67 969 l 201 969 l 201 533 l 215 533 q 274 645 215 600 q 419 689 332 690 q 587 644 514 689 q 699 526 660 600 q 739 364 739 451 l 739 0 l 603 0 l 603 364 z "},"i":{"ha":304,"x_min":67,"x_max":239,"o":"m 85 689 l 219 689 l 219 0 l 85 0 l 85 689 m 67 851 q 92 912 67 888 q 153 936 117 936 q 214 911 189 936 q 239 851 239 886 q 214 790 239 815 q 153 764 189 764 q 92 790 117 764 q 67 851 67 815 z "},"j":{"ha":421,"x_min":67,"x_max":356,"o":"m 340 50 q 273 -146 346 -75 q 67 -217 200 -217 l 67 -83 q 173 -53 140 -83 q 206 49 206 -22 l 208 694 l 344 694 l 340 50 m 183 856 q 209 915 183 890 q 269 940 235 940 q 330 915 304 940 q 356 856 356 890 q 331 794 356 819 q 269 768 306 768 q 208 794 233 768 q 183 856 183 819 z "},"k":{"ha":826,"x_min":67,"x_max":760,"o":"m 67 968 l 201 968 l 201 221 l 535 692 l 692 692 l 467 381 l 760 0 l 594 0 l 389 256 l 200 0 l 67 0 l 67 968 z "},"l":{"ha":267,"x_min":67,"x_max":201,"o":"m 67 967 l 201 967 l 201 0 l 67 0 l 67 967 z "},"m":{"ha":1247,"x_min":67,"x_max":1181,"o":"m 1044 360 q 994 504 1044 449 q 867 560 944 560 q 738 505 783 560 q 692 361 692 450 l 692 1 l 556 1 l 556 361 q 503 502 556 444 q 379 558 451 560 q 252 502 303 558 q 201 361 201 446 l 201 1 l 67 1 l 67 363 q 109 533 68 457 q 221 652 150 608 q 379 696 292 696 q 540 648 474 696 q 614 526 607 600 l 624 526 q 704 647 633 597 q 867 697 775 697 q 1092 601 1004 694 q 1181 360 1181 507 l 1181 3 l 1044 3 l 1044 360 z "},"n":{"ha":794,"x_min":67,"x_max":728,"o":"m 396 697 q 563 653 486 697 q 683 533 639 610 q 728 363 728 456 l 728 1 l 593 1 l 593 363 q 535 505 593 449 q 396 560 478 561 q 257 504 313 560 q 201 363 201 449 l 201 1 l 67 1 l 67 363 q 110 533 67 457 q 228 653 153 610 q 396 697 303 697 z "},"o":{"ha":831,"x_min":67,"x_max":764,"o":"m 415 -4 q 241 42 321 -4 q 114 169 161 89 q 67 343 67 249 q 114 517 67 438 q 241 644 161 597 q 415 692 321 692 q 590 644 510 692 q 717 517 669 597 q 764 343 764 438 q 717 169 764 249 q 590 42 669 89 q 415 -4 510 -4 m 415 132 q 566 194 503 132 q 629 344 629 257 q 565 492 629 429 q 415 556 501 556 q 265 492 329 556 q 201 344 201 429 q 265 194 201 258 q 415 132 328 131 z "},"p":{"ha":825,"x_min":67,"x_max":760,"o":"m 201 168 l 201 -281 l 67 -281 l 67 349 q 113 524 67 446 q 240 647 160 603 q 414 692 319 692 q 590 646 511 692 q 715 522 669 600 q 760 346 760 443 q 672 108 760 206 q 433 6 583 10 q 279 53 335 4 q 215 168 224 101 l 201 168 m 625 346 q 565 497 625 438 q 414 557 504 557 q 265 497 326 557 q 204 346 204 436 q 265 201 204 261 q 414 142 326 142 q 564 201 503 142 q 625 346 625 261 z "},"q":{"ha":825,"x_min":67,"x_max":760,"o":"m 611 167 q 546 51 601 100 q 392 4 490 3 q 154 106 242 8 q 67 344 67 204 q 112 521 67 442 q 235 645 157 600 q 411 690 314 690 q 656 594 556 690 q 760 347 756 499 l 760 -282 l 625 -282 l 625 167 l 611 167 m 201 344 q 263 199 201 260 q 411 139 324 139 q 560 199 499 139 q 621 344 621 260 q 560 495 621 435 q 411 556 500 556 q 262 496 322 556 q 201 344 201 436 z "},"r":{"ha":532,"x_min":67,"x_max":467,"o":"m 396 556 q 258 496 315 556 q 201 350 201 436 l 201 1 l 67 1 l 67 350 q 111 523 67 444 q 231 647 156 601 q 396 692 306 692 l 467 692 l 467 556 l 396 556 z "},"s":{"ha":688,"x_min":65,"x_max":622,"o":"m 622 197 q 543 44 622 90 q 336 -3 464 -3 q 186 14 254 -3 q 78 51 118 31 l 78 178 q 350 119 200 119 q 440 134 397 119 q 483 188 483 149 q 448 241 485 222 q 339 279 411 260 q 310 288 319 285 q 304 289 308 288 q 181 331 229 310 q 99 393 133 351 q 67 501 65 435 q 145 647 68 593 q 350 700 222 700 q 489 687 425 700 q 586 654 553 674 l 576 533 q 353 585 490 575 q 240 571 276 590 q 200 517 204 551 q 346 413 192 451 q 497 367 440 390 q 588 304 554 344 q 622 197 622 264 z "},"t":{"ha":546,"x_min":67,"x_max":481,"o":"m 406 551 l 201 551 l 203 353 q 266 195 213 254 q 403 136 319 136 l 481 136 l 481 1 l 403 1 q 233 48 310 1 q 111 175 156 94 q 67 353 67 256 l 67 785 l 201 785 l 201 686 l 406 686 l 406 551 z "},"u":{"ha":794,"x_min":67,"x_max":728,"o":"m 399 -4 q 232 40 308 -4 q 111 160 156 83 q 67 331 67 236 l 67 692 l 201 692 l 201 331 q 259 188 201 244 q 399 132 317 132 q 538 189 482 133 q 593 331 593 244 l 593 692 l 728 692 l 728 329 q 685 159 728 235 q 567 40 642 83 q 399 -4 492 -4 z "},"v":{"ha":749,"x_min":67,"x_max":683,"o":"m 240 138 q 470 193 393 142 q 547 342 547 244 l 547 692 l 683 692 l 683 342 q 559 90 683 178 q 228 1 435 1 l 67 1 l 67 692 l 201 692 l 201 136 l 240 138 z "},"w":{"ha":1247,"x_min":67,"x_max":1181,"o":"m 381 4 q 221 47 293 4 q 108 165 149 89 q 67 336 67 242 l 67 693 l 201 693 l 201 336 q 252 194 201 249 q 381 139 303 139 q 505 195 454 139 q 556 336 556 251 l 556 694 l 692 694 l 692 336 q 740 195 692 251 q 868 139 788 139 q 994 195 944 139 q 1044 338 1044 251 l 1044 693 l 1181 693 l 1181 338 q 1094 100 1181 193 q 868 3 1007 7 q 704 53 776 3 q 624 172 632 103 l 614 172 q 542 51 607 99 q 381 4 476 4 z "},"x":{"ha":817,"x_min":67,"x_max":750,"o":"m 750 692 q 699 483 750 574 q 557 347 649 393 l 557 338 q 699 201 647 289 q 750 -1 750 113 l 615 -1 q 555 197 615 117 q 408 278 494 278 q 257 193 313 278 q 201 -1 201 108 l 67 -1 q 119 199 67 110 q 261 338 171 288 l 261 347 q 118 482 169 390 q 67 692 67 574 l 201 692 q 226 561 201 625 q 299 456 251 497 q 408 415 346 415 q 556 501 497 415 q 615 692 615 588 l 750 692 z "},"y":{"ha":813,"x_min":68,"x_max":746,"o":"m 407 150 q 550 206 492 150 q 608 344 608 263 l 608 692 l 744 692 l 744 344 q 700 178 744 254 q 578 59 656 103 q 407 15 501 15 q 237 60 314 15 q 115 179 160 104 q 68 344 69 254 l 68 692 l 204 692 l 204 344 q 263 207 204 264 q 407 150 322 150 m 407 -236 q 541 -186 483 -236 q 608 -61 599 -136 l 746 -61 q 694 -218 740 -147 q 572 -330 647 -289 q 407 -371 496 -371 q 244 -331 319 -371 q 122 -219 169 -290 q 68 -61 75 -149 l 203 -61 q 269 -185 211 -135 q 407 -236 328 -236 z "},"z":{"ha":689,"x_min":67,"x_max":622,"o":"m 83 551 l 83 686 l 622 686 l 622 536 q 545 317 622 421 q 364 131 468 213 l 622 131 l 622 -4 l 67 -4 l 67 131 q 216 195 108 131 q 406 356 324 260 q 489 551 489 453 l 83 551 z "},"{":{"ha":394,"x_min":67,"x_max":328,"o":"m 283 676 q 267 555 283 603 q 194 489 250 507 q 267 422 251 471 q 283 296 283 374 l 283 169 q 293 108 283 124 q 328 92 303 92 l 328 -24 q 218 -8 258 -24 q 157 49 178 7 q 136 169 136 90 l 136 296 q 119 384 136 349 q 67 428 101 419 l 67 544 q 119 588 101 553 q 136 676 136 624 l 136 803 q 176 952 136 908 q 328 996 215 996 l 328 881 q 293 865 303 881 q 283 803 283 849 l 283 676 z "},"|":{"ha":250,"x_min":67,"x_max":183,"o":"m 67 -50 l 67 1021 l 183 1021 l 183 -50 l 67 -50 z "},"}":{"ha":394,"x_min":67,"x_max":328,"o":"m 111 803 q 101 865 111 849 q 67 881 92 881 l 67 996 q 219 952 179 996 q 258 803 258 908 l 258 676 q 276 588 258 624 q 328 544 293 553 l 328 428 q 276 384 293 419 q 258 296 258 349 l 258 169 q 238 49 258 90 q 176 -8 217 7 q 67 -24 136 -24 l 67 92 q 101 108 92 92 q 111 169 111 124 l 111 296 q 127 422 111 374 q 200 489 143 471 q 128 555 144 507 q 111 676 111 603 l 111 803 z "},"~":{"ha":525,"x_min":67,"x_max":460,"o":"m 67 842 q 92 940 67 900 q 172 981 118 981 q 286 963 211 981 q 350 950 333 950 q 376 972 376 950 l 460 972 q 434 874 454 911 q 363 836 414 836 q 256 853 328 836 q 190 864 207 864 q 163 842 163 864 l 67 842 z "}," ":{"ha":310,"x_min":0,"x_max":0,"o":""},"¡":{"ha":322,"x_min":72,"x_max":257,"o":"m 75 882 q 101 817 75 843 q 167 790 128 790 q 231 817 204 790 q 257 882 257 843 q 231 946 257 919 q 167 972 204 972 q 101 946 128 972 q 75 882 75 919 m 114 726 l 72 3 l 250 3 l 211 726 l 114 726 z "},"¢":{"ha":826,"x_min":67,"x_max":761,"o":"m 356 -114 l 356 3 q 149 121 231 25 q 67 343 67 217 q 149 567 67 471 q 356 685 231 663 l 356 814 l 472 814 l 472 686 q 663 588 583 668 q 761 397 743 508 l 622 397 q 472 546 586 515 l 472 140 q 622 278 586 172 l 761 278 q 658 95 738 172 q 472 1 579 18 l 472 -114 l 356 -114 m 201 343 q 245 218 201 274 q 356 143 289 163 l 356 544 q 245 469 289 525 q 201 343 201 413 z "},"£":{"ha":725,"x_min":67,"x_max":658,"o":"m 67 0 l 67 146 q 153 174 132 146 q 175 283 175 201 l 175 419 l 83 419 l 83 558 l 175 558 l 175 700 q 241 898 175 824 q 428 972 307 972 q 624 925 533 972 l 624 769 q 551 810 596 796 q 457 825 506 825 q 368 794 404 825 q 332 708 332 763 l 332 558 l 614 558 l 614 419 l 332 419 l 332 289 q 219 146 332 167 l 658 146 l 658 0 l 67 0 z "},"¤":{"ha":653,"x_min":67,"x_max":588,"o":"m 150 226 q 67 429 67 297 q 150 631 67 558 l 104 719 l 203 719 l 226 674 q 326 690 276 690 q 428 674 386 690 l 453 719 l 553 719 l 504 629 q 588 429 588 554 q 506 228 588 299 l 553 138 l 453 138 l 428 183 q 326 167 386 167 q 226 183 276 167 l 203 138 l 104 138 l 150 226 m 326 588 q 221 542 258 588 q 183 429 183 497 q 221 314 183 358 q 326 269 258 269 q 433 314 396 269 q 471 429 471 358 q 433 542 471 497 q 326 588 394 588 z "},"¥":{"ha":811,"x_min":67,"x_max":744,"o":"m 406 469 q 555 524 500 469 q 610 669 610 578 l 610 972 l 744 972 l 744 669 q 665 432 744 522 l 689 432 l 689 311 l 472 311 l 475 197 l 679 197 l 679 76 l 475 76 l 475 0 l 339 0 l 339 76 l 128 76 l 128 197 l 339 197 l 336 311 l 118 311 l 118 432 l 144 432 q 67 669 67 521 l 67 972 l 201 972 l 201 669 q 257 524 201 578 q 406 469 313 469 z "},"¦":{"ha":253,"x_min":67,"x_max":183,"o":"m 67 -50 l 67 465 l 183 465 l 183 -50 l 67 -50 m 67 568 l 67 1083 l 183 1083 l 183 568 l 67 568 z "},"§":{"ha":871,"x_min":67,"x_max":800,"o":"m 419 0 q 67 108 186 0 l 136 203 q 408 118 253 118 q 547 140 482 118 q 611 194 611 161 q 568 228 611 215 q 433 260 525 242 q 350 278 378 272 q 172 342 236 297 q 108 453 108 386 q 200 594 108 542 q 108 724 108 640 q 215 878 108 831 q 444 925 322 925 q 639 898 543 925 q 800 819 735 871 l 721 731 q 621 783 689 763 q 472 804 553 804 q 353 788 413 804 q 294 732 294 772 q 358 685 294 700 q 492 664 421 669 q 710 604 621 649 q 799 471 799 560 q 694 329 799 381 q 770 276 742 310 q 799 201 799 242 q 682 49 799 99 q 419 0 565 0 m 257 460 q 313 413 257 432 q 453 393 369 393 q 592 413 533 393 q 650 460 650 432 q 593 510 650 490 q 453 529 536 529 q 313 511 368 529 q 257 460 257 493 z "},"¨":{"ha":572,"x_min":67,"x_max":507,"o":"m 154 778 q 92 803 118 778 q 67 867 67 829 q 92 928 67 903 q 154 953 118 953 q 215 928 190 953 q 240 867 240 903 q 215 803 240 829 q 154 778 190 778 m 419 778 q 358 803 383 778 q 332 867 332 829 q 358 928 332 903 q 419 953 383 953 q 481 928 456 953 q 507 867 507 903 q 481 803 507 829 q 419 778 456 778 z "},"©":{"ha":1196,"x_min":97,"x_max":1161,"o":"m 639 176 q 481 218 553 176 q 366 331 408 260 q 324 486 324 401 q 366 642 324 571 q 481 756 408 714 q 638 797 553 797 q 840 722 753 797 q 944 535 926 647 l 824 535 q 754 640 806 600 q 638 681 703 681 q 500 623 558 681 q 442 486 442 565 q 500 351 442 408 q 638 294 558 294 q 753 333 701 294 q 824 428 806 371 l 944 428 q 835 249 921 321 q 639 176 750 176 m 631 -35 q 353 26 474 -35 q 165 203 232 88 q 97 475 97 318 q 165 747 97 629 q 355 927 233 864 q 631 990 476 990 q 904 926 783 990 q 1093 746 1025 863 q 1161 475 1161 629 q 1094 205 1161 321 q 906 27 1026 89 q 631 -35 785 -35 m 213 482 q 268 267 213 360 q 420 126 324 175 q 638 76 517 76 q 856 126 760 76 q 1006 268 951 176 q 1060 482 1060 360 q 1006 697 1060 603 q 856 841 951 790 q 638 892 760 892 q 419 840 515 892 q 267 696 322 789 q 213 482 213 603 z "},"ª":{"ha":579,"x_min":67,"x_max":513,"o":"m 282 529 q 126 592 185 529 q 67 753 67 656 q 130 911 67 849 q 289 974 193 974 q 448 910 383 974 q 513 757 513 847 l 513 539 l 419 539 l 419 639 l 410 639 q 374 560 410 592 q 282 529 339 529 m 289 622 q 378 661 340 622 q 415 753 415 700 q 378 844 415 808 q 289 881 342 881 q 197 844 235 881 q 160 753 160 808 q 197 660 160 699 q 289 622 235 622 z "},"«":{"ha":753,"x_min":67,"x_max":688,"o":"m 297 29 l 67 349 l 297 667 l 447 667 l 214 349 l 447 29 l 297 29 m 539 29 l 307 349 l 539 667 l 688 667 l 456 349 l 688 29 l 539 29 z "},"¬":{"ha":747,"x_min":67,"x_max":681,"o":"m 67 325 l 67 439 l 681 439 l 681 186 l 567 186 l 567 325 l 67 325 z "},"­":{"ha":83,"x_min":0,"x_max":0,"o":""},"®":{"ha":988,"x_min":97,"x_max":953,"o":"m 358 671 q 401 768 358 729 q 499 807 443 807 l 565 807 q 653 771 618 807 q 689 681 689 735 q 661 602 689 629 q 592 575 633 575 l 592 564 q 660 537 632 564 q 689 465 689 510 l 689 364 l 614 364 l 614 444 q 599 508 614 485 q 543 531 585 531 l 425 531 l 425 364 l 358 364 l 358 671 m 953 576 q 899 360 953 453 q 747 217 844 267 q 526 167 650 167 q 217 276 338 167 q 97 576 97 386 q 152 794 97 700 q 305 940 207 889 q 526 990 403 990 q 746 939 649 990 q 898 794 843 888 q 953 576 953 700 m 553 597 q 614 669 614 597 q 553 739 614 739 l 499 739 q 447 717 468 739 q 424 663 425 696 l 424 597 l 553 597 m 528 260 q 767 347 674 260 q 860 578 860 433 q 765 811 860 722 q 528 900 671 900 q 288 811 382 900 q 193 578 193 722 q 287 346 193 432 q 528 260 381 260 z "},"¯":{"ha":647,"x_min":67,"x_max":581,"o":"m 67 871 l 67 985 l 581 985 l 581 871 l 67 871 z "},"°":{"ha":710,"x_min":67,"x_max":644,"o":"m 644 706 q 561 506 644 582 q 353 431 478 431 q 147 506 228 431 q 67 706 67 582 q 147 901 67 829 q 353 972 226 972 q 563 901 481 972 q 644 706 644 831 m 200 703 q 241 585 200 636 q 354 533 282 533 q 466 585 425 533 q 507 703 507 636 q 466 820 507 771 q 354 869 425 869 q 241 820 282 869 q 200 703 200 771 z "},"±":{"ha":700,"x_min":67,"x_max":633,"o":"m 67 157 l 633 157 l 633 29 l 67 29 l 67 157 m 286 232 l 286 390 l 67 390 l 67 518 l 286 518 l 286 667 l 414 667 l 414 518 l 633 518 l 633 390 l 414 390 l 414 232 l 286 232 z "},"²":{"ha":547,"x_min":65,"x_max":478,"o":"m 67 533 q 280 645 188 571 q 372 793 372 719 q 279 897 372 896 l 261 897 q 180 868 207 897 q 156 808 153 839 l 65 810 q 122 932 65 881 q 260 983 178 983 l 282 983 q 422 935 371 983 q 472 804 472 888 q 433 682 472 740 q 342 583 393 624 q 261 533 292 543 l 478 533 l 478 444 l 67 444 l 67 533 z "},"³":{"ha":603,"x_min":67,"x_max":536,"o":"m 260 428 q 124 480 181 428 q 67 603 67 532 l 167 603 q 198 535 167 564 q 281 506 229 506 l 311 506 q 392 530 360 506 q 425 589 425 554 q 395 651 425 626 q 314 675 365 675 l 222 675 l 222 754 l 332 754 q 383 775 367 754 q 399 826 399 796 q 374 874 399 853 q 307 894 349 894 l 274 894 q 189 865 222 894 q 156 797 156 836 l 67 797 q 125 923 67 871 q 264 975 183 975 l 331 975 q 453 933 406 975 q 500 825 500 890 q 471 748 500 776 q 386 719 442 719 l 386 714 q 500 683 464 714 q 536 589 536 653 q 476 473 536 518 q 331 428 417 428 l 260 428 z "},"´":{"ha":368,"x_min":67,"x_max":301,"o":"m 67 778 l 156 972 l 301 972 l 157 778 l 67 778 z "},"¶":{"ha":739,"x_min":67,"x_max":674,"o":"m 489 0 l 392 0 l 392 458 l 308 458 q 133 532 199 458 q 67 717 67 606 q 143 904 67 833 q 333 975 219 975 l 674 975 l 674 0 l 575 0 l 575 881 l 489 881 l 489 0 z "},"·":{"ha":306,"x_min":67,"x_max":239,"o":"m 67 836 q 92 899 67 874 q 153 925 117 925 q 214 899 189 925 q 239 836 239 874 q 214 775 239 800 q 153 750 189 750 q 92 775 117 750 q 67 836 67 800 z "},"¸":{"ha":478,"x_min":67,"x_max":413,"o":"m 153 33 l 228 33 l 193 -72 q 279 -39 228 -39 q 376 -80 339 -39 q 413 -181 413 -121 q 360 -293 413 -254 q 229 -332 308 -332 q 67 -275 124 -332 l 108 -206 q 215 -249 147 -249 q 285 -232 256 -249 q 314 -179 314 -215 q 296 -135 314 -151 q 249 -118 278 -118 q 179 -147 208 -118 l 89 -147 l 153 33 z "},"¹":{"ha":282,"x_min":67,"x_max":217,"o":"m 108 460 l 108 894 l 67 896 l 67 929 l 217 972 l 217 460 l 108 460 z "},"º":{"ha":561,"x_min":67,"x_max":496,"o":"m 201 735 q 224 790 201 767 q 279 813 247 813 q 336 790 313 813 q 360 735 360 767 q 336 679 360 703 q 279 656 313 656 q 224 679 247 656 q 201 735 201 703 m 67 735 q 129 583 67 646 q 281 521 192 521 q 433 583 369 521 q 496 735 496 646 q 433 886 496 824 q 281 949 369 949 q 129 886 192 949 q 67 735 67 824 z "},"»":{"ha":754,"x_min":67,"x_max":689,"o":"m 297 349 l 67 667 l 215 667 l 447 349 l 215 29 l 67 29 l 297 349 m 539 349 l 307 667 l 456 667 l 689 349 l 456 29 l 307 29 l 539 349 z "},"¼":{"ha":1058,"x_min":67,"x_max":992,"o":"m 119 433 l 119 876 l 67 856 l 67 931 l 150 978 l 219 978 l 219 433 l 119 433 m 183 -26 l 544 994 l 644 994 l 285 -26 l 183 -26 m 844 139 l 536 139 l 536 231 l 836 553 l 936 553 l 936 231 l 992 231 l 992 139 l 936 139 l 936 4 l 844 4 l 844 139 m 653 231 l 844 231 l 844 432 l 653 231 z "},"½":{"ha":1061,"x_min":67,"x_max":996,"o":"m 585 97 q 806 203 721 135 q 890 351 890 272 q 797 458 890 457 l 779 458 q 702 431 728 458 q 676 363 676 403 l 586 372 q 642 494 586 443 q 778 546 699 546 l 799 546 q 940 497 889 546 q 990 361 990 447 q 953 236 990 293 q 867 143 917 179 q 782 97 818 107 l 996 97 l 996 7 l 585 7 l 585 97 m 594 994 l 694 994 l 251 -26 l 150 -26 l 594 994 m 119 436 l 119 876 l 67 856 l 67 931 l 150 978 l 219 978 l 219 436 l 119 436 z "},"¾":{"ha":1290,"x_min":67,"x_max":1225,"o":"m 442 -26 l 803 994 l 904 994 l 544 -26 l 442 -26 m 1075 140 l 769 140 l 769 232 l 1071 554 l 1169 556 l 1167 232 l 1225 232 l 1225 140 l 1167 140 l 1167 6 l 1075 6 l 1075 140 m 260 438 q 124 490 181 438 q 67 614 67 543 l 169 614 q 195 553 169 576 q 271 529 221 529 l 332 529 q 432 600 431 529 q 333 672 432 672 l 224 672 l 224 764 l 335 764 q 383 783 365 764 q 397 832 400 803 q 372 877 396 861 q 315 893 347 893 l 274 893 q 196 870 222 893 q 169 808 169 847 l 67 808 q 124 933 67 881 q 263 985 182 985 l 329 985 q 452 942 404 985 q 500 833 500 900 q 471 758 500 786 q 388 731 442 731 l 388 721 q 536 599 539 721 q 475 484 535 531 q 332 438 415 438 l 260 438 m 883 232 l 1075 232 l 1075 433 l 883 232 z "},"¿":{"ha":782,"x_min":67,"x_max":717,"o":"m 493 750 l 493 733 q 458 617 493 661 q 354 521 424 572 q 247 421 283 467 q 211 299 211 375 q 253 176 211 224 q 385 129 296 129 q 523 180 476 129 q 569 308 569 231 l 717 308 q 623 76 717 156 q 382 -4 529 -4 q 152 77 238 -4 q 67 308 67 158 q 92 440 67 386 q 151 526 117 493 q 240 594 186 558 q 322 661 296 633 q 347 731 347 689 l 347 750 l 493 750 m 508 956 q 482 890 508 917 q 417 864 456 864 q 353 890 379 864 q 328 956 328 917 q 353 1019 328 993 q 417 1046 379 1046 q 482 1019 456 1046 q 508 956 508 993 z "},"À":{"ha":890,"x_min":67,"x_max":825,"o":"m 326 1250 l 474 1250 l 565 1056 l 475 1056 l 326 1250 m 67 628 q 112 800 67 722 q 236 922 157 878 q 411 967 315 967 l 486 967 q 656 922 578 967 q 779 799 733 876 q 825 628 825 722 l 825 0 l 689 0 l 689 349 l 201 349 l 201 0 l 67 0 l 67 628 m 411 832 q 262 774 322 832 q 201 628 201 715 l 201 483 l 689 483 l 689 628 q 628 773 689 714 q 479 832 567 832 l 411 832 z "},"Á":{"ha":890,"x_min":67,"x_max":825,"o":"m 328 1056 l 417 1250 l 564 1250 l 419 1056 l 328 1056 m 67 628 q 112 800 67 722 q 236 922 157 878 q 411 967 315 967 l 486 967 q 656 922 578 967 q 779 799 733 876 q 825 628 825 722 l 825 0 l 689 0 l 689 349 l 201 349 l 201 0 l 67 0 l 67 628 m 411 832 q 262 774 322 832 q 201 628 201 715 l 201 483 l 689 483 l 689 628 q 628 773 689 714 q 479 832 567 832 l 411 832 z "},"Â":{"ha":890,"x_min":67,"x_max":825,"o":"m 229 1033 l 401 1250 l 485 1250 l 657 1033 l 542 1033 l 443 1156 l 344 1033 l 229 1033 m 67 628 q 112 800 67 722 q 236 922 157 878 q 411 967 315 967 l 486 967 q 656 922 578 967 q 779 799 733 876 q 825 628 825 722 l 825 0 l 689 0 l 689 349 l 201 349 l 201 0 l 67 0 l 67 628 m 411 832 q 262 774 322 832 q 201 628 201 715 l 201 483 l 689 483 l 689 628 q 628 773 689 714 q 479 832 567 832 l 411 832 z "},"Ã":{"ha":890,"x_min":67,"x_max":825,"o":"m 239 1100 q 267 1205 239 1163 q 353 1247 294 1247 q 472 1226 393 1247 q 540 1214 524 1214 q 567 1238 567 1214 l 650 1238 q 625 1139 646 1178 q 549 1100 604 1100 q 440 1117 515 1100 q 371 1129 388 1129 q 336 1100 336 1129 l 239 1100 m 67 628 q 112 800 67 722 q 236 922 157 878 q 411 967 315 967 l 486 967 q 656 922 578 967 q 779 799 733 876 q 825 628 825 722 l 825 0 l 689 0 l 689 349 l 201 349 l 201 0 l 67 0 l 67 628 m 411 832 q 262 774 322 832 q 201 628 201 715 l 201 483 l 689 483 l 689 628 q 628 773 689 714 q 479 832 567 832 l 411 832 z "},"Ä":{"ha":890,"x_min":67,"x_max":825,"o":"m 314 1056 q 251 1081 276 1056 q 225 1144 225 1107 q 251 1206 225 1181 q 314 1231 276 1231 q 375 1206 350 1231 q 400 1144 400 1181 q 375 1081 400 1107 q 314 1056 350 1056 m 579 1056 q 517 1081 543 1056 q 492 1144 492 1107 q 517 1206 492 1181 q 579 1231 543 1231 q 641 1206 615 1231 q 667 1144 667 1181 q 641 1081 667 1107 q 579 1056 615 1056 m 67 628 q 112 800 67 722 q 236 922 157 878 q 411 967 315 967 l 486 967 q 656 922 578 967 q 779 799 733 876 q 825 628 825 722 l 825 0 l 689 0 l 689 349 l 201 349 l 201 0 l 67 0 l 67 628 m 411 832 q 262 774 322 832 q 201 628 201 715 l 201 483 l 689 483 l 689 628 q 628 773 689 714 q 479 832 567 832 l 411 832 z "},"Å":{"ha":890,"x_min":67,"x_max":825,"o":"m 443 1028 q 361 1056 393 1028 q 329 1135 329 1085 q 362 1213 329 1183 q 443 1242 394 1242 q 522 1211 490 1242 q 554 1135 554 1181 q 522 1058 554 1088 q 443 1028 490 1028 m 442 1174 q 401 1135 404 1174 q 413 1106 401 1117 q 442 1094 424 1094 q 482 1135 479 1094 q 470 1162 482 1150 q 442 1174 458 1174 m 67 628 q 112 800 67 722 q 236 922 157 878 q 411 967 315 967 l 486 967 q 656 922 578 967 q 779 799 733 876 q 825 628 825 722 l 825 0 l 689 0 l 689 349 l 201 349 l 201 0 l 67 0 l 67 628 m 411 832 q 262 774 322 832 q 201 628 201 715 l 201 483 l 689 483 l 689 628 q 628 773 689 714 q 479 832 567 832 l 411 832 z "},"Æ":{"ha":1408,"x_min":67,"x_max":1342,"o":"m 67 628 q 112 800 67 722 q 236 922 157 878 q 411 967 315 967 l 486 967 q 642 928 569 967 q 760 822 714 889 q 880 928 807 889 q 1040 967 953 967 l 1342 967 l 1342 832 l 1036 832 q 888 769 950 832 q 825 617 825 706 l 825 578 l 1272 581 l 1272 444 l 825 442 l 825 350 q 888 199 825 263 q 1036 136 950 136 l 1342 136 l 1342 0 l 1040 0 q 825 85 917 0 l 825 0 l 689 0 l 689 349 l 201 349 l 201 0 l 67 0 l 67 628 m 411 832 q 262 774 322 832 q 201 628 201 715 l 201 483 l 689 483 l 689 628 q 628 773 689 714 q 479 832 567 832 l 411 832 z "},"Ç":{"ha":1086,"x_min":67,"x_max":1019,"o":"m 450 11 q 253 103 340 35 q 117 272 167 172 q 67 485 67 371 q 133 727 67 615 q 311 904 199 839 q 556 969 424 969 q 761 923 664 969 q 926 797 858 876 q 1019 621 994 717 l 878 621 q 753 773 842 713 q 554 833 665 833 q 378 787 460 833 q 249 660 297 740 q 201 485 201 579 q 248 310 201 390 q 374 183 294 229 q 547 136 454 136 q 738 186 651 136 q 865 321 825 236 l 1011 321 q 844 97 969 194 q 557 0 718 0 q 522 1 533 0 l 497 -72 q 583 -39 535 -39 q 680 -80 643 -39 q 717 -181 717 -121 q 665 -293 717 -254 q 535 -332 614 -332 q 371 -275 428 -332 l 414 -206 q 519 -249 453 -249 q 590 -232 560 -249 q 619 -179 619 -215 q 601 -135 619 -151 q 553 -118 583 -118 q 483 -147 514 -118 l 393 -147 l 450 11 z "},"È":{"ha":785,"x_min":67,"x_max":719,"o":"m 650 444 l 201 442 l 201 350 q 264 199 201 263 q 413 136 326 136 l 719 136 l 719 0 l 417 0 q 240 47 321 0 q 113 174 160 93 q 67 350 67 254 l 67 617 q 113 794 67 714 q 240 920 160 874 q 417 967 321 967 l 719 967 l 719 832 l 413 832 q 264 769 326 832 q 201 617 201 706 l 201 578 l 650 581 l 650 444 m 274 1250 l 421 1250 l 513 1056 l 422 1056 l 274 1250 z "},"É":{"ha":785,"x_min":67,"x_max":719,"o":"m 650 444 l 201 442 l 201 350 q 264 199 201 263 q 413 136 326 136 l 719 136 l 719 0 l 417 0 q 240 47 321 0 q 113 174 160 93 q 67 350 67 254 l 67 617 q 113 794 67 714 q 240 920 160 874 q 417 967 321 967 l 719 967 l 719 832 l 413 832 q 264 769 326 832 q 201 617 201 706 l 201 578 l 650 581 l 650 444 m 324 1056 l 413 1250 l 560 1250 l 414 1056 l 324 1056 z "},"Ê":{"ha":785,"x_min":67,"x_max":719,"o":"m 650 444 l 201 442 l 201 350 q 264 199 201 263 q 413 136 326 136 l 719 136 l 719 0 l 417 0 q 240 47 321 0 q 113 174 160 93 q 67 350 67 254 l 67 617 q 113 794 67 714 q 240 920 160 874 q 417 967 321 967 l 719 967 l 719 832 l 413 832 q 264 769 326 832 q 201 617 201 706 l 201 578 l 650 581 l 650 444 m 179 1033 l 351 1250 l 435 1250 l 607 1033 l 492 1033 l 394 1156 l 294 1033 l 179 1033 z "},"Ë":{"ha":785,"x_min":67,"x_max":719,"o":"m 650 444 l 201 442 l 201 350 q 264 199 201 263 q 413 136 326 136 l 719 136 l 719 0 l 417 0 q 240 47 321 0 q 113 174 160 93 q 67 350 67 254 l 67 617 q 113 794 67 714 q 240 920 160 874 q 417 967 321 967 l 719 967 l 719 832 l 413 832 q 264 769 326 832 q 201 617 201 706 l 201 578 l 650 581 l 650 444 m 261 1056 q 198 1081 224 1056 q 172 1144 172 1107 q 198 1206 172 1181 q 261 1231 224 1231 q 322 1206 297 1231 q 347 1144 347 1181 q 322 1081 347 1107 q 261 1056 297 1056 m 526 1056 q 465 1081 490 1056 q 439 1144 439 1107 q 465 1206 439 1181 q 526 1231 490 1231 q 588 1206 563 1231 q 614 1144 614 1181 q 588 1081 614 1107 q 526 1056 563 1056 z "},"Ì":{"ha":340,"x_min":31,"x_max":268,"o":"m 122 0 l 119 969 l 254 969 l 257 0 l 122 0 m 31 1250 l 176 1250 l 268 1056 l 178 1056 l 31 1250 z "},"Í":{"ha":340,"x_min":67,"x_max":301,"o":"m 104 0 l 101 969 l 236 969 l 239 0 l 104 0 m 67 1056 l 156 1250 l 301 1250 l 157 1056 l 67 1056 z "},"Î":{"ha":479,"x_min":25,"x_max":453,"o":"m 174 0 l 171 969 l 307 969 l 310 0 l 174 0 m 25 1033 l 197 1250 l 281 1250 l 453 1033 l 339 1033 l 240 1156 l 142 1033 l 25 1033 z "},"Ï":{"ha":503,"x_min":31,"x_max":472,"o":"m 186 0 l 183 969 l 318 969 l 321 0 l 186 0 m 118 1056 q 56 1081 82 1056 q 31 1144 31 1107 q 56 1206 31 1181 q 118 1231 82 1231 q 180 1206 154 1231 q 206 1144 206 1181 q 180 1081 206 1107 q 118 1056 154 1056 m 385 1056 q 323 1081 349 1056 q 297 1144 297 1107 q 323 1206 297 1181 q 385 1231 349 1231 q 447 1206 421 1231 q 472 1144 472 1181 q 447 1081 472 1107 q 385 1056 421 1056 z "},"Ð":{"ha":953,"x_min":49,"x_max":888,"o":"m 118 369 l 49 369 l 49 492 l 118 492 l 118 647 q 163 815 118 738 q 288 938 208 892 q 464 983 367 983 l 592 983 q 742 948 674 983 q 849 851 810 913 q 888 713 888 789 l 888 293 q 624 0 888 0 l 119 0 l 118 369 m 256 369 l 256 136 l 597 136 q 753 293 753 136 l 753 711 q 705 806 753 764 q 589 849 657 849 l 464 849 q 314 789 372 849 q 256 649 256 729 l 256 492 l 533 492 l 533 369 l 256 369 z "},"Ñ":{"ha":890,"x_min":67,"x_max":825,"o":"m 415 833 q 263 773 325 833 q 201 628 201 713 l 201 -12 l 67 -12 l 67 628 q 113 801 67 722 q 240 924 160 879 q 415 969 319 969 l 486 969 q 656 924 578 969 q 779 801 733 879 q 825 628 825 722 l 825 -12 l 689 -12 l 689 628 q 628 773 689 713 q 478 833 567 833 l 415 833 m 239 1101 q 267 1207 239 1165 q 353 1249 294 1249 q 472 1229 393 1249 q 540 1217 524 1217 q 567 1239 567 1217 l 650 1239 q 624 1140 646 1179 q 549 1101 603 1101 q 440 1118 515 1101 q 371 1131 388 1131 q 336 1101 336 1131 l 239 1101 z "},"Ò":{"ha":1122,"x_min":67,"x_max":1056,"o":"m 67 485 q 133 734 67 619 q 313 916 200 849 q 561 983 426 983 q 809 916 696 983 q 989 734 922 849 q 1056 485 1056 619 q 989 234 1056 349 q 809 53 922 119 q 561 -14 696 -14 q 313 53 426 -14 q 133 234 200 119 q 67 485 67 349 m 201 485 q 249 303 201 386 q 380 171 297 219 q 561 122 463 122 q 742 171 660 122 q 873 303 825 219 q 921 485 921 386 q 873 667 921 583 q 742 799 825 750 q 561 847 660 847 q 380 799 463 847 q 249 667 297 750 q 201 485 201 583 m 442 1250 l 589 1250 l 681 1056 l 590 1056 l 442 1250 z "},"Ó":{"ha":1122,"x_min":67,"x_max":1056,"o":"m 67 485 q 133 734 67 619 q 313 916 200 849 q 561 983 426 983 q 809 916 696 983 q 989 734 922 849 q 1056 485 1056 619 q 989 234 1056 349 q 809 53 922 119 q 561 -14 696 -14 q 313 53 426 -14 q 133 234 200 119 q 67 485 67 349 m 201 485 q 249 303 201 386 q 380 171 297 219 q 561 122 463 122 q 742 171 660 122 q 873 303 825 219 q 921 485 921 386 q 873 667 921 583 q 742 799 825 750 q 561 847 660 847 q 380 799 463 847 q 249 667 297 750 q 201 485 201 583 m 444 1056 l 533 1250 l 679 1250 l 535 1056 l 444 1056 z "},"Ô":{"ha":1122,"x_min":67,"x_max":1056,"o":"m 67 485 q 133 734 67 619 q 313 916 200 849 q 561 983 426 983 q 809 916 696 983 q 989 734 922 849 q 1056 485 1056 619 q 989 234 1056 349 q 809 53 922 119 q 561 -14 696 -14 q 313 53 426 -14 q 133 234 200 119 q 67 485 67 349 m 201 485 q 249 303 201 386 q 380 171 297 219 q 561 122 463 122 q 742 171 660 122 q 873 303 825 219 q 921 485 921 386 q 873 667 921 583 q 742 799 825 750 q 561 847 660 847 q 380 799 463 847 q 249 667 297 750 q 201 485 201 583 m 347 1033 l 519 1250 l 603 1250 l 775 1033 l 660 1033 l 563 1156 l 464 1033 l 347 1033 z "},"Õ":{"ha":1122,"x_min":67,"x_max":1056,"o":"m 67 485 q 133 734 67 619 q 313 916 200 849 q 561 983 426 983 q 809 916 696 983 q 989 734 922 849 q 1056 485 1056 619 q 989 234 1056 349 q 809 53 922 119 q 561 -14 696 -14 q 313 53 426 -14 q 133 234 200 119 q 67 485 67 349 m 201 485 q 249 303 201 386 q 380 171 297 219 q 561 122 463 122 q 742 171 660 122 q 873 303 825 219 q 921 485 921 386 q 873 667 921 583 q 742 799 825 750 q 561 847 660 847 q 380 799 463 847 q 249 667 297 750 q 201 485 201 583 m 356 1111 q 383 1217 356 1175 q 469 1260 411 1260 q 588 1239 510 1260 q 656 1226 639 1226 q 683 1250 683 1226 l 767 1250 q 740 1151 761 1189 q 664 1113 719 1113 q 558 1129 631 1113 q 486 1142 504 1142 q 453 1111 453 1142 l 356 1111 z "},"Ö":{"ha":1122,"x_min":67,"x_max":1056,"o":"m 67 485 q 133 734 67 619 q 313 916 200 849 q 561 983 426 983 q 809 916 696 983 q 989 734 922 849 q 1056 485 1056 619 q 989 234 1056 349 q 809 53 922 119 q 561 -14 696 -14 q 313 53 426 -14 q 133 234 200 119 q 67 485 67 349 m 201 485 q 249 303 201 386 q 380 171 297 219 q 561 122 463 122 q 742 171 660 122 q 873 303 825 219 q 921 485 921 386 q 873 667 921 583 q 742 799 825 750 q 561 847 660 847 q 380 799 463 847 q 249 667 297 750 q 201 485 201 583 m 429 1056 q 367 1081 393 1056 q 342 1144 342 1107 q 367 1206 342 1181 q 429 1231 393 1231 q 490 1206 465 1231 q 515 1144 515 1181 q 490 1081 515 1107 q 429 1056 465 1056 m 694 1056 q 633 1081 658 1056 q 607 1144 607 1107 q 633 1206 607 1181 q 694 1231 658 1231 q 756 1206 731 1231 q 782 1144 782 1181 q 756 1081 782 1107 q 694 1056 731 1056 z "},"×":{"ha":761,"x_min":67,"x_max":694,"o":"m 239 571 l 383 389 l 522 571 l 694 571 l 472 286 l 694 0 l 522 0 l 383 182 l 239 0 l 67 0 l 294 286 l 67 571 l 239 571 z "},"Ø":{"ha":1122,"x_min":67,"x_max":1056,"o":"m 331 -26 l 351 33 q 145 215 224 93 q 67 485 67 338 q 133 734 67 619 q 313 916 200 849 q 561 983 426 983 q 682 968 621 983 l 692 994 l 792 994 l 771 936 q 978 753 900 875 q 1056 485 1056 632 q 989 234 1056 349 q 809 53 922 119 q 561 -14 696 -14 q 442 1 500 -14 l 432 -26 l 331 -26 m 201 485 q 254 294 201 381 q 396 161 307 208 l 636 839 q 561 847 600 847 q 380 799 463 847 q 249 667 297 750 q 201 485 201 583 m 921 485 q 867 675 921 589 q 726 806 814 761 l 488 131 q 561 122 521 122 q 742 171 660 122 q 873 303 825 219 q 921 485 921 386 z "},"Ù":{"ha":897,"x_min":67,"x_max":831,"o":"m 483 136 q 633 197 571 136 q 696 342 696 257 l 696 972 l 831 972 l 831 342 q 784 169 831 247 q 660 47 738 92 q 490 1 582 1 l 419 1 q 242 46 322 1 q 114 169 161 90 q 67 342 67 247 l 67 972 l 201 972 l 201 342 q 265 197 201 257 q 419 136 329 136 l 483 136 m 285 1247 l 431 1247 l 522 1053 l 433 1053 l 285 1247 z "},"Ú":{"ha":897,"x_min":67,"x_max":831,"o":"m 483 136 q 633 197 571 136 q 696 342 696 257 l 696 972 l 831 972 l 831 342 q 784 169 831 247 q 660 47 738 92 q 490 1 582 1 l 419 1 q 242 46 322 1 q 114 169 161 90 q 67 342 67 247 l 67 972 l 201 972 l 201 342 q 265 197 201 257 q 419 136 329 136 l 483 136 m 331 1056 l 419 1250 l 567 1250 l 422 1056 l 331 1056 z "},"Û":{"ha":897,"x_min":67,"x_max":831,"o":"m 483 136 q 633 197 571 136 q 696 342 696 257 l 696 972 l 831 972 l 831 342 q 784 169 831 247 q 660 47 738 92 q 490 1 582 1 l 419 1 q 242 46 322 1 q 114 169 161 90 q 67 342 67 247 l 67 972 l 201 972 l 201 342 q 265 197 201 257 q 419 136 329 136 l 483 136 m 236 1033 l 408 1250 l 492 1250 l 664 1033 l 547 1033 l 450 1156 l 351 1033 l 236 1033 z "},"Ü":{"ha":897,"x_min":67,"x_max":831,"o":"m 483 136 q 633 197 571 136 q 696 342 696 257 l 696 972 l 831 972 l 831 342 q 784 169 831 247 q 660 47 738 92 q 490 1 582 1 l 419 1 q 242 46 322 1 q 114 169 161 90 q 67 342 67 247 l 67 972 l 201 972 l 201 342 q 265 197 201 257 q 419 136 329 136 l 483 136 m 583 1056 q 644 1081 619 1056 q 669 1144 669 1107 q 644 1206 669 1181 q 583 1231 619 1231 q 520 1206 546 1231 q 494 1144 494 1181 q 520 1081 494 1107 q 583 1056 546 1056 m 317 1056 q 378 1081 353 1056 q 403 1144 403 1107 q 378 1206 403 1181 q 317 1231 353 1231 q 255 1206 281 1231 q 229 1144 229 1181 q 255 1081 229 1107 q 317 1056 281 1056 z "},"Ý":{"ha":853,"x_min":67,"x_max":786,"o":"m 428 458 q 591 515 531 458 q 651 663 651 572 l 651 972 l 786 972 l 786 663 q 700 422 786 515 q 492 329 614 329 l 494 0 l 361 0 l 358 329 q 210 372 276 329 q 105 492 143 415 q 67 663 67 568 l 67 972 l 201 972 l 201 663 q 261 515 201 572 q 428 458 321 458 m 308 1056 l 397 1250 l 544 1250 l 400 1056 l 308 1056 z "},"Þ":{"ha":908,"x_min":76,"x_max":842,"o":"m 76 -140 l 76 875 l 238 875 l 238 594 q 346 699 274 661 q 496 736 418 736 q 674 691 594 736 q 797 567 753 646 q 842 389 842 488 q 795 208 842 286 q 667 85 749 129 q 482 42 585 42 q 330 76 400 42 q 238 181 260 111 l 238 -140 l 76 -140 m 238 389 q 294 229 238 288 q 444 171 350 171 q 607 231 544 171 q 669 389 669 290 q 607 548 669 489 q 444 607 544 607 q 295 548 353 607 q 238 389 238 489 z "},"ß":{"ha":929,"x_min":69,"x_max":867,"o":"m 238 -124 l 76 -124 l 76 669 q 170 903 69 828 q 436 979 271 979 q 613 950 528 979 q 751 857 697 921 q 806 697 806 793 q 735 520 804 593 q 567 447 665 447 q 776 379 690 447 q 863 194 861 311 q 718 -74 865 -6 q 364 -131 571 -143 l 364 17 q 597 39 490 10 q 701 193 703 68 q 606 341 700 307 q 376 375 511 375 l 358 375 l 358 522 l 375 522 q 489 542 428 522 q 593 603 550 563 q 636 706 636 644 q 576 819 636 776 q 442 861 517 861 q 238 650 238 861 l 238 -124 z "},"à":{"ha":846,"x_min":67,"x_max":781,"o":"m 410 -14 q 231 33 308 -14 q 110 160 153 79 q 67 342 67 242 q 114 522 67 442 q 242 649 161 603 q 422 696 324 696 q 603 650 521 696 q 733 524 686 604 q 781 347 781 444 l 781 1 l 639 1 l 642 164 l 628 164 q 564 38 628 89 q 410 -14 500 -14 m 422 121 q 576 185 513 121 q 639 342 639 250 q 576 498 639 435 q 422 561 514 561 q 267 498 331 561 q 204 342 204 435 q 267 185 204 250 q 422 121 331 121 m 285 983 l 431 983 l 522 789 l 433 789 l 285 983 z "},"á":{"ha":846,"x_min":67,"x_max":781,"o":"m 410 -14 q 231 33 308 -14 q 110 160 153 79 q 67 342 67 242 q 114 522 67 442 q 242 649 161 603 q 422 696 324 696 q 603 650 521 696 q 733 524 686 604 q 781 347 781 444 l 781 1 l 639 1 l 642 164 l 628 164 q 564 38 628 89 q 410 -14 500 -14 m 422 121 q 576 185 513 121 q 639 342 639 250 q 576 498 639 435 q 422 561 514 561 q 267 498 331 561 q 204 342 204 435 q 267 185 204 250 q 422 121 331 121 m 339 788 l 428 983 l 575 983 l 431 788 l 339 788 z "},"â":{"ha":846,"x_min":67,"x_max":781,"o":"m 410 -14 q 231 33 308 -14 q 110 160 153 79 q 67 342 67 242 q 114 522 67 442 q 242 649 161 603 q 422 696 324 696 q 603 650 521 696 q 733 524 686 604 q 781 347 781 444 l 781 1 l 639 1 l 642 164 l 628 164 q 564 38 628 89 q 410 -14 500 -14 m 422 121 q 576 185 513 121 q 639 342 639 250 q 576 498 639 435 q 422 561 514 561 q 267 498 331 561 q 204 342 204 435 q 267 185 204 250 q 422 121 331 121 m 210 756 l 382 972 l 465 972 l 638 756 l 522 756 l 425 878 l 325 756 l 210 756 z "},"ã":{"ha":846,"x_min":67,"x_max":781,"o":"m 410 -14 q 231 33 308 -14 q 110 160 153 79 q 67 342 67 242 q 114 522 67 442 q 242 649 161 603 q 422 696 324 696 q 603 650 521 696 q 733 524 686 604 q 781 347 781 444 l 781 1 l 639 1 l 642 164 l 628 164 q 564 38 628 89 q 410 -14 500 -14 m 422 121 q 576 185 513 121 q 639 342 639 250 q 576 498 639 435 q 422 561 514 561 q 267 498 331 561 q 204 342 204 435 q 267 185 204 250 q 422 121 331 121 m 206 833 q 233 940 206 897 q 318 982 260 982 q 438 961 358 982 q 506 949 489 949 q 533 972 533 949 l 617 972 q 590 873 611 911 q 514 835 569 835 q 406 851 481 835 q 336 864 353 864 q 301 833 301 864 l 206 833 z "},"ä":{"ha":846,"x_min":67,"x_max":781,"o":"m 410 -14 q 231 33 308 -14 q 110 160 153 79 q 67 342 67 242 q 114 522 67 442 q 242 649 161 603 q 422 696 324 696 q 603 650 521 696 q 733 524 686 604 q 781 347 781 444 l 781 1 l 639 1 l 642 164 l 628 164 q 564 38 628 89 q 410 -14 500 -14 m 422 121 q 576 185 513 121 q 639 342 639 250 q 576 498 639 435 q 422 561 514 561 q 267 498 331 561 q 204 342 204 435 q 267 185 204 250 q 422 121 331 121 m 569 775 q 506 801 532 775 q 481 863 481 826 q 506 924 481 899 q 569 950 532 950 q 631 924 606 950 q 656 863 656 899 q 631 801 656 826 q 569 775 606 775 m 303 775 q 240 801 265 775 q 214 863 214 826 q 240 924 214 899 q 303 950 265 950 q 364 924 339 950 q 389 863 389 899 q 364 801 389 826 q 303 775 339 775 z "},"å":{"ha":846,"x_min":67,"x_max":781,"o":"m 410 -14 q 231 33 308 -14 q 110 160 153 79 q 67 342 67 242 q 114 522 67 442 q 242 649 161 603 q 422 696 324 696 q 603 650 521 696 q 733 524 686 604 q 781 347 781 444 l 781 1 l 639 1 l 642 164 l 628 164 q 564 38 628 89 q 410 -14 500 -14 m 422 121 q 576 185 513 121 q 639 342 639 250 q 576 498 639 435 q 422 561 514 561 q 267 498 331 561 q 204 342 204 435 q 267 185 204 250 q 422 121 331 121 m 426 756 q 344 784 376 756 q 313 863 313 813 q 345 940 313 911 q 426 969 378 969 q 506 939 474 969 q 538 863 538 908 q 506 785 538 815 q 426 756 474 756 m 425 899 q 389 863 392 899 q 399 837 389 847 q 425 826 408 826 q 461 863 458 826 q 451 888 461 878 q 425 899 442 899 z "},"æ":{"ha":1381,"x_min":67,"x_max":1324,"o":"m 410 -14 q 231 33 308 -14 q 110 160 153 79 q 67 342 67 242 q 114 522 67 442 q 242 649 161 603 q 422 696 324 696 q 594 654 517 696 q 719 540 672 613 q 833 640 764 604 q 983 675 901 675 q 1167 626 1089 675 q 1283 491 1244 578 q 1314 292 1322 404 l 785 292 q 847 171 794 217 q 969 125 899 125 q 1072 146 1028 125 q 1142 206 1117 167 l 1296 206 q 1176 48 1261 107 q 978 -11 1090 -11 q 872 10 922 -11 q 781 67 821 31 l 781 1 l 639 1 l 642 164 l 628 164 q 564 38 628 89 q 410 -14 500 -14 m 422 121 q 576 185 513 121 q 639 342 639 250 q 576 498 639 435 q 422 561 514 561 q 267 498 331 561 q 204 342 204 435 q 267 185 204 250 q 422 121 331 121 m 1176 406 q 1114 501 1171 461 q 983 540 1057 540 q 851 501 908 540 q 783 406 794 463 l 1176 406 z "},"ç":{"ha":826,"x_min":67,"x_max":761,"o":"m 317 11 q 137 135 207 43 q 67 343 67 226 q 114 517 67 438 q 241 644 161 597 q 417 692 321 692 q 642 608 546 692 q 761 397 739 525 l 622 397 q 545 512 603 468 q 417 556 488 556 q 265 493 329 556 q 201 343 201 431 q 265 194 201 257 q 417 131 329 131 q 545 172 489 131 q 622 278 601 214 l 761 278 q 639 77 735 158 q 419 -4 543 -4 q 390 -3 400 -4 l 367 -72 q 453 -39 404 -39 q 549 -80 513 -39 q 586 -181 586 -121 q 534 -293 586 -254 q 403 -332 482 -332 q 240 -275 297 -332 l 283 -206 q 389 -249 319 -249 q 459 -232 429 -249 q 489 -179 489 -215 q 470 -135 489 -151 q 422 -118 451 -118 q 353 -147 382 -118 l 263 -147 l 317 11 z "},"è":{"ha":806,"x_min":67,"x_max":747,"o":"m 67 347 q 113 521 67 442 q 237 646 158 600 q 408 692 315 692 q 592 643 514 692 q 708 507 669 594 q 738 307 746 419 l 208 307 q 271 185 219 231 q 394 140 322 140 q 497 162 453 140 q 567 222 542 183 l 719 221 q 601 64 686 122 q 403 6 515 6 q 234 51 311 6 q 112 176 157 97 q 67 347 67 256 m 600 421 q 538 516 594 476 q 408 556 482 556 q 276 517 333 556 q 208 421 218 478 l 600 421 m 267 972 l 414 972 l 506 778 l 415 778 l 267 972 z "},"é":{"ha":806,"x_min":67,"x_max":747,"o":"m 67 347 q 113 521 67 442 q 237 646 158 600 q 408 692 315 692 q 592 643 514 692 q 708 507 669 594 q 738 307 746 419 l 208 307 q 271 185 219 231 q 394 140 322 140 q 497 162 453 140 q 567 222 542 183 l 719 221 q 601 64 686 122 q 403 6 515 6 q 234 51 311 6 q 112 176 157 97 q 67 347 67 256 m 600 421 q 538 516 594 476 q 408 556 482 556 q 276 517 333 556 q 208 421 218 478 l 600 421 m 286 778 l 375 972 l 522 972 l 378 778 l 286 778 z "},"ê":{"ha":806,"x_min":67,"x_max":747,"o":"m 67 347 q 113 521 67 442 q 237 646 158 600 q 408 692 315 692 q 592 643 514 692 q 708 507 669 594 q 738 307 746 419 l 208 307 q 271 185 219 231 q 394 140 322 140 q 497 162 453 140 q 567 222 542 183 l 719 221 q 601 64 686 122 q 403 6 515 6 q 234 51 311 6 q 112 176 157 97 q 67 347 67 256 m 600 421 q 538 516 594 476 q 408 556 482 556 q 276 517 333 556 q 208 421 218 478 l 600 421 m 190 756 l 363 972 l 446 972 l 618 756 l 503 756 l 406 878 l 306 756 l 190 756 z "},"ë":{"ha":806,"x_min":67,"x_max":747,"o":"m 67 347 q 113 521 67 442 q 237 646 158 600 q 408 692 315 692 q 592 643 514 692 q 708 507 669 594 q 738 307 746 419 l 208 307 q 271 185 219 231 q 394 140 322 140 q 497 162 453 140 q 567 222 542 183 l 719 221 q 601 64 686 122 q 403 6 515 6 q 234 51 311 6 q 112 176 157 97 q 67 347 67 256 m 600 421 q 538 516 594 476 q 408 556 482 556 q 276 517 333 556 q 208 421 218 478 l 600 421 m 538 778 q 599 803 574 778 q 625 867 625 829 q 599 928 625 903 q 538 953 574 953 q 476 928 501 953 q 450 867 450 903 q 476 803 450 829 q 538 778 501 778 m 272 778 q 333 803 308 778 q 358 867 358 829 q 333 928 358 903 q 272 953 308 953 q 209 928 235 953 q 183 867 183 903 q 209 803 183 829 q 272 778 235 778 z "},"ì":{"ha":339,"x_min":50,"x_max":289,"o":"m 121 693 l 257 693 l 257 0 l 121 0 l 121 693 m 50 972 l 197 972 l 289 778 l 199 778 l 50 972 z "},"í":{"ha":339,"x_min":51,"x_max":288,"o":"m 103 693 l 239 693 l 239 0 l 103 0 l 103 693 m 51 778 l 140 972 l 288 972 l 143 778 l 51 778 z "},"î":{"ha":479,"x_min":25,"x_max":453,"o":"m 174 693 l 308 693 l 308 0 l 174 0 l 174 693 m 25 756 l 197 972 l 281 972 l 453 756 l 338 756 l 240 878 l 142 756 l 25 756 z "},"ï":{"ha":501,"x_min":31,"x_max":471,"o":"m 185 693 l 319 693 l 319 0 l 185 0 l 185 693 m 118 778 q 56 803 82 778 q 31 867 31 829 q 56 928 31 903 q 118 953 82 953 q 180 928 154 953 q 206 867 206 903 q 180 803 206 829 q 118 778 154 778 m 385 778 q 322 803 347 778 q 297 867 297 829 q 322 928 297 903 q 385 953 347 953 q 445 928 419 953 q 471 867 471 903 q 446 803 471 829 q 385 778 421 778 z "},"ð":{"ha":878,"x_min":63,"x_max":828,"o":"m 653 329 q 584 197 651 251 q 425 142 517 142 q 265 197 331 142 q 201 329 200 251 q 270 460 203 406 q 432 514 338 514 q 590 460 525 514 q 653 329 654 406 m 788 858 l 706 954 l 640 899 q 442 967 554 967 l 432 967 q 239 927 325 967 q 106 824 153 888 l 160 697 q 267 794 203 760 q 431 829 332 829 q 525 800 482 829 l 472 756 l 556 660 l 622 717 q 669 528 671 639 q 580 615 646 581 q 438 650 514 650 q 176 571 279 650 q 67 340 72 492 q 110 171 64 247 q 240 50 157 94 q 419 6 322 6 q 692 107 585 6 q 810 376 799 208 q 725 804 826 642 l 788 858 z "},"ñ":{"ha":794,"x_min":67,"x_max":728,"o":"m 396 692 q 563 648 486 692 q 683 528 639 604 q 728 360 728 453 l 728 1 l 593 1 l 593 360 q 535 500 593 444 q 396 556 478 556 q 257 501 313 556 q 201 360 201 446 l 201 1 l 67 1 l 67 360 q 110 528 67 453 q 228 648 153 604 q 396 692 303 692 m 192 833 q 219 940 192 897 q 306 982 247 982 q 424 963 344 982 q 493 949 475 949 q 519 972 519 949 l 603 972 q 576 873 597 911 q 501 835 556 835 q 394 851 468 835 q 322 864 340 864 q 289 833 289 864 l 192 833 z "},"ò":{"ha":831,"x_min":67,"x_max":764,"o":"m 278 972 l 425 972 l 517 778 l 426 778 l 278 972 m 415 -4 q 241 42 321 -4 q 114 169 161 89 q 67 343 67 249 q 114 517 67 438 q 241 644 161 597 q 415 692 321 692 q 590 644 510 692 q 717 517 669 597 q 764 343 764 438 q 717 169 764 249 q 590 42 669 89 q 415 -4 510 -4 m 415 132 q 566 194 503 132 q 629 344 629 257 q 565 492 629 429 q 415 556 501 556 q 265 492 329 556 q 201 344 201 429 q 265 194 201 258 q 415 132 328 131 z "},"ó":{"ha":831,"x_min":67,"x_max":764,"o":"m 297 778 l 386 972 l 533 972 l 389 778 l 297 778 m 415 -4 q 241 42 321 -4 q 114 169 161 89 q 67 343 67 249 q 114 517 67 438 q 241 644 161 597 q 415 692 321 692 q 590 644 510 692 q 717 517 669 597 q 764 343 764 438 q 717 169 764 249 q 590 42 669 89 q 415 -4 510 -4 m 415 132 q 566 194 503 132 q 629 344 629 257 q 565 492 629 429 q 415 556 501 556 q 265 492 329 556 q 201 344 201 429 q 265 194 201 258 q 415 132 328 131 z "},"ô":{"ha":831,"x_min":67,"x_max":764,"o":"m 201 756 l 374 972 l 457 972 l 629 756 l 514 756 l 417 878 l 317 756 l 201 756 m 415 -4 q 241 42 321 -4 q 114 169 161 89 q 67 343 67 249 q 114 517 67 438 q 241 644 161 597 q 415 692 321 692 q 590 644 510 692 q 717 517 669 597 q 764 343 764 438 q 717 169 764 249 q 590 42 669 89 q 415 -4 510 -4 m 415 132 q 566 194 503 132 q 629 344 629 257 q 565 492 629 429 q 415 556 501 556 q 265 492 329 556 q 201 344 201 429 q 265 194 201 258 q 415 132 328 131 z "},"õ":{"ha":831,"x_min":67,"x_max":764,"o":"m 211 828 q 238 933 211 890 q 324 975 265 975 q 443 954 364 975 q 511 942 494 942 q 539 965 539 942 l 622 965 q 596 866 617 904 q 519 828 575 828 q 411 844 486 828 q 342 857 358 857 q 307 828 307 857 l 211 828 m 415 -4 q 241 42 321 -4 q 114 169 161 89 q 67 343 67 249 q 114 517 67 438 q 241 644 161 597 q 415 692 321 692 q 590 644 510 692 q 717 517 669 597 q 764 343 764 438 q 717 169 764 249 q 590 42 669 89 q 415 -4 510 -4 m 415 132 q 566 194 503 132 q 629 344 629 257 q 565 492 629 429 q 415 556 501 556 q 265 492 329 556 q 201 344 201 429 q 265 194 201 258 q 415 132 328 131 z "},"ö":{"ha":831,"x_min":67,"x_max":764,"o":"m 283 778 q 220 803 246 778 q 194 867 194 829 q 220 928 194 903 q 283 953 246 953 q 344 928 319 953 q 369 867 369 903 q 344 803 369 829 q 283 778 319 778 m 549 778 q 487 803 513 778 q 461 867 461 829 q 487 928 461 903 q 549 953 513 953 q 610 928 585 953 q 636 867 636 903 q 610 803 636 829 q 549 778 585 778 m 415 -4 q 241 42 321 -4 q 114 169 161 89 q 67 343 67 249 q 114 517 67 438 q 241 644 161 597 q 415 692 321 692 q 590 644 510 692 q 717 517 669 597 q 764 343 764 438 q 717 169 764 249 q 590 42 669 89 q 415 -4 510 -4 m 415 132 q 566 194 503 132 q 629 344 629 257 q 565 492 629 429 q 415 556 501 556 q 265 492 329 556 q 201 344 201 429 q 265 194 201 258 q 415 132 328 131 z "},"÷":{"ha":647,"x_min":67,"x_max":581,"o":"m 67 297 l 67 411 l 581 411 l 581 297 l 67 297 m 253 149 q 274 202 253 181 q 328 224 296 224 q 374 202 354 224 q 394 149 394 181 q 374 103 394 122 q 328 83 354 83 q 274 103 296 83 q 253 149 253 122 m 254 557 q 274 608 254 588 q 325 628 294 628 q 373 608 353 628 q 393 557 393 588 q 373 509 393 529 q 325 489 353 489 q 274 509 294 489 q 254 557 254 529 z "},"ø":{"ha":831,"x_min":67,"x_max":764,"o":"m 67 343 q 114 517 67 438 q 242 644 161 597 q 417 692 322 692 q 481 685 443 692 l 511 761 l 613 761 l 568 653 q 710 526 656 610 q 764 343 764 443 q 717 170 764 250 q 590 43 669 90 q 417 -4 510 -4 q 303 14 361 -4 l 286 -26 l 185 -26 l 219 56 q 108 180 149 104 q 67 343 67 256 m 201 343 q 221 257 201 297 q 275 186 240 217 l 425 556 q 267 494 332 557 q 201 343 201 431 m 357 142 q 417 131 386 131 q 566 194 503 131 q 629 343 629 257 q 597 452 629 401 q 514 528 565 503 l 357 142 z "},"ù":{"ha":794,"x_min":67,"x_max":728,"o":"m 399 1 q 232 45 308 1 q 111 165 156 89 q 67 333 67 240 l 67 692 l 201 692 l 201 333 q 259 192 201 249 q 399 136 317 136 q 538 192 482 138 q 593 333 593 247 l 593 692 l 728 692 l 728 333 q 685 165 728 240 q 567 45 642 89 q 399 1 492 1 m 278 972 l 425 972 l 517 778 l 426 778 l 278 972 z "},"ú":{"ha":794,"x_min":67,"x_max":728,"o":"m 399 1 q 232 45 308 1 q 111 165 156 89 q 67 333 67 240 l 67 692 l 201 692 l 201 333 q 259 192 201 249 q 399 136 317 136 q 538 192 482 138 q 593 333 593 247 l 593 692 l 728 692 l 728 333 q 685 165 728 240 q 567 45 642 89 q 399 1 492 1 m 279 778 l 368 972 l 515 972 l 369 778 l 279 778 z "},"û":{"ha":794,"x_min":67,"x_max":728,"o":"m 399 1 q 232 45 308 1 q 111 165 156 89 q 67 333 67 240 l 67 692 l 201 692 l 201 333 q 259 192 201 249 q 399 136 317 136 q 538 192 482 138 q 593 333 593 247 l 593 692 l 728 692 l 728 333 q 685 165 728 240 q 567 45 642 89 q 399 1 492 1 m 183 756 l 356 972 l 439 972 l 611 756 l 496 756 l 397 878 l 300 756 l 183 756 z "},"ü":{"ha":794,"x_min":67,"x_max":728,"o":"m 399 1 q 232 45 308 1 q 111 165 156 89 q 67 333 67 240 l 67 692 l 201 692 l 201 333 q 259 192 201 249 q 399 136 317 136 q 538 192 482 138 q 593 333 593 247 l 593 692 l 728 692 l 728 333 q 685 165 728 240 q 567 45 642 89 q 399 1 492 1 m 264 778 q 202 803 228 778 q 176 867 176 829 q 202 928 176 903 q 264 953 228 953 q 326 928 300 953 q 351 867 351 903 q 326 803 351 829 q 264 778 300 778 m 531 778 q 469 803 494 778 q 443 867 443 829 q 469 928 443 903 q 531 953 494 953 q 592 928 567 953 q 618 867 618 903 q 592 803 618 829 q 531 778 567 778 z "},"ý":{"ha":813,"x_min":68,"x_max":746,"o":"m 407 150 q 550 206 492 150 q 608 344 608 263 l 608 692 l 744 692 l 744 344 q 700 178 744 254 q 578 59 656 103 q 407 15 501 15 q 237 60 314 15 q 115 179 160 104 q 68 344 69 254 l 68 692 l 204 692 l 204 344 q 263 207 204 264 q 407 150 322 150 m 407 -236 q 541 -186 483 -236 q 608 -61 599 -136 l 746 -61 q 694 -218 740 -147 q 572 -330 647 -289 q 407 -371 496 -371 q 244 -331 319 -371 q 122 -219 169 -290 q 68 -61 75 -149 l 203 -61 q 269 -185 211 -135 q 407 -236 328 -236 m 289 778 l 378 972 l 525 972 l 379 778 l 289 778 z "},"þ":{"ha":825,"x_min":67,"x_max":760,"o":"m 625 346 q 563 491 625 432 q 414 550 501 550 q 265 490 326 550 q 204 346 204 431 q 265 195 204 256 q 414 135 326 135 q 565 194 504 135 q 625 346 625 254 m 67 972 l 201 972 l 201 524 l 215 524 q 282 640 222 594 q 431 686 342 686 q 601 641 526 686 q 718 518 676 596 q 760 346 760 440 q 715 170 760 249 q 590 46 669 92 q 414 0 511 0 q 201 79 289 0 l 201 -182 l 67 -182 l 67 972 z "},"ÿ":{"ha":813,"x_min":68,"x_max":746,"o":"m 407 150 q 550 206 492 150 q 608 344 608 263 l 608 692 l 744 692 l 744 344 q 700 178 744 254 q 578 59 656 103 q 407 15 501 15 q 237 60 314 15 q 115 179 160 104 q 68 344 69 254 l 68 692 l 204 692 l 204 344 q 263 207 204 264 q 407 150 322 150 m 407 -236 q 541 -186 483 -236 q 608 -61 599 -136 l 746 -61 q 694 -218 740 -147 q 572 -330 647 -289 q 407 -371 496 -371 q 244 -331 319 -371 q 122 -219 169 -290 q 68 -61 75 -149 l 203 -61 q 269 -185 211 -135 q 407 -236 328 -236 m 274 778 q 212 803 238 778 q 186 867 186 829 q 212 928 186 903 q 274 953 238 953 q 335 928 310 953 q 361 867 361 903 q 335 803 361 829 q 274 778 310 778 m 540 778 q 478 803 503 778 q 453 867 453 829 q 478 928 453 903 q 540 953 503 953 q 601 928 575 953 q 626 867 626 903 q 601 803 626 829 q 540 778 576 778 z "},"Ā":{"ha":890,"x_min":67,"x_max":825,"o":"m 67 628 q 112 800 67 722 q 236 922 157 878 q 411 967 315 967 l 486 967 q 656 922 578 967 q 779 799 733 876 q 825 628 825 722 l 825 0 l 689 0 l 689 89 q 611 285 689 219 q 397 350 533 351 l 201 349 l 201 0 l 67 0 l 67 628 m 411 832 q 262 774 322 832 q 201 628 201 715 l 201 483 l 397 486 q 594 440 514 486 q 675 338 675 394 l 689 338 l 689 561 q 627 753 689 674 q 479 832 565 832 l 411 832 m 199 1128 l 199 1242 l 689 1242 l 689 1128 l 199 1128 z "},"ā":{"ha":846,"x_min":67,"x_max":781,"o":"m 410 -14 q 231 33 308 -14 q 110 160 153 79 q 67 342 67 242 q 114 522 67 442 q 242 649 161 603 q 422 696 324 696 q 603 650 521 696 q 733 524 686 604 q 781 347 781 444 l 781 1 l 639 1 l 642 164 l 628 164 q 564 38 628 89 q 410 -14 500 -14 m 422 121 q 576 185 513 121 q 639 342 639 250 q 576 498 639 435 q 422 561 514 561 q 267 498 331 561 q 204 342 204 435 q 267 185 204 250 q 422 121 331 121 m 181 850 l 181 964 l 660 964 l 660 850 l 181 850 z "},"Ă":{"ha":890,"x_min":67,"x_max":825,"o":"m 67 628 q 112 800 67 722 q 236 922 157 878 q 411 967 315 967 l 486 967 q 656 922 578 967 q 779 799 733 876 q 825 628 825 722 l 825 0 l 689 0 l 689 89 q 611 285 689 219 q 397 350 533 351 l 201 349 l 201 0 l 67 0 l 67 628 m 411 832 q 262 774 322 832 q 201 628 201 715 l 201 483 l 397 486 q 594 440 514 486 q 675 338 675 394 l 689 338 l 689 561 q 627 753 689 674 q 479 832 565 832 l 411 832 m 228 1250 l 346 1250 l 346 1244 q 447 1139 347 1139 q 546 1244 544 1139 l 546 1250 l 664 1250 l 664 1228 q 600 1089 664 1139 q 447 1039 536 1039 q 292 1089 356 1039 q 228 1228 228 1139 l 228 1250 z "},"ă":{"ha":846,"x_min":67,"x_max":781,"o":"m 410 -14 q 231 33 308 -14 q 110 160 153 79 q 67 342 67 242 q 114 522 67 442 q 242 649 161 603 q 422 696 324 696 q 603 650 521 696 q 733 524 686 604 q 781 347 781 444 l 781 1 l 639 1 l 642 164 l 628 164 q 564 38 628 89 q 410 -14 500 -14 m 422 121 q 576 185 513 121 q 639 342 639 250 q 576 498 639 435 q 422 561 514 561 q 267 498 331 561 q 204 342 204 435 q 267 185 204 250 q 422 121 331 121 m 206 972 l 324 972 l 324 967 q 425 861 325 861 q 524 967 522 861 l 524 972 l 642 972 l 642 950 q 578 811 642 861 q 425 761 514 761 q 269 811 333 761 q 206 950 206 861 l 206 972 z "},"Ą":{"ha":890,"x_min":67,"x_max":842,"o":"m 67 628 q 112 800 67 722 q 236 922 157 878 q 411 967 315 967 l 486 967 q 656 922 578 967 q 779 799 733 876 q 825 628 825 722 l 825 0 l 756 0 q 696 -114 696 -60 q 735 -183 696 -160 q 842 -206 774 -206 l 842 -336 q 567 -150 567 -331 q 596 -42 567 -93 q 676 36 625 10 l 689 33 l 689 89 q 611 285 689 219 q 397 350 533 351 l 201 349 l 201 0 l 67 0 l 67 628 m 411 832 q 262 774 322 832 q 201 628 201 715 l 201 483 l 397 486 q 594 440 514 486 q 675 338 675 394 l 689 338 l 689 561 q 627 753 689 674 q 479 832 565 832 l 411 832 z "},"ą":{"ha":846,"x_min":67,"x_max":797,"o":"m 422 121 q 576 185 513 121 q 639 342 639 250 q 576 498 639 435 q 422 561 514 561 q 267 498 331 561 q 204 342 204 435 q 267 185 204 250 q 422 121 331 121 m 640 35 l 642 164 l 628 164 q 564 38 628 89 q 410 -14 500 -14 q 231 33 308 -14 q 110 160 153 79 q 67 342 67 242 q 114 522 67 442 q 242 649 161 603 q 422 696 324 696 q 603 650 521 696 q 733 524 686 604 q 781 347 781 444 l 781 1 l 711 1 q 701 -8 708 -1 q 666 -56 679 -33 q 653 -112 653 -78 q 797 -206 653 -203 l 797 -336 q 591 -286 660 -332 q 522 -150 522 -240 q 550 -42 522 -93 q 625 35 578 10 l 640 35 z "},"Ć":{"ha":1086,"x_min":67,"x_max":1019,"o":"m 201 485 q 248 310 201 390 q 374 183 294 229 q 547 136 454 136 q 738 186 651 136 q 865 321 825 236 l 1011 321 q 844 97 969 194 q 557 0 718 0 q 312 65 425 0 q 133 242 199 131 q 67 485 67 353 q 133 727 67 615 q 311 904 199 839 q 556 969 424 969 q 761 923 664 969 q 926 797 858 876 q 1019 621 994 717 l 878 621 q 753 773 842 713 q 554 833 665 833 q 378 787 460 833 q 249 660 297 740 q 201 485 201 579 m 478 1094 l 567 1290 l 714 1290 l 568 1094 l 478 1094 z "},"ć":{"ha":826,"x_min":67,"x_max":761,"o":"m 201 343 q 265 194 201 257 q 417 131 329 131 q 545 172 489 131 q 622 278 601 214 l 761 278 q 639 77 735 158 q 419 -4 543 -4 q 242 43 324 -4 q 114 170 161 90 q 67 343 67 250 q 114 517 67 438 q 241 644 161 597 q 417 692 321 692 q 642 608 546 692 q 761 397 739 525 l 622 397 q 545 512 603 468 q 417 556 488 556 q 265 493 329 556 q 201 343 201 431 m 296 778 l 385 972 l 532 972 l 386 778 l 296 778 z "},"Ĉ":{"ha":1086,"x_min":67,"x_max":1019,"o":"m 201 485 q 248 310 201 390 q 374 183 294 229 q 547 136 454 136 q 738 186 651 136 q 865 321 825 236 l 1011 321 q 844 97 969 194 q 557 0 718 0 q 312 65 425 0 q 133 242 199 131 q 67 485 67 353 q 133 727 67 615 q 311 904 199 839 q 556 969 424 969 q 761 923 664 969 q 926 797 858 876 q 1019 621 994 717 l 878 621 q 753 773 842 713 q 554 833 665 833 q 378 787 460 833 q 249 660 297 740 q 201 485 201 579 m 329 1033 l 501 1250 l 585 1250 l 757 1033 l 642 1033 l 544 1156 l 446 1033 l 329 1033 z "},"ĉ":{"ha":826,"x_min":67,"x_max":761,"o":"m 201 343 q 265 194 201 257 q 417 131 329 131 q 545 172 489 131 q 622 278 601 214 l 761 278 q 639 77 735 158 q 419 -4 543 -4 q 242 43 324 -4 q 114 170 161 90 q 67 343 67 250 q 114 517 67 438 q 241 644 161 597 q 417 692 321 692 q 642 608 546 692 q 761 397 739 525 l 622 397 q 545 512 603 468 q 417 556 488 556 q 265 493 329 556 q 201 343 201 431 m 200 756 l 372 972 l 456 972 l 628 756 l 513 756 l 414 878 l 317 756 l 200 756 z "},"Ċ":{"ha":1086,"x_min":67,"x_max":1019,"o":"m 201 485 q 248 310 201 390 q 374 183 294 229 q 547 136 454 136 q 738 186 651 136 q 865 321 825 236 l 1011 321 q 844 97 969 194 q 557 0 718 0 q 312 65 425 0 q 133 242 199 131 q 67 485 67 353 q 133 727 67 615 q 311 904 199 839 q 556 969 424 969 q 761 923 664 969 q 926 797 858 876 q 1019 621 994 717 l 878 621 q 753 773 842 713 q 554 833 665 833 q 378 787 460 833 q 249 660 297 740 q 201 485 201 579 m 538 1051 q 471 1075 496 1051 q 446 1140 446 1099 q 472 1202 446 1179 q 538 1225 499 1225 q 601 1201 576 1225 q 626 1140 626 1178 q 602 1076 626 1100 q 538 1051 578 1051 z "},"ċ":{"ha":826,"x_min":67,"x_max":761,"o":"m 201 343 q 265 194 201 257 q 417 131 329 131 q 545 172 489 131 q 622 278 601 214 l 761 278 q 639 77 735 158 q 419 -4 543 -4 q 242 43 324 -4 q 114 170 161 90 q 67 343 67 250 q 114 517 67 438 q 241 644 161 597 q 417 692 321 692 q 642 608 546 692 q 761 397 739 525 l 622 397 q 545 512 603 468 q 417 556 488 556 q 265 493 329 556 q 201 343 201 431 m 413 785 q 351 807 375 785 q 328 867 328 829 q 352 924 328 903 q 413 946 376 946 q 472 924 447 946 q 496 867 496 903 q 472 808 496 831 q 413 785 449 785 z "},"Č":{"ha":1086,"x_min":67,"x_max":1019,"o":"m 201 485 q 248 310 201 390 q 374 183 294 229 q 547 136 454 136 q 738 186 651 136 q 865 321 825 236 l 1011 321 q 844 97 969 194 q 557 0 718 0 q 312 65 425 0 q 133 242 199 131 q 67 485 67 353 q 133 727 67 615 q 311 904 199 839 q 556 969 424 969 q 761 923 664 969 q 926 797 858 876 q 1019 621 994 717 l 878 621 q 753 773 842 713 q 554 833 665 833 q 378 787 460 833 q 249 660 297 740 q 201 485 201 579 m 329 1250 l 501 1033 l 585 1033 l 757 1250 l 642 1250 l 544 1128 l 446 1250 l 329 1250 z "},"č":{"ha":826,"x_min":67,"x_max":761,"o":"m 201 343 q 265 194 201 257 q 417 131 329 131 q 545 172 489 131 q 622 278 601 214 l 761 278 q 639 77 735 158 q 419 -4 543 -4 q 242 43 324 -4 q 114 170 161 90 q 67 343 67 250 q 114 517 67 438 q 241 644 161 597 q 417 692 321 692 q 642 608 546 692 q 761 397 739 525 l 622 397 q 545 512 603 468 q 417 556 488 556 q 265 493 329 556 q 201 343 201 431 m 200 972 l 372 756 l 456 756 l 628 972 l 513 972 l 414 850 l 317 972 l 200 972 z "},"Ď":{"ha":901,"x_min":67,"x_max":836,"o":"m 67 647 q 112 815 67 738 q 235 938 157 892 q 411 983 314 983 l 540 983 q 690 948 622 983 q 797 851 757 913 q 836 713 836 789 l 836 293 q 572 0 836 0 l 67 0 l 67 647 m 203 136 l 544 136 q 700 293 700 136 l 700 711 q 653 806 700 764 q 536 849 606 849 l 411 849 q 261 789 319 849 q 203 649 203 729 l 203 136 m 238 1250 l 410 1033 l 493 1033 l 665 1250 l 550 1250 l 453 1128 l 353 1250 l 238 1250 z "},"ď":{"ha":825,"x_min":67,"x_max":760,"o":"m 625 524 l 625 972 l 760 972 l 760 343 q 713 169 760 247 q 586 45 665 90 q 411 0 507 0 q 235 45 314 0 q 112 169 157 90 q 67 346 67 249 q 108 517 67 439 q 223 640 149 594 q 394 686 297 686 q 544 640 483 686 q 611 524 604 594 l 625 524 m 201 346 q 262 194 201 254 q 411 135 322 135 q 560 195 500 135 q 621 346 621 256 q 560 490 621 431 q 411 550 499 550 q 263 490 324 550 q 201 346 201 431 m 238 1250 l 410 1033 l 493 1033 l 665 1250 l 550 1250 l 453 1128 l 353 1250 l 238 1250 z "},"Đ":{"ha":953,"x_min":49,"x_max":888,"o":"m 118 369 l 49 369 l 49 492 l 118 492 l 118 647 q 163 815 118 738 q 288 938 208 892 q 464 983 367 983 l 592 983 q 742 948 674 983 q 849 851 810 913 q 888 713 888 789 l 888 293 q 624 0 888 0 l 119 0 l 118 369 m 256 369 l 256 136 l 597 136 q 753 293 753 136 l 753 711 q 705 806 753 764 q 589 849 657 849 l 464 849 q 314 789 372 849 q 256 649 256 729 l 256 492 l 533 492 l 533 369 l 256 369 z "},"đ":{"ha":878,"x_min":67,"x_max":829,"o":"m 201 346 q 262 194 201 254 q 411 135 322 135 q 560 195 500 135 q 621 346 621 256 q 560 490 621 431 q 411 550 499 550 q 263 490 324 550 q 201 346 201 431 m 760 864 l 760 343 q 713 169 760 247 q 586 45 665 90 q 411 0 507 0 q 235 45 314 0 q 112 169 157 90 q 67 346 67 249 q 108 517 67 439 q 223 640 149 594 q 394 686 297 686 q 544 640 483 686 q 611 524 604 594 l 625 524 l 625 864 l 314 864 l 314 978 l 829 978 l 829 864 l 760 864 z "},"Ē":{"ha":785,"x_min":67,"x_max":719,"o":"m 650 444 l 201 442 l 201 350 q 264 199 201 263 q 413 136 326 136 l 719 136 l 719 0 l 417 0 q 240 47 321 0 q 113 174 160 93 q 67 350 67 254 l 67 617 q 113 794 67 714 q 240 920 160 874 q 417 967 321 967 l 719 967 l 719 832 l 413 832 q 264 769 326 832 q 201 617 201 706 l 201 578 l 650 581 l 650 444 m 136 1124 l 136 1239 l 640 1239 l 640 1124 l 136 1124 z "},"ē":{"ha":806,"x_min":67,"x_max":747,"o":"m 67 347 q 113 521 67 442 q 237 646 158 600 q 408 692 315 692 q 592 643 514 692 q 708 507 669 594 q 738 307 746 419 l 208 307 q 271 185 219 231 q 394 140 322 140 q 497 162 453 140 q 567 222 542 183 l 719 221 q 601 64 686 122 q 403 6 515 6 q 234 51 311 6 q 112 176 157 97 q 67 347 67 256 m 600 421 q 538 516 594 476 q 408 556 482 556 q 276 517 333 556 q 208 421 218 478 l 600 421 m 161 846 l 161 961 l 642 961 l 642 846 l 161 846 z "},"Ĕ":{"ha":785,"x_min":67,"x_max":719,"o":"m 650 444 l 201 442 l 201 350 q 264 199 201 263 q 413 136 326 136 l 719 136 l 719 0 l 417 0 q 240 47 321 0 q 113 174 160 93 q 67 350 67 254 l 67 617 q 113 794 67 714 q 240 920 160 874 q 417 967 321 967 l 719 967 l 719 832 l 413 832 q 264 769 326 832 q 201 617 201 706 l 201 578 l 650 581 l 650 444 m 175 1250 l 293 1250 l 293 1244 q 394 1139 294 1139 q 493 1244 492 1139 l 493 1250 l 611 1250 l 611 1228 q 547 1089 611 1139 q 394 1039 483 1039 q 239 1089 303 1039 q 175 1228 175 1139 l 175 1250 z "},"ĕ":{"ha":806,"x_min":67,"x_max":747,"o":"m 67 347 q 113 521 67 442 q 237 646 158 600 q 408 692 315 692 q 592 643 514 692 q 708 507 669 594 q 738 307 746 419 l 208 307 q 271 185 219 231 q 394 140 322 140 q 497 162 453 140 q 567 222 542 183 l 719 221 q 601 64 686 122 q 403 6 515 6 q 234 51 311 6 q 112 176 157 97 q 67 347 67 256 m 600 421 q 538 516 594 476 q 408 556 482 556 q 276 517 333 556 q 208 421 218 478 l 600 421 m 186 972 l 304 972 l 304 967 q 406 861 306 861 q 504 967 503 861 l 504 972 l 622 972 l 622 950 q 558 811 622 861 q 406 761 494 761 q 250 811 314 761 q 186 950 186 861 l 186 972 z "},"Ė":{"ha":785,"x_min":67,"x_max":719,"o":"m 650 444 l 201 442 l 201 350 q 264 199 201 263 q 413 136 326 136 l 719 136 l 719 0 l 417 0 q 240 47 321 0 q 113 174 160 93 q 67 350 67 254 l 67 617 q 113 794 67 714 q 240 920 160 874 q 417 967 321 967 l 719 967 l 719 832 l 413 832 q 264 769 326 832 q 201 617 201 706 l 201 578 l 650 581 l 650 444 m 440 1044 q 371 1069 397 1044 q 344 1136 344 1094 q 372 1201 344 1176 q 440 1225 400 1225 q 506 1201 479 1225 q 533 1136 533 1176 q 508 1069 533 1094 q 440 1044 482 1044 z "},"ė":{"ha":806,"x_min":67,"x_max":747,"o":"m 67 347 q 113 521 67 442 q 237 646 158 600 q 408 692 315 692 q 592 643 514 692 q 708 507 669 594 q 738 307 746 419 l 208 307 q 271 185 219 231 q 394 140 322 140 q 497 162 453 140 q 567 222 542 183 l 719 221 q 601 64 686 122 q 403 6 515 6 q 234 51 311 6 q 112 176 157 97 q 67 347 67 256 m 600 421 q 538 516 594 476 q 408 556 482 556 q 276 517 333 556 q 208 421 218 478 l 600 421 m 418 771 q 350 795 376 771 q 324 861 324 819 q 351 924 324 900 q 418 947 378 947 q 483 924 457 947 q 508 861 508 900 q 483 796 508 821 q 418 771 458 771 z "},"Ę":{"ha":785,"x_min":67,"x_max":719,"o":"m 419 -153 q 436 -69 419 -110 q 483 0 453 -29 l 417 0 q 240 47 321 0 q 113 174 160 93 q 67 350 67 254 l 67 617 q 113 794 67 714 q 240 920 160 874 q 417 967 321 967 l 719 967 l 719 832 l 413 832 q 264 769 326 832 q 201 617 201 706 l 201 578 l 650 581 l 650 444 l 201 442 l 201 350 q 264 199 201 263 q 413 136 326 136 l 719 136 l 719 0 l 613 0 q 549 -115 549 -57 q 587 -184 549 -161 q 694 -208 625 -207 l 694 -339 q 488 -289 556 -335 q 419 -153 419 -243 z "},"ę":{"ha":806,"x_min":65,"x_max":747,"o":"m 558 -331 q 283 -144 283 -325 q 301 -60 283 -101 q 351 10 318 -19 q 148 123 231 29 q 67 347 65 217 q 113 521 67 442 q 237 646 158 600 q 408 692 315 692 q 592 643 514 692 q 708 507 669 594 q 738 307 746 419 l 208 307 q 271 185 219 231 q 394 140 322 140 q 497 162 453 140 q 567 222 542 183 l 719 221 q 642 92 707 154 q 481 13 578 31 q 413 -108 413 -49 q 451 -177 413 -154 q 558 -200 490 -200 l 558 -331 m 600 421 q 538 516 594 476 q 408 556 482 556 q 276 517 333 556 q 208 421 218 478 l 600 421 z "},"Ě":{"ha":785,"x_min":67,"x_max":719,"o":"m 650 444 l 201 442 l 201 350 q 264 199 201 263 q 413 136 326 136 l 719 136 l 719 0 l 417 0 q 240 47 321 0 q 113 174 160 93 q 67 350 67 254 l 67 617 q 113 794 67 714 q 240 920 160 874 q 417 967 321 967 l 719 967 l 719 832 l 413 832 q 264 769 326 832 q 201 617 201 706 l 201 578 l 650 581 l 650 444 m 607 1250 l 435 1033 l 351 1033 l 179 1250 l 294 1250 l 393 1128 l 492 1250 l 607 1250 z "},"ě":{"ha":806,"x_min":67,"x_max":747,"o":"m 67 347 q 113 521 67 442 q 237 646 158 600 q 408 692 315 692 q 592 643 514 692 q 708 507 669 594 q 738 307 746 419 l 208 307 q 271 185 219 231 q 394 140 322 140 q 497 162 453 140 q 567 222 542 183 l 719 221 q 601 64 686 122 q 403 6 515 6 q 234 51 311 6 q 112 176 157 97 q 67 347 67 256 m 600 421 q 538 516 594 476 q 408 556 482 556 q 276 517 333 556 q 208 421 218 478 l 600 421 m 618 972 l 446 756 l 363 756 l 190 972 l 306 972 l 404 850 l 503 972 l 618 972 z "},"Ĝ":{"ha":1067,"x_min":67,"x_max":1000,"o":"m 201 485 q 248 310 201 390 q 375 183 294 229 q 551 136 456 136 q 712 172 639 136 q 827 267 785 207 q 869 401 869 328 l 483 401 l 483 536 l 1000 536 l 1000 399 q 940 199 1000 290 q 776 53 879 107 q 551 0 674 0 q 308 65 419 0 q 131 242 196 131 q 67 485 67 353 q 131 728 67 617 q 307 904 196 839 q 551 969 418 969 q 821 895 706 969 q 981 694 936 821 l 822 694 q 709 795 782 757 q 551 833 636 833 q 375 787 456 833 q 248 660 294 740 q 201 485 201 579 m 319 1033 l 492 1250 l 575 1250 l 747 1033 l 632 1033 l 533 1156 l 435 1033 l 319 1033 z "},"ĝ":{"ha":856,"x_min":67,"x_max":761,"o":"m 638 756 l 526 756 l 428 878 l 331 756 l 214 756 l 386 972 l 469 972 l 638 756 m 414 -1 q 240 46 319 -1 q 113 172 160 93 q 67 344 67 251 q 113 519 67 439 q 240 645 160 599 q 414 692 319 692 q 588 645 508 692 q 715 519 668 599 q 761 344 761 439 q 715 172 761 251 q 588 46 668 93 q 414 -1 508 -1 m 201 344 q 264 197 201 260 q 413 135 326 135 q 562 197 499 135 q 625 344 625 260 q 562 493 625 431 q 413 556 499 556 q 264 493 326 556 q 201 344 201 431 m 413 -371 q 578 -330 503 -371 q 701 -218 654 -289 q 754 -61 749 -147 l 617 -61 q 549 -186 607 -136 q 413 -236 490 -236 q 272 -185 332 -236 q 206 -61 213 -135 l 69 -61 q 124 -219 76 -149 q 248 -331 172 -290 q 413 -371 324 -371 z "},"Ğ":{"ha":1067,"x_min":67,"x_max":1000,"o":"m 201 485 q 248 310 201 390 q 375 183 294 229 q 551 136 456 136 q 712 172 639 136 q 827 267 785 207 q 869 401 869 328 l 483 401 l 483 536 l 1000 536 l 1000 399 q 940 199 1000 290 q 776 53 879 107 q 551 0 674 0 q 308 65 419 0 q 131 242 196 131 q 67 485 67 353 q 131 728 67 617 q 307 904 196 839 q 551 969 418 969 q 821 895 706 969 q 981 694 936 821 l 822 694 q 709 795 782 757 q 551 833 636 833 q 375 787 456 833 q 248 660 294 740 q 201 485 201 579 m 314 1250 l 433 1250 l 433 1244 q 533 1139 435 1139 q 633 1244 629 1139 l 633 1250 l 751 1250 l 751 1228 q 687 1090 751 1140 q 533 1039 622 1039 q 378 1089 443 1039 q 314 1228 314 1139 l 314 1250 z "},"ğ":{"ha":867,"x_min":67,"x_max":761,"o":"m 67 344 q 113 519 67 439 q 240 645 160 599 q 414 692 319 692 q 588 645 508 692 q 715 519 668 599 q 761 344 761 439 q 715 172 761 251 q 588 47 668 93 q 414 0 508 0 q 240 47 319 0 q 113 172 160 93 q 67 344 67 251 m 414 135 q 563 197 500 135 q 625 344 625 260 q 563 493 625 431 q 414 556 500 556 q 265 493 328 556 q 201 344 201 431 q 265 197 201 260 q 414 135 328 135 m 617 -61 q 549 -186 607 -136 q 413 -236 490 -236 q 272 -185 332 -236 q 206 -61 213 -135 l 69 -61 q 124 -219 76 -149 q 248 -331 172 -290 q 413 -371 324 -371 q 578 -330 503 -371 q 701 -218 654 -289 q 754 -61 749 -147 l 617 -61 m 210 972 l 328 972 l 328 967 q 429 861 329 861 q 528 967 526 861 l 528 972 l 647 972 l 647 950 q 583 812 647 863 q 429 761 518 761 q 274 811 339 761 q 210 950 210 861 l 210 972 z "},"Ġ":{"ha":1067,"x_min":67,"x_max":1000,"o":"m 201 485 q 248 310 201 390 q 375 183 294 229 q 551 136 456 136 q 712 172 639 136 q 827 267 785 207 q 869 401 869 328 l 483 401 l 483 536 l 1000 536 l 1000 399 q 940 199 1000 290 q 776 53 879 107 q 551 0 674 0 q 308 65 419 0 q 131 242 196 131 q 67 485 67 353 q 131 728 67 617 q 307 904 196 839 q 551 969 418 969 q 821 895 706 969 q 981 694 936 821 l 822 694 q 709 795 782 757 q 551 833 636 833 q 375 787 456 833 q 248 660 294 740 q 201 485 201 579 m 549 1043 q 480 1069 507 1043 q 453 1136 453 1094 q 481 1201 453 1176 q 549 1225 508 1225 q 616 1201 589 1225 q 643 1136 643 1176 q 617 1069 643 1094 q 549 1043 590 1043 z "},"ġ":{"ha":856,"x_min":67,"x_max":761,"o":"m 67 344 q 113 519 67 439 q 240 645 160 599 q 414 692 319 692 q 588 645 508 692 q 715 519 668 599 q 761 344 761 439 q 715 172 761 251 q 588 47 668 93 q 414 0 508 0 q 240 47 319 0 q 113 172 160 93 q 67 344 67 251 m 201 344 q 265 197 201 260 q 414 135 328 135 q 563 197 500 135 q 625 344 625 260 q 563 493 625 431 q 414 556 500 556 q 265 493 328 556 q 201 344 201 431 m 626 -53 q 564 -195 626 -135 q 417 -256 501 -256 q 268 -196 331 -256 q 206 -53 206 -136 l 69 -53 q 117 -222 69 -144 q 244 -346 164 -300 q 417 -392 324 -392 q 589 -346 510 -392 q 715 -222 668 -300 q 761 -53 761 -144 l 626 -53 m 422 768 q 354 793 381 768 q 328 860 328 818 q 355 924 328 900 q 422 947 382 947 q 488 923 461 947 q 514 860 514 899 q 488 794 514 819 q 422 768 463 768 z "},"Ģ":{"ha":1067,"x_min":67,"x_max":1000,"o":"m 592 -336 q 428 -278 486 -336 l 471 -210 q 578 -253 511 -253 q 648 -235 618 -253 q 678 -183 678 -218 q 654 -134 678 -150 q 598 -123 631 -118 q 542 -150 565 -128 l 450 -150 l 504 3 q 283 81 383 14 q 124 255 182 149 q 67 485 67 361 q 131 728 67 617 q 307 904 196 839 q 551 969 418 969 q 821 895 706 969 q 981 694 936 821 l 822 694 q 709 795 782 757 q 551 833 636 833 q 375 787 456 833 q 248 660 294 740 q 201 485 201 579 q 248 310 201 390 q 375 183 294 229 q 551 136 456 136 q 712 172 639 136 q 827 267 785 207 q 869 401 869 328 l 483 401 l 483 536 l 1000 536 l 1000 399 q 944 206 1000 294 q 793 63 889 117 q 582 1 697 8 l 556 -75 q 642 -43 594 -43 q 738 -83 701 -43 q 775 -185 775 -124 q 723 -297 775 -257 q 592 -336 671 -336 z "},"ģ":{"ha":856,"x_min":67,"x_max":769,"o":"m 201 344 q 265 197 201 260 q 414 135 328 135 q 563 197 500 135 q 625 344 625 260 q 563 493 625 431 q 414 556 500 556 q 265 493 328 556 q 201 344 201 431 m 381 -390 q 224 -335 294 -382 q 111 -216 153 -289 q 69 -60 69 -143 l 206 -60 q 269 -196 206 -136 q 415 -256 332 -256 q 563 -197 500 -256 q 626 -60 626 -137 l 761 -60 q 721 -213 761 -142 q 611 -332 681 -285 q 458 -389 542 -379 l 429 -474 q 515 -442 468 -442 q 612 -483 575 -442 q 649 -583 649 -524 q 597 -696 649 -657 q 467 -735 544 -735 q 303 -678 360 -735 l 344 -608 q 451 -651 385 -651 q 522 -634 492 -651 q 551 -582 551 -617 q 485 -519 551 -524 q 415 -549 449 -519 l 325 -549 l 381 -390 m 67 344 q 113 519 67 439 q 240 645 160 599 q 414 692 319 692 q 588 645 508 692 q 715 519 668 599 q 761 344 761 439 q 715 172 761 251 q 588 47 668 93 q 414 0 508 0 q 240 47 319 0 q 113 172 160 93 q 67 344 67 251 m 597 747 q 622 808 597 783 q 683 833 647 833 q 744 808 719 833 q 769 747 769 783 q 744 685 769 711 q 683 660 719 660 q 622 685 647 660 q 597 747 597 711 z "},"Ĥ":{"ha":890,"x_min":67,"x_max":825,"o":"m 67 975 l 201 975 l 201 567 l 397 569 q 592 522 510 569 q 675 417 675 475 l 689 417 l 689 975 l 825 975 l 825 0 l 689 0 l 689 172 q 610 368 689 301 q 397 433 532 435 l 201 432 l 201 0 l 67 0 l 67 975 m 232 1033 l 404 1250 l 488 1250 l 660 1033 l 544 1033 l 447 1156 l 347 1033 l 232 1033 z "},"ĥ":{"ha":806,"x_min":67,"x_max":739,"o":"m 201 531 l 215 531 q 274 645 215 600 q 419 689 332 690 q 587 644 514 689 q 699 526 660 600 q 739 364 739 451 l 739 0 l 603 0 l 603 364 q 544 499 603 443 q 401 554 485 554 q 260 498 319 554 q 201 364 201 442 l 201 0 l 67 0 l 67 972 l 201 972 l 201 531 m 250 757 l 422 974 l 506 974 l 678 757 l 564 757 l 465 879 l 367 757 l 250 757 z "},"Ħ":{"ha":890,"x_min":67,"x_max":825,"o":"m 67 975 l 201 975 l 201 567 l 397 569 q 592 522 510 569 q 675 417 675 475 l 689 417 l 689 975 l 825 975 l 825 0 l 689 0 l 689 172 q 610 368 689 301 q 397 433 532 435 l 201 432 l 201 0 l 67 0 l 67 975 m 189 1149 l 189 1263 l 703 1263 l 703 1149 l 189 1149 z "},"ħ":{"ha":806,"x_min":65,"x_max":739,"o":"m 201 858 l 201 531 l 215 531 q 274 645 215 600 q 419 689 332 690 q 587 644 514 689 q 699 526 660 600 q 739 364 739 451 l 739 0 l 603 0 l 603 364 q 544 499 603 443 q 400 554 485 554 q 260 498 318 554 q 201 364 201 442 l 201 0 l 65 0 l 65 972 l 650 972 l 650 858 l 201 858 z "},"Ĩ":{"ha":461,"x_min":25,"x_max":436,"o":"m 164 0 l 161 969 l 297 969 l 300 0 l 164 0 m 25 1111 q 53 1217 25 1175 q 139 1260 81 1260 q 257 1240 178 1260 q 326 1226 308 1226 q 353 1250 353 1226 l 436 1250 q 410 1151 431 1189 q 335 1113 389 1113 q 228 1129 301 1113 q 156 1142 174 1142 q 122 1111 122 1142 l 25 1111 z "},"ĩ":{"ha":461,"x_min":25,"x_max":436,"o":"m 165 693 l 300 693 l 300 0 l 165 0 l 165 693 m 25 833 q 53 940 25 897 q 139 982 81 982 q 257 961 179 982 q 325 949 308 949 q 353 972 353 949 l 436 972 q 410 873 431 911 q 333 835 389 835 q 228 851 300 835 q 156 864 174 864 q 122 833 122 864 l 25 833 z "},"Ī":{"ha":465,"x_min":24,"x_max":436,"o":"m 176 0 l 174 969 l 308 969 l 311 0 l 176 0 m 24 1149 l 24 1263 l 436 1263 l 436 1149 l 24 1149 z "},"ī":{"ha":529,"x_min":25,"x_max":506,"o":"m 199 693 l 333 693 l 333 0 l 199 0 l 199 693 m 25 871 l 25 985 l 506 985 l 506 871 l 25 871 z "},"Į":{"ha":361,"x_min":35,"x_max":310,"o":"m 160 35 l 158 969 l 293 969 l 296 0 l 222 0 q 164 -111 164 -58 q 202 -181 164 -158 q 310 -203 240 -203 l 310 -335 q 103 -285 171 -331 q 35 -147 35 -239 q 63 -40 35 -90 q 144 38 92 11 l 160 35 z "},"į":{"ha":369,"x_min":47,"x_max":322,"o":"m 322 -328 q 115 -277 183 -324 q 47 -140 47 -231 q 65 -53 47 -94 q 118 18 83 -12 l 118 693 l 253 693 l 253 0 l 226 0 q 176 -104 176 -53 q 215 -173 176 -150 q 322 -196 253 -196 l 322 -328 m 100 842 q 125 901 100 876 q 186 926 150 926 q 247 901 221 926 q 272 842 272 876 q 247 780 272 806 q 186 754 222 754 q 125 780 150 754 q 100 842 100 806 z "},"İ":{"ha":307,"x_min":61,"x_max":246,"o":"m 85 0 l 82 969 l 217 969 l 219 0 l 85 0 m 154 1046 q 87 1071 113 1046 q 61 1138 61 1096 q 88 1200 61 1176 q 154 1224 115 1224 q 219 1200 193 1224 q 246 1138 246 1176 q 220 1072 246 1097 q 154 1046 194 1046 z "},"ı":{"ha":267,"x_min":67,"x_max":201,"o":"m 67 693 l 201 693 l 201 0 l 67 0 l 67 693 z "},"Ĳ":{"ha":1125,"x_min":67,"x_max":1060,"o":"m 69 0 l 67 969 l 201 969 l 204 0 l 69 0 m 719 136 q 865 196 806 136 q 925 342 925 256 l 925 972 l 1060 972 l 1060 342 q 1015 169 1060 247 q 893 47 969 92 q 728 1 817 1 l 658 1 q 485 48 564 1 q 361 174 407 94 q 315 344 315 253 l 450 344 q 511 197 450 257 q 658 136 572 136 l 719 136 z "},"ĳ":{"ha":704,"x_min":67,"x_max":639,"o":"m 85 693 l 219 693 l 219 0 l 85 0 l 85 693 m 67 842 q 92 901 67 876 q 153 926 117 926 q 213 901 188 926 q 239 842 239 876 q 214 780 239 806 q 153 754 189 754 q 92 780 117 754 q 67 842 67 806 m 624 50 q 556 -146 629 -75 q 350 -217 483 -217 l 350 -83 q 456 -53 424 -83 q 489 49 489 -22 l 492 694 l 628 694 l 624 50 m 467 856 q 492 915 467 890 q 553 940 518 940 q 613 915 588 940 q 639 856 639 890 q 614 794 639 819 q 553 768 589 768 q 492 794 517 768 q 467 856 467 819 z "},"Ĵ":{"ha":876,"x_min":67,"x_max":811,"o":"m 469 136 q 615 196 556 136 q 675 342 675 256 l 675 972 l 811 972 l 811 342 q 766 169 811 247 q 644 47 721 92 q 478 1 567 1 l 408 1 q 236 48 314 1 q 113 174 158 94 q 67 344 67 253 l 201 344 q 263 197 201 257 q 408 136 324 136 l 469 136 m 225 1033 l 397 1250 l 481 1250 l 653 1033 l 538 1033 l 439 1156 l 342 1033 l 225 1033 z "},"ĵ":{"ha":568,"x_min":81,"x_max":508,"o":"m 363 50 q 294 -146 367 -75 q 88 -217 221 -217 l 88 -83 q 194 -53 161 -83 q 226 49 226 -22 l 231 694 l 367 694 l 363 50 m 81 756 l 253 972 l 336 972 l 508 756 l 393 756 l 294 878 l 196 756 l 81 756 z "},"Ķ":{"ha":933,"x_min":67,"x_max":913,"o":"m 647 0 l 629 0 l 442 388 l 218 0 l 67 0 l 67 967 l 201 967 l 201 235 l 631 969 l 775 969 l 525 531 l 783 0 l 722 0 l 693 -86 q 779 -54 732 -54 q 876 -95 839 -54 q 913 -196 913 -136 q 860 -308 913 -269 q 731 -347 808 -347 q 567 -289 622 -347 l 608 -221 q 715 -264 649 -264 q 785 -247 756 -264 q 815 -194 815 -229 q 749 -133 815 -136 q 679 -161 708 -133 l 589 -161 l 647 0 z "},"ķ":{"ha":760,"x_min":67,"x_max":807,"o":"m 542 0 l 526 0 l 347 232 l 200 0 l 67 0 l 67 968 l 201 968 l 201 244 l 481 692 l 638 692 l 425 357 l 693 0 l 618 0 l 588 -94 q 674 -61 622 -61 q 770 -102 733 -61 q 807 -203 807 -143 q 755 -315 807 -276 q 624 -354 703 -354 q 460 -297 519 -354 l 503 -228 q 610 -271 542 -271 q 679 -254 650 -271 q 708 -201 708 -237 q 690 -157 708 -174 q 643 -140 672 -140 q 572 -169 603 -140 l 482 -169 l 542 0 z "},"ĸ":{"ha":760,"x_min":67,"x_max":693,"o":"m 67 968 l 201 968 l 201 244 l 481 692 l 638 692 l 425 357 l 693 0 l 526 0 l 347 232 l 200 0 l 67 0 l 67 968 z "},"Ĺ":{"ha":776,"x_min":67,"x_max":711,"o":"m 67 971 l 201 971 l 201 136 l 711 136 l 711 0 l 67 0 l 67 971 m 271 1056 l 360 1250 l 507 1250 l 361 1056 l 271 1056 z "},"ĺ":{"ha":339,"x_min":54,"x_max":285,"o":"m 103 785 l 54 783 l 103 889 l 103 967 l 285 968 l 238 903 l 238 0 l 103 0 l 103 785 z "},"Ļ":{"ha":776,"x_min":67,"x_max":711,"o":"m 313 0 l 67 0 l 67 971 l 201 971 l 201 136 l 711 136 l 711 0 l 389 0 l 363 -76 q 449 -44 401 -44 q 545 -85 508 -44 q 582 -186 582 -126 q 530 -299 582 -260 q 400 -337 478 -337 q 236 -281 293 -337 l 278 -211 q 385 -254 318 -254 q 455 -237 425 -254 q 485 -185 485 -219 q 418 -122 485 -126 q 349 -151 382 -122 l 258 -151 l 313 0 z "},"ļ":{"ha":408,"x_min":43,"x_max":389,"o":"m 125 0 l 99 0 l 99 967 l 233 967 l 233 0 l 199 0 l 169 -83 q 256 -51 208 -51 q 352 -92 315 -51 q 389 -193 389 -133 q 338 -306 389 -267 q 207 -344 286 -344 q 43 -286 99 -344 l 86 -218 q 192 -261 126 -261 q 262 -244 232 -261 q 292 -192 292 -226 q 225 -131 292 -133 q 156 -158 185 -131 l 65 -158 l 125 0 z "},"Ľ":{"ha":785,"x_min":72,"x_max":719,"o":"m 75 971 l 210 971 l 210 136 l 719 136 l 719 0 l 75 0 l 75 971 m 72 1263 l 244 1046 l 328 1046 l 500 1263 l 385 1263 l 286 1140 l 189 1263 l 72 1263 z "},"ľ":{"ha":479,"x_min":26,"x_max":454,"o":"m 172 967 l 308 967 l 308 0 l 172 0 l 172 967 m 26 1261 l 199 1044 l 282 1044 l 454 1261 l 339 1261 l 242 1139 l 143 1261 l 26 1261 z "},"Ŀ":{"ha":776,"x_min":67,"x_max":711,"o":"m 67 971 l 201 971 l 201 136 l 711 136 l 711 0 l 67 0 l 67 971 m 303 1104 q 328 1166 303 1140 q 389 1192 353 1192 q 450 1166 425 1192 q 475 1104 475 1140 q 450 1043 475 1068 q 389 1018 425 1018 q 328 1043 353 1018 q 303 1104 303 1068 z "},"ŀ":{"ha":581,"x_min":67,"x_max":515,"o":"m 67 967 l 201 967 l 201 0 l 67 0 l 67 967 m 342 826 q 367 888 342 863 q 428 914 392 914 q 490 888 464 914 q 515 826 515 863 q 490 765 515 790 q 428 740 464 740 q 367 766 392 740 q 342 826 342 792 z "},"Ł":{"ha":776,"x_min":67,"x_max":711,"o":"m 201 301 l 201 136 l 711 136 l 711 0 l 67 0 l 67 971 l 201 971 l 201 422 l 619 422 l 619 301 l 201 301 z "},"ł":{"ha":506,"x_min":11,"x_max":494,"o":"m 186 300 l 11 300 l 11 422 l 186 422 l 186 967 l 321 967 l 321 422 l 494 422 l 494 300 l 321 300 l 321 0 l 186 0 l 186 300 z "},"Ń":{"ha":890,"x_min":67,"x_max":825,"o":"m 415 833 q 263 773 325 833 q 201 628 201 713 l 201 -8 l 67 -8 l 67 628 q 113 801 67 722 q 240 924 160 879 q 415 969 319 969 l 486 969 q 656 924 578 969 q 779 801 733 879 q 825 628 825 722 l 825 -8 l 689 -8 l 689 628 q 628 773 689 713 q 478 833 567 833 l 415 833 m 328 1056 l 417 1250 l 564 1250 l 419 1056 l 328 1056 z "},"ń":{"ha":794,"x_min":67,"x_max":728,"o":"m 396 692 q 563 648 486 692 q 683 528 639 604 q 728 360 728 453 l 728 1 l 593 1 l 593 360 q 535 500 593 444 q 396 556 478 556 q 257 501 313 556 q 201 360 201 446 l 201 1 l 67 1 l 67 360 q 110 528 67 453 q 228 648 153 604 q 396 692 303 692 m 279 778 l 368 972 l 515 972 l 369 778 l 279 778 z "},"Ņ":{"ha":997,"x_min":67,"x_max":978,"o":"m 708 -8 l 689 -8 l 689 628 q 628 773 689 713 q 478 833 567 833 l 415 833 q 263 773 325 833 q 201 628 201 713 l 201 -8 l 67 -8 l 67 628 q 113 801 67 722 q 240 924 160 879 q 415 969 319 969 l 486 969 q 656 924 578 969 q 779 801 733 879 q 825 628 825 722 l 825 -8 l 785 -8 l 765 -74 q 844 -60 801 -60 q 941 -100 904 -60 q 978 -201 978 -140 q 926 -312 978 -274 q 794 -351 874 -351 q 631 -294 688 -351 l 674 -226 q 781 -268 713 -268 q 850 -251 821 -268 q 879 -200 879 -235 q 814 -137 879 -142 q 744 -167 774 -137 l 653 -167 l 708 -8 z "},"ņ":{"ha":900,"x_min":67,"x_max":882,"o":"m 617 1 l 593 1 l 593 360 q 535 500 593 444 q 396 556 478 556 q 257 501 313 556 q 201 360 201 446 l 201 1 l 67 1 l 67 360 q 110 528 67 453 q 228 648 153 604 q 396 692 303 692 q 563 648 486 692 q 683 528 639 604 q 728 360 728 453 l 728 1 l 692 1 l 663 -86 q 749 -54 699 -54 q 845 -94 808 -54 q 882 -196 882 -135 q 830 -308 882 -268 q 699 -347 778 -347 q 536 -289 592 -347 l 578 -221 q 685 -264 618 -264 q 754 -247 725 -264 q 783 -194 783 -229 q 718 -132 783 -136 q 649 -161 678 -132 l 558 -161 l 617 1 z "},"Ň":{"ha":890,"x_min":67,"x_max":825,"o":"m 415 833 q 263 773 325 833 q 201 628 201 713 l 201 -8 l 67 -8 l 67 628 q 113 801 67 722 q 240 924 160 879 q 415 969 319 969 l 486 969 q 656 924 578 969 q 779 801 733 879 q 825 628 825 722 l 825 -8 l 689 -8 l 689 628 q 628 773 689 713 q 478 833 567 833 l 415 833 m 232 1250 l 404 1033 l 488 1033 l 660 1250 l 544 1250 l 447 1128 l 347 1250 l 232 1250 z "},"ň":{"ha":794,"x_min":67,"x_max":728,"o":"m 396 692 q 563 648 486 692 q 683 528 639 604 q 728 360 728 453 l 728 1 l 593 1 l 593 360 q 535 500 593 444 q 396 556 478 556 q 257 501 313 556 q 201 360 201 446 l 201 1 l 67 1 l 67 360 q 110 528 67 453 q 228 648 153 604 q 396 692 303 692 m 183 972 l 356 756 l 439 756 l 611 972 l 496 972 l 397 850 l 300 972 l 183 972 z "},"ŉ":{"ha":794,"x_min":67,"x_max":728,"o":"m 396 692 q 563 648 486 692 q 683 528 639 604 q 728 360 728 453 l 728 1 l 593 1 l 593 360 q 535 500 593 444 q 396 556 478 556 q 257 501 313 556 q 201 360 201 446 l 201 1 l 67 1 l 67 360 q 110 528 67 453 q 228 648 153 604 q 396 692 303 692 z "},"Ō":{"ha":1122,"x_min":67,"x_max":1056,"o":"m 67 485 q 133 734 67 619 q 313 916 200 849 q 561 983 426 983 q 809 916 696 983 q 989 734 922 849 q 1056 485 1056 619 q 989 234 1056 349 q 809 53 922 119 q 561 -14 696 -14 q 313 53 426 -14 q 133 234 200 119 q 67 485 67 349 m 201 485 q 249 303 201 386 q 380 171 297 219 q 561 122 463 122 q 742 171 660 122 q 873 303 825 219 q 921 485 921 386 q 873 667 921 583 q 742 799 825 750 q 561 847 660 847 q 380 799 463 847 q 249 667 297 750 q 201 485 201 583 m 318 1149 l 318 1263 l 806 1263 l 806 1149 l 318 1149 z "},"ō":{"ha":831,"x_min":67,"x_max":764,"o":"m 169 871 l 169 985 l 661 985 l 661 871 l 169 871 m 415 -4 q 241 42 321 -4 q 114 169 161 89 q 67 343 67 249 q 114 517 67 438 q 241 644 161 597 q 415 692 321 692 q 590 644 510 692 q 717 517 669 597 q 764 343 764 438 q 717 169 764 249 q 590 42 669 89 q 415 -4 510 -4 m 415 132 q 566 194 503 132 q 629 344 629 257 q 565 492 629 429 q 415 556 501 556 q 265 492 329 556 q 201 344 201 429 q 265 194 201 258 q 415 132 328 131 z "},"Ŏ":{"ha":1122,"x_min":67,"x_max":1056,"o":"m 67 485 q 133 734 67 619 q 313 916 200 849 q 561 983 426 983 q 809 916 696 983 q 989 734 922 849 q 1056 485 1056 619 q 989 234 1056 349 q 809 53 922 119 q 561 -14 696 -14 q 313 53 426 -14 q 133 234 200 119 q 67 485 67 349 m 201 485 q 249 303 201 386 q 380 171 297 219 q 561 122 463 122 q 742 171 660 122 q 873 303 825 219 q 921 485 921 386 q 873 667 921 583 q 742 799 825 750 q 561 847 660 847 q 380 799 463 847 q 249 667 297 750 q 201 485 201 583 m 343 1250 l 461 1250 l 461 1244 q 563 1139 463 1139 q 661 1244 660 1139 l 661 1250 l 781 1250 l 781 1228 q 716 1090 781 1140 q 563 1039 651 1039 q 408 1089 472 1039 q 343 1228 343 1139 l 343 1250 z "},"ŏ":{"ha":831,"x_min":67,"x_max":764,"o":"m 197 972 l 315 972 l 315 967 q 417 861 317 861 q 515 967 514 861 l 515 972 l 633 972 l 633 950 q 569 811 633 861 q 417 761 506 761 q 261 811 325 761 q 197 950 197 861 l 197 972 m 415 -4 q 241 42 321 -4 q 114 169 161 89 q 67 343 67 249 q 114 517 67 438 q 241 644 161 597 q 415 692 321 692 q 590 644 510 692 q 717 517 669 597 q 764 343 764 438 q 717 169 764 249 q 590 42 669 89 q 415 -4 510 -4 m 415 132 q 566 194 503 132 q 629 344 629 257 q 565 492 629 429 q 415 556 501 556 q 265 492 329 556 q 201 344 201 429 q 265 194 201 258 q 415 132 328 131 z "},"Ő":{"ha":1122,"x_min":67,"x_max":1056,"o":"m 67 485 q 133 734 67 619 q 313 916 200 849 q 561 983 426 983 q 809 916 696 983 q 989 734 922 849 q 1056 485 1056 619 q 989 234 1056 349 q 809 53 922 119 q 561 -14 696 -14 q 313 53 426 -14 q 133 234 200 119 q 67 485 67 349 m 201 485 q 249 303 201 386 q 380 171 297 219 q 561 122 463 122 q 742 171 660 122 q 873 303 825 219 q 921 485 921 386 q 873 667 921 583 q 742 799 825 750 q 561 847 660 847 q 380 799 463 847 q 249 667 297 750 q 201 485 201 583 m 388 1056 l 476 1250 l 622 1250 l 478 1056 l 388 1056 m 622 1056 l 711 1250 l 858 1250 l 714 1056 l 622 1056 z "},"ő":{"ha":831,"x_min":67,"x_max":764,"o":"m 178 778 l 267 972 l 414 972 l 269 778 l 178 778 m 450 778 l 539 972 l 686 972 l 542 778 l 450 778 m 415 -4 q 241 42 321 -4 q 114 169 161 89 q 67 343 67 249 q 114 517 67 438 q 241 644 161 597 q 415 692 321 692 q 590 644 510 692 q 717 517 669 597 q 764 343 764 438 q 717 169 764 249 q 590 42 669 89 q 415 -4 510 -4 m 415 132 q 566 194 503 132 q 629 344 629 257 q 565 492 629 429 q 415 556 501 556 q 265 492 329 556 q 201 344 201 429 q 265 194 201 258 q 415 132 328 131 z "},"Œ":{"ha":1696,"x_min":67,"x_max":1571,"o":"m 201 485 q 249 303 201 386 q 380 171 297 219 q 561 122 463 122 q 738 169 656 122 q 871 297 821 215 q 921 476 921 378 q 820 743 921 643 q 561 847 719 843 q 380 800 463 849 q 249 667 297 751 q 201 485 201 583 m 1054 347 q 1117 197 1054 261 q 1265 133 1179 133 l 1571 133 l 1571 -3 l 1269 -3 q 1083 51 1167 -3 q 958 194 1000 106 q 787 42 892 99 q 561 -14 682 -14 q 313 53 426 -14 q 133 234 200 119 q 67 485 67 349 q 133 734 67 619 q 313 916 200 849 q 561 983 426 983 q 789 926 683 983 q 961 771 894 869 q 1085 912 1001 858 q 1269 965 1168 965 l 1571 965 l 1571 831 l 1265 831 q 1117 767 1179 831 q 1054 615 1054 703 l 1054 575 l 1501 578 l 1501 442 l 1054 439 l 1054 347 z "},"œ":{"ha":1408,"x_min":67,"x_max":1351,"o":"m 1201 413 q 1138 508 1194 468 q 1007 549 1081 549 q 871 509 929 549 q 801 413 813 469 l 1201 413 m 415 132 q 566 194 503 132 q 629 344 629 257 q 565 492 629 429 q 415 556 501 556 q 265 492 329 556 q 201 344 201 429 q 265 194 201 258 q 415 132 328 131 m 1001 -6 q 832 40 910 -6 q 711 163 754 86 q 586 42 665 88 q 415 -4 507 -4 q 241 42 321 -4 q 114 169 161 89 q 67 343 67 249 q 114 517 67 438 q 241 644 161 597 q 415 692 321 692 q 588 644 508 692 q 713 519 668 597 q 836 639 758 594 q 1007 683 914 683 q 1192 634 1113 683 q 1311 497 1272 585 q 1340 297 1350 408 l 803 297 q 867 176 814 221 q 993 131 919 131 q 1098 152 1053 131 q 1169 213 1143 174 l 1324 211 q 1202 53 1289 113 q 1001 -6 1115 -6 z "},"Ŕ":{"ha":901,"x_min":67,"x_max":836,"o":"m 67 633 q 114 803 67 722 q 237 932 161 883 q 392 981 313 981 l 536 981 q 689 941 621 981 q 797 833 757 901 q 836 678 836 764 q 785 510 836 569 q 639 450 735 450 l 639 435 q 785 378 733 435 q 836 221 836 322 l 836 0 l 700 0 l 700 224 q 638 333 700 292 q 479 375 575 375 l 201 375 l 200 0 l 67 0 l 67 633 m 542 511 q 659 558 618 511 q 700 678 700 606 q 656 797 700 747 q 536 846 611 846 l 392 846 q 259 783 315 846 q 203 633 203 721 l 203 511 l 542 511 m 333 1056 l 422 1250 l 569 1250 l 425 1056 l 333 1056 z "},"ŕ":{"ha":532,"x_min":67,"x_max":467,"o":"m 396 556 q 258 496 315 556 q 201 350 201 436 l 201 1 l 67 1 l 67 350 q 111 523 67 444 q 231 647 156 601 q 396 692 306 692 l 467 692 l 467 556 l 396 556 m 149 778 l 238 972 l 385 972 l 239 778 l 149 778 z "},"Ŗ":{"ha":901,"x_min":67,"x_max":993,"o":"m 542 511 q 659 558 618 511 q 700 678 700 606 q 656 797 700 747 q 536 846 611 846 l 392 846 q 259 783 315 846 q 203 633 203 721 l 203 511 l 542 511 m 726 0 l 700 0 l 700 224 q 638 333 700 292 q 479 375 575 375 l 201 375 l 200 0 l 67 0 l 67 633 q 114 803 67 722 q 237 932 161 883 q 392 981 313 981 l 536 981 q 689 941 621 981 q 797 833 757 901 q 836 678 836 764 q 785 510 836 569 q 639 450 735 450 l 639 435 q 785 378 733 435 q 836 221 836 322 l 836 0 l 801 0 l 774 -78 q 860 -46 813 -46 q 956 -87 919 -46 q 993 -187 993 -128 q 941 -300 993 -261 q 811 -339 889 -339 q 647 -281 703 -339 l 689 -212 q 796 -256 729 -256 q 866 -238 836 -256 q 896 -186 896 -221 q 829 -125 896 -128 q 760 -153 789 -125 l 669 -153 l 726 0 z "},"ŗ":{"ha":532,"x_min":6,"x_max":467,"o":"m 89 1 l 67 1 l 67 350 q 111 523 67 444 q 231 647 156 601 q 396 692 306 692 l 467 692 l 467 556 l 396 556 q 258 496 315 556 q 201 350 201 436 l 201 1 l 164 1 l 133 -89 q 219 -57 169 -57 q 316 -98 279 -57 q 353 -199 353 -139 q 300 -311 353 -272 q 169 -350 247 -350 q 6 -292 64 -350 l 49 -224 q 156 -267 88 -267 q 225 -249 196 -267 q 254 -197 254 -232 q 236 -152 254 -168 q 189 -136 218 -136 q 118 -164 147 -136 l 28 -164 l 89 1 z "},"Ř":{"ha":901,"x_min":67,"x_max":836,"o":"m 67 633 q 114 803 67 722 q 237 932 161 883 q 392 981 313 981 l 536 981 q 689 941 621 981 q 797 833 757 901 q 836 678 836 764 q 785 510 836 569 q 639 450 735 450 l 639 435 q 785 378 733 435 q 836 221 836 322 l 836 0 l 700 0 l 700 224 q 638 333 700 292 q 479 375 575 375 l 201 375 l 200 0 l 67 0 l 67 633 m 542 511 q 659 558 618 511 q 700 678 700 606 q 656 797 700 747 q 536 846 611 846 l 392 846 q 259 783 315 846 q 203 633 203 721 l 203 511 l 542 511 m 665 1250 l 493 1033 l 410 1033 l 238 1250 l 353 1250 l 451 1128 l 550 1250 l 665 1250 z "},"ř":{"ha":547,"x_min":60,"x_max":488,"o":"m 403 556 q 265 496 322 556 q 208 350 208 436 l 208 1 l 74 1 l 74 350 q 118 523 74 444 q 238 647 163 601 q 403 692 314 692 l 474 692 l 474 556 l 403 556 m 488 972 l 315 756 l 232 756 l 60 972 l 175 972 l 274 850 l 372 972 l 488 972 z "},"Ś":{"ha":836,"x_min":67,"x_max":769,"o":"m 769 258 q 671 54 769 118 q 424 -10 572 -10 q 226 13 317 -10 q 86 65 136 36 l 86 217 q 238 150 138 175 q 444 125 339 125 q 581 157 526 125 q 635 258 635 189 q 590 337 635 310 q 451 397 546 364 q 401 414 418 408 q 367 426 390 418 q 208 492 267 463 q 108 577 149 522 q 67 718 67 632 q 160 908 67 833 q 417 983 253 983 q 609 960 513 983 q 747 903 706 938 l 714 778 q 583 829 667 811 q 417 847 500 847 q 260 815 319 847 q 201 718 201 783 q 253 628 201 663 q 390 563 304 594 q 474 532 418 551 q 636 466 578 494 q 732 388 694 438 q 769 258 769 338 m 300 1056 l 389 1250 l 536 1250 l 392 1056 l 300 1056 z "},"ś":{"ha":669,"x_min":67,"x_max":604,"o":"m 604 197 q 528 44 604 92 q 340 -3 451 -3 q 188 14 257 -3 q 81 53 119 31 l 81 181 q 361 119 203 119 q 433 134 399 119 q 467 183 467 149 q 434 242 467 224 q 329 282 401 261 q 314 286 319 285 q 299 290 308 288 q 180 332 226 311 q 100 394 133 353 q 67 501 67 435 q 145 647 67 593 q 353 700 224 700 q 569 661 478 700 l 569 539 q 459 572 508 561 q 353 583 410 583 q 242 564 282 583 q 203 508 203 544 q 350 406 203 440 q 540 333 475 375 q 604 197 604 290 m 217 778 l 306 972 l 453 972 l 308 778 l 217 778 z "},"Ŝ":{"ha":836,"x_min":67,"x_max":769,"o":"m 769 258 q 671 54 769 118 q 424 -10 572 -10 q 226 13 317 -10 q 86 65 136 36 l 86 217 q 238 150 138 175 q 444 125 339 125 q 581 157 526 125 q 635 258 635 189 q 590 337 635 310 q 451 397 546 364 q 401 414 418 408 q 367 426 390 418 q 208 492 267 463 q 108 577 149 522 q 67 718 67 632 q 160 908 67 833 q 417 983 253 983 q 609 960 513 983 q 747 903 706 938 l 714 778 q 583 829 667 811 q 417 847 500 847 q 260 815 319 847 q 201 718 201 783 q 253 628 201 663 q 390 563 304 594 q 474 532 418 551 q 636 466 578 494 q 732 388 694 438 q 769 258 769 338 m 204 1033 l 376 1250 l 460 1250 l 632 1033 l 517 1033 l 419 1156 l 319 1033 l 204 1033 z "},"ŝ":{"ha":669,"x_min":67,"x_max":604,"o":"m 604 197 q 528 44 604 92 q 340 -3 451 -3 q 188 14 257 -3 q 81 53 119 31 l 81 181 q 361 119 203 119 q 433 134 399 119 q 467 183 467 149 q 434 242 467 224 q 329 282 401 261 q 314 286 319 285 q 299 290 308 288 q 180 332 226 311 q 100 394 133 353 q 67 501 67 435 q 145 647 67 593 q 353 700 224 700 q 569 661 478 700 l 569 539 q 459 572 508 561 q 353 583 410 583 q 242 564 282 583 q 203 508 203 544 q 350 406 203 440 q 540 333 475 375 q 604 197 604 290 m 121 756 l 293 972 l 376 972 l 549 756 l 433 756 l 336 878 l 238 756 l 121 756 z "},"Ş":{"ha":836,"x_min":67,"x_max":769,"o":"m 319 -3 q 184 24 244 4 q 86 65 124 43 l 86 217 q 240 151 133 178 q 444 125 346 125 q 581 158 528 126 q 635 258 635 189 q 590 337 635 310 q 451 397 546 364 q 401 414 418 408 q 367 426 390 418 q 208 492 267 463 q 108 577 149 522 q 67 718 67 632 q 160 908 67 833 q 417 983 253 983 q 609 960 513 983 q 747 903 706 938 l 714 778 q 583 829 667 811 q 417 847 500 847 q 260 815 319 847 q 201 718 201 783 q 253 628 201 663 q 390 563 304 594 q 474 532 418 551 q 636 466 578 494 q 732 388 694 438 q 769 258 769 338 q 663 48 769 108 q 394 -10 556 -12 l 372 -72 q 458 -39 410 -39 q 555 -80 518 -39 q 592 -181 592 -121 q 540 -293 592 -254 q 408 -332 488 -332 q 246 -275 303 -332 l 289 -206 q 394 -249 325 -249 q 465 -232 435 -249 q 494 -179 494 -215 q 476 -135 494 -151 q 428 -118 457 -118 q 358 -147 388 -118 l 268 -147 l 319 -3 z "},"ş":{"ha":669,"x_min":67,"x_max":604,"o":"m 239 6 q 81 53 140 19 l 81 181 q 201 135 138 153 q 354 119 265 118 q 432 134 397 119 q 467 183 467 149 q 434 242 467 224 q 329 282 401 261 q 314 286 319 285 q 299 290 308 288 q 180 332 226 311 q 100 394 133 353 q 67 501 67 435 q 145 647 67 593 q 353 700 224 700 q 569 661 478 700 l 569 539 q 459 572 508 561 q 353 583 410 583 q 242 564 282 583 q 203 508 203 544 q 350 406 203 440 q 540 333 475 375 q 604 197 604 290 q 520 40 604 83 q 314 -1 436 -4 l 289 -72 q 375 -39 326 -39 q 472 -80 435 -39 q 508 -181 508 -121 q 457 -293 508 -254 q 326 -332 406 -332 q 163 -275 219 -332 l 206 -206 q 311 -249 244 -249 q 381 -232 351 -249 q 411 -179 411 -215 q 393 -135 411 -151 q 344 -118 375 -118 q 275 -147 306 -118 l 185 -147 l 239 6 z "},"Š":{"ha":836,"x_min":67,"x_max":769,"o":"m 769 258 q 671 54 769 118 q 424 -10 572 -10 q 226 13 317 -10 q 86 65 136 36 l 86 217 q 238 150 138 175 q 444 125 339 125 q 581 157 526 125 q 635 258 635 189 q 590 337 635 310 q 451 397 546 364 q 401 414 418 408 q 367 426 390 418 q 208 492 267 463 q 108 577 149 522 q 67 718 67 632 q 160 908 67 833 q 417 983 253 983 q 609 960 513 983 q 747 903 706 938 l 714 778 q 583 829 667 811 q 417 847 500 847 q 260 815 319 847 q 201 718 201 783 q 253 628 201 663 q 390 563 304 594 q 474 532 418 551 q 636 466 578 494 q 732 388 694 438 q 769 258 769 338 m 632 1250 l 460 1033 l 376 1033 l 204 1250 l 319 1250 l 418 1128 l 517 1250 l 632 1250 z "},"š":{"ha":669,"x_min":67,"x_max":604,"o":"m 604 197 q 528 44 604 92 q 340 -3 451 -3 q 188 14 257 -3 q 81 53 119 31 l 81 181 q 361 119 203 119 q 433 134 399 119 q 467 183 467 149 q 434 242 467 224 q 329 282 401 261 q 314 286 319 285 q 299 290 308 288 q 180 332 226 311 q 100 394 133 353 q 67 501 67 435 q 145 647 67 593 q 353 700 224 700 q 569 661 478 700 l 569 539 q 459 572 508 561 q 353 583 410 583 q 242 564 282 583 q 203 508 203 544 q 350 406 203 440 q 540 333 475 375 q 604 197 604 290 m 549 972 l 376 756 l 293 756 l 121 972 l 236 972 l 336 850 l 433 972 l 549 972 z "},"Ţ":{"ha":851,"x_min":67,"x_max":786,"o":"m 379 0 l 358 0 l 358 832 l 67 832 l 67 967 l 786 967 l 786 832 l 493 832 l 493 0 l 454 0 l 426 -87 q 513 -56 465 -56 q 609 -97 572 -56 q 646 -197 646 -137 q 594 -310 646 -271 q 464 -349 542 -349 q 300 -292 357 -349 l 342 -222 q 449 -265 382 -265 q 519 -248 489 -265 q 549 -196 549 -231 q 482 -133 549 -137 q 413 -162 446 -133 l 322 -162 l 379 0 z "},"ţ":{"ha":546,"x_min":67,"x_max":638,"o":"m 374 7 q 153 117 239 19 q 67 357 67 215 l 67 789 l 201 789 l 201 692 l 406 692 l 406 556 l 201 556 l 201 357 q 260 203 201 264 q 403 142 318 142 l 481 142 l 481 6 l 450 6 l 418 -89 q 504 -56 456 -56 q 601 -97 564 -56 q 638 -197 638 -137 q 585 -310 638 -271 q 456 -349 533 -349 q 292 -292 349 -349 l 333 -222 q 440 -265 372 -265 q 510 -249 481 -265 q 540 -196 540 -232 q 522 -151 540 -168 q 474 -135 504 -135 q 404 -164 436 -135 l 314 -164 l 374 7 z "},"Ť":{"ha":851,"x_min":67,"x_max":786,"o":"m 358 832 l 67 832 l 67 967 l 786 967 l 786 832 l 493 832 l 493 0 l 358 0 l 358 832 m 640 1250 l 468 1033 l 385 1033 l 213 1250 l 328 1250 l 426 1128 l 525 1250 l 640 1250 z "},"ť":{"ha":546,"x_min":44,"x_max":481,"o":"m 406 556 l 201 556 l 201 357 q 260 203 201 264 q 403 142 318 142 l 481 142 l 481 6 l 403 6 q 233 52 310 6 q 111 179 156 99 q 67 357 67 260 l 67 789 l 201 789 l 201 692 l 406 692 l 406 556 m 44 1128 l 217 911 l 300 911 l 472 1128 l 357 1128 l 260 1004 l 161 1128 l 44 1128 z "},"Ŧ":{"ha":851,"x_min":67,"x_max":786,"o":"m 358 832 l 67 832 l 67 967 l 786 967 l 786 832 l 493 832 l 493 0 l 358 0 l 358 832 m 185 1149 l 185 1263 l 665 1263 l 665 1149 l 185 1149 z "},"ŧ":{"ha":611,"x_min":58,"x_max":542,"o":"m 439 556 l 235 556 l 235 357 q 293 203 235 264 q 436 142 351 142 l 514 142 l 514 6 l 436 6 q 266 52 343 6 q 144 179 189 99 q 100 357 100 260 l 100 789 l 235 789 l 235 692 l 439 692 l 439 556 m 58 871 l 58 985 l 542 985 l 542 871 l 58 871 z "},"Ũ":{"ha":897,"x_min":67,"x_max":831,"o":"m 483 136 q 633 197 571 136 q 696 342 696 257 l 696 972 l 831 972 l 831 342 q 784 169 831 247 q 660 47 738 92 q 490 1 582 1 l 419 1 q 242 46 322 1 q 114 169 161 90 q 67 342 67 247 l 67 972 l 201 972 l 201 342 q 265 197 201 257 q 419 136 329 136 l 483 136 m 243 1111 q 270 1217 243 1175 q 357 1260 297 1260 q 475 1240 396 1260 q 544 1226 526 1226 q 571 1250 571 1226 l 654 1250 q 628 1151 649 1189 q 553 1113 607 1113 q 446 1129 519 1113 q 374 1142 392 1142 q 340 1111 340 1142 l 243 1111 z "},"ũ":{"ha":794,"x_min":67,"x_max":728,"o":"m 399 1 q 232 45 308 1 q 111 165 156 89 q 67 333 67 240 l 67 692 l 201 692 l 201 333 q 259 192 201 249 q 399 136 317 136 q 538 192 482 138 q 593 333 593 247 l 593 692 l 728 692 l 728 333 q 685 165 728 240 q 567 45 642 89 q 399 1 492 1 m 192 833 q 219 940 192 897 q 306 982 247 982 q 424 963 344 982 q 493 949 475 949 q 519 972 519 949 l 603 972 q 576 873 597 911 q 501 835 556 835 q 394 851 468 835 q 322 864 340 864 q 289 833 289 864 l 192 833 z "},"Ū":{"ha":897,"x_min":67,"x_max":831,"o":"m 483 136 q 633 197 571 136 q 696 342 696 257 l 696 972 l 831 972 l 831 342 q 784 169 831 247 q 660 47 738 92 q 490 1 582 1 l 419 1 q 242 46 322 1 q 114 169 161 90 q 67 342 67 247 l 67 972 l 201 972 l 201 342 q 265 197 201 257 q 419 136 329 136 l 483 136 m 203 1149 l 203 1263 l 694 1263 l 694 1149 l 203 1149 z "},"ū":{"ha":794,"x_min":67,"x_max":728,"o":"m 399 1 q 232 45 308 1 q 111 165 156 89 q 67 333 67 240 l 67 692 l 201 692 l 201 333 q 259 192 201 249 q 399 136 317 136 q 538 192 482 138 q 593 333 593 247 l 593 692 l 728 692 l 728 333 q 685 165 728 240 q 567 45 642 89 q 399 1 492 1 m 154 871 l 154 985 l 640 985 l 640 871 l 154 871 z "},"Ŭ":{"ha":897,"x_min":67,"x_max":831,"o":"m 483 136 q 633 197 571 136 q 696 342 696 257 l 696 972 l 831 972 l 831 342 q 784 169 831 247 q 660 47 738 92 q 490 1 582 1 l 419 1 q 242 46 322 1 q 114 169 161 90 q 67 342 67 247 l 67 972 l 201 972 l 201 342 q 265 197 201 257 q 419 136 329 136 l 483 136 m 231 1250 l 350 1250 l 350 1244 q 450 1139 350 1139 q 550 1244 546 1139 l 550 1250 l 668 1250 l 668 1228 q 603 1090 668 1140 q 450 1039 539 1039 q 295 1089 360 1039 q 231 1228 231 1139 l 231 1250 z "},"ŭ":{"ha":794,"x_min":67,"x_max":728,"o":"m 399 1 q 232 45 308 1 q 111 165 156 89 q 67 333 67 240 l 67 692 l 201 692 l 201 333 q 259 192 201 249 q 399 136 317 136 q 538 192 482 138 q 593 333 593 247 l 593 692 l 728 692 l 728 333 q 685 165 728 240 q 567 45 642 89 q 399 1 492 1 m 178 972 l 297 972 l 297 967 q 399 861 299 861 q 497 967 496 861 l 497 972 l 617 972 l 617 950 q 551 812 617 863 q 397 761 486 761 q 242 811 307 761 q 178 950 178 861 l 178 972 z "},"Ů":{"ha":897,"x_min":67,"x_max":831,"o":"m 483 136 q 633 197 571 136 q 696 342 696 257 l 696 972 l 831 972 l 831 342 q 784 169 831 247 q 660 47 738 92 q 490 1 582 1 l 419 1 q 242 46 322 1 q 114 169 161 90 q 67 342 67 247 l 67 972 l 201 972 l 201 342 q 265 197 201 257 q 419 136 329 136 l 483 136 m 450 1035 q 368 1064 400 1035 q 336 1142 336 1093 q 369 1220 336 1190 q 450 1250 401 1250 q 530 1219 499 1250 q 561 1142 561 1189 q 530 1065 561 1094 q 450 1035 499 1035 m 449 1178 q 413 1142 415 1178 q 422 1116 413 1126 q 449 1106 432 1106 q 485 1142 482 1106 q 475 1167 485 1157 q 449 1178 465 1178 z "},"ů":{"ha":794,"x_min":67,"x_max":728,"o":"m 399 1 q 232 45 308 1 q 111 165 156 89 q 67 333 67 240 l 67 692 l 201 692 l 201 333 q 259 192 201 249 q 399 136 317 136 q 538 192 482 138 q 593 333 593 247 l 593 692 l 728 692 l 728 333 q 685 165 728 240 q 567 45 642 89 q 399 1 492 1 m 399 758 q 317 788 349 758 q 285 867 285 818 q 317 944 285 914 q 399 974 350 974 q 478 944 447 974 q 510 867 510 914 q 478 789 510 819 q 399 758 447 758 m 397 903 q 361 867 364 903 q 371 841 361 851 q 397 831 381 831 q 435 867 433 831 q 424 892 435 882 q 397 903 414 903 z "},"Ű":{"ha":897,"x_min":67,"x_max":831,"o":"m 483 136 q 633 197 571 136 q 696 342 696 257 l 696 972 l 831 972 l 831 342 q 784 169 831 247 q 660 47 738 92 q 490 1 582 1 l 419 1 q 242 46 322 1 q 114 169 161 90 q 67 342 67 247 l 67 972 l 201 972 l 201 342 q 265 197 201 257 q 419 136 329 136 l 483 136 m 228 1106 l 317 1301 l 463 1301 l 318 1106 l 228 1106 m 500 1106 l 589 1301 l 736 1301 l 592 1106 l 500 1106 z "},"ű":{"ha":794,"x_min":67,"x_max":728,"o":"m 399 1 q 232 45 308 1 q 111 165 156 89 q 67 333 67 240 l 67 692 l 201 692 l 201 333 q 259 192 201 249 q 399 136 317 136 q 538 192 482 138 q 593 333 593 247 l 593 692 l 728 692 l 728 333 q 685 165 728 240 q 567 45 642 89 q 399 1 492 1 m 189 778 l 278 972 l 425 972 l 281 778 l 189 778 m 463 778 l 551 972 l 699 972 l 553 778 l 463 778 z "},"Ų":{"ha":897,"x_min":67,"x_max":831,"o":"m 533 -142 q 554 -50 533 -94 q 613 24 575 -6 q 490 1 553 1 l 419 1 q 242 46 322 1 q 114 169 161 90 q 67 342 67 247 l 67 972 l 201 972 l 201 342 q 265 197 201 257 q 419 136 329 136 l 483 136 q 633 197 571 136 q 696 342 696 257 l 696 972 l 831 972 l 831 342 q 781 164 831 243 q 650 42 732 85 l 738 21 q 663 -106 663 -43 q 701 -175 663 -153 q 808 -197 739 -197 l 808 -329 q 601 -279 669 -325 q 533 -142 533 -233 z "},"ų":{"ha":794,"x_min":67,"x_max":728,"o":"m 442 -142 q 462 -50 442 -93 q 518 22 482 -7 q 399 1 458 1 q 232 45 308 1 q 111 165 156 89 q 67 333 67 240 l 67 692 l 201 692 l 201 333 q 259 192 201 249 q 399 136 317 136 q 538 192 482 138 q 593 333 593 247 l 593 692 l 728 692 l 728 333 q 683 160 728 238 q 561 42 639 83 l 646 22 q 571 -106 571 -42 q 609 -174 571 -151 q 717 -197 647 -197 l 717 -328 q 510 -278 578 -324 q 442 -142 442 -232 z "},"Ŵ":{"ha":1344,"x_min":67,"x_max":1278,"o":"m 1142 971 l 1278 971 l 1278 347 q 1233 173 1278 251 q 1110 49 1188 94 q 935 3 1032 4 q 758 56 835 3 q 672 183 682 108 l 661 183 q 585 56 654 106 q 413 6 517 6 q 240 51 318 6 q 114 174 161 96 q 67 344 67 251 l 67 972 l 201 972 l 201 344 q 261 201 201 261 q 407 140 321 140 q 547 200 489 140 q 604 344 604 260 l 604 972 l 739 972 l 739 344 q 792 197 739 256 q 938 139 846 139 q 1084 200 1026 139 q 1142 347 1142 261 l 1142 971 m 458 1033 l 631 1250 l 714 1250 l 886 1033 l 771 1033 l 674 1156 l 575 1033 l 458 1033 z "},"ŵ":{"ha":1247,"x_min":67,"x_max":1181,"o":"m 381 4 q 221 47 293 4 q 108 165 149 89 q 67 336 67 242 l 67 693 l 201 693 l 201 336 q 252 194 201 249 q 381 139 303 139 q 505 195 454 139 q 556 336 556 251 l 556 694 l 692 694 l 692 336 q 740 195 692 251 q 868 139 788 139 q 994 195 944 139 q 1044 338 1044 251 l 1044 693 l 1181 693 l 1181 338 q 1094 100 1181 193 q 868 3 1007 7 q 704 53 776 3 q 624 172 632 103 l 614 172 q 542 51 607 99 q 381 4 476 4 m 410 756 l 582 972 l 665 972 l 838 756 l 722 756 l 625 878 l 526 756 l 410 756 z "},"Ŷ":{"ha":853,"x_min":67,"x_max":786,"o":"m 428 458 q 591 515 531 458 q 651 663 651 572 l 651 972 l 786 972 l 786 663 q 700 422 786 515 q 492 329 614 329 l 494 0 l 361 0 l 358 329 q 210 372 276 329 q 105 492 143 415 q 67 663 67 568 l 67 972 l 201 972 l 201 663 q 261 515 201 572 q 428 458 321 458 m 213 1033 l 385 1250 l 468 1250 l 640 1033 l 525 1033 l 428 1156 l 328 1033 l 213 1033 z "},"ŷ":{"ha":813,"x_min":67,"x_max":747,"o":"m 407 150 q 550 206 492 150 q 608 344 608 263 l 608 692 l 744 692 l 744 344 q 700 178 744 254 q 578 59 656 103 q 407 15 501 15 q 237 60 314 15 q 115 179 160 104 q 68 344 69 254 l 68 692 l 204 692 l 204 344 q 263 207 204 264 q 407 150 322 150 m 407 -236 q 551 -178 490 -236 q 611 -39 611 -121 l 747 -39 q 701 -206 747 -131 q 578 -326 656 -282 q 407 -371 500 -371 q 238 -326 315 -371 q 113 -206 160 -282 q 67 -39 67 -129 l 201 -39 q 262 -178 201 -121 q 407 -236 322 -236 m 192 756 l 364 972 l 447 972 l 619 756 l 506 756 l 407 878 l 308 756 l 192 756 z "},"Ÿ":{"ha":853,"x_min":67,"x_max":786,"o":"m 428 458 q 591 515 531 458 q 651 663 651 572 l 651 972 l 786 972 l 786 663 q 700 422 786 515 q 492 329 614 329 l 494 0 l 361 0 l 358 329 q 210 372 276 329 q 105 492 143 415 q 67 663 67 568 l 67 972 l 201 972 l 201 663 q 261 515 201 572 q 428 458 321 458 m 294 1056 q 231 1081 257 1056 q 206 1144 206 1107 q 231 1206 206 1181 q 294 1231 257 1231 q 356 1206 331 1231 q 381 1144 381 1181 q 356 1081 381 1107 q 294 1056 331 1056 m 560 1056 q 498 1081 524 1056 q 472 1144 472 1107 q 498 1206 472 1181 q 560 1231 524 1231 q 622 1206 596 1231 q 647 1144 647 1181 q 622 1081 647 1107 q 560 1056 596 1056 z "},"Ź":{"ha":810,"x_min":67,"x_max":744,"o":"m 572 833 l 108 833 l 108 969 l 736 969 l 736 833 l 233 131 l 744 131 l 744 -4 l 67 -4 l 67 135 l 572 833 m 288 1056 l 376 1250 l 522 1250 l 378 1056 l 288 1056 z "},"ź":{"ha":689,"x_min":67,"x_max":622,"o":"m 76 551 l 76 686 l 622 686 l 622 536 q 545 317 622 421 q 364 131 468 213 l 622 131 l 622 -4 l 67 -4 l 67 131 q 216 195 108 131 q 406 356 324 260 q 489 551 489 453 l 76 551 m 226 778 l 315 972 l 463 972 l 317 778 l 226 778 z "},"Ż":{"ha":810,"x_min":67,"x_max":744,"o":"m 572 833 l 108 833 l 108 969 l 736 969 l 736 833 l 233 131 l 744 131 l 744 -4 l 67 -4 l 67 135 l 572 833 m 403 1056 q 335 1080 361 1056 q 308 1146 308 1104 q 335 1208 308 1185 q 403 1232 363 1232 q 468 1208 442 1232 q 494 1146 494 1185 q 469 1081 494 1106 q 403 1056 443 1056 z "},"ż":{"ha":689,"x_min":67,"x_max":622,"o":"m 76 551 l 76 686 l 622 686 l 622 536 q 545 317 622 421 q 364 131 468 213 l 622 131 l 622 -4 l 67 -4 l 67 131 q 216 195 108 131 q 406 356 324 260 q 489 551 489 453 l 76 551 m 333 774 q 268 797 293 774 q 243 861 243 821 q 269 922 243 899 q 333 944 294 944 q 397 922 372 944 q 422 861 422 899 q 398 798 422 822 q 333 774 374 774 z "},"Ž":{"ha":810,"x_min":67,"x_max":744,"o":"m 572 833 l 108 833 l 108 969 l 736 969 l 736 833 l 233 131 l 744 131 l 744 -4 l 67 -4 l 67 135 l 572 833 m 619 1250 l 447 1033 l 364 1033 l 192 1250 l 306 1250 l 406 1128 l 503 1250 l 619 1250 z "},"ž":{"ha":689,"x_min":67,"x_max":622,"o":"m 76 551 l 76 686 l 622 686 l 622 536 q 545 317 622 421 q 364 131 468 213 l 622 131 l 622 -4 l 67 -4 l 67 131 q 216 195 108 131 q 406 356 324 260 q 489 551 489 453 l 76 551 m 561 972 l 389 756 l 306 756 l 133 972 l 249 972 l 347 850 l 446 972 l 561 972 z "},"ſ":{"ha":611,"x_min":67,"x_max":546,"o":"m 164 560 l 67 560 l 67 694 l 167 694 l 167 733 q 240 901 167 835 q 428 967 314 967 l 546 967 l 546 832 l 429 832 q 338 805 374 832 q 303 738 303 778 l 303 694 l 496 694 l 496 560 l 300 560 l 299 4 l 164 4 l 164 560 z "},"ƒ":{"ha":611,"x_min":67,"x_max":546,"o":"m 164 560 l 67 560 l 67 694 l 167 694 l 167 733 q 240 901 167 835 q 428 967 314 967 l 546 967 l 546 832 l 429 832 q 338 805 374 832 q 303 738 303 778 l 303 694 l 496 694 l 496 560 l 300 560 l 299 4 l 164 4 l 164 560 z "},"Ș":{"ha":836,"x_min":67,"x_max":769,"o":"m 325 -142 q 353 -76 325 -103 q 419 -49 381 -49 q 485 -76 458 -49 q 513 -140 513 -103 q 466 -260 514 -219 q 381 -292 418 -300 q 435 -233 428 -274 l 419 -235 q 353 -210 382 -237 q 325 -142 325 -183 m 769 258 q 671 54 769 118 q 424 -10 572 -10 q 226 13 317 -10 q 86 65 136 36 l 86 217 q 238 150 138 175 q 444 125 339 125 q 581 157 526 125 q 635 258 635 189 q 576 342 635 306 q 356 431 517 379 q 206 493 265 461 q 106 580 146 525 q 67 718 67 635 q 160 908 67 833 q 417 983 253 983 q 609 960 513 983 q 747 903 706 938 l 714 778 q 583 829 667 811 q 417 847 500 847 q 260 815 319 847 q 201 718 201 783 q 253 628 201 663 q 390 563 304 594 q 474 532 418 551 q 636 466 578 494 q 732 388 694 438 q 769 258 769 338 z "},"ș":{"ha":688,"x_min":67,"x_max":622,"o":"m 342 278 q 325 282 331 281 q 314 285 322 283 q 187 330 236 308 q 102 393 138 351 q 67 501 67 435 q 144 647 67 593 q 350 701 222 701 q 488 690 425 701 q 588 663 551 679 l 588 540 q 476 574 531 563 q 349 585 421 585 q 234 567 265 585 q 203 508 203 549 q 251 442 203 471 q 360 401 299 414 q 556 333 490 376 q 622 197 622 289 q 543 44 622 90 q 336 -3 464 -3 q 186 14 254 -3 q 78 51 118 31 l 78 178 q 350 119 200 119 q 440 135 396 119 q 483 188 483 150 q 449 240 485 222 q 342 278 413 258 m 229 -137 q 256 -70 229 -97 q 324 -43 283 -43 q 389 -70 363 -43 q 417 -136 415 -97 q 370 -254 418 -214 q 285 -286 322 -294 q 339 -228 332 -268 l 322 -229 q 258 -205 286 -232 q 229 -137 229 -178 z "},"Ț":{"ha":851,"x_min":67,"x_max":786,"o":"m 358 832 l 67 832 l 67 967 l 786 967 l 786 832 l 493 832 l 493 0 l 358 0 l 358 832 m 335 -140 q 362 -73 335 -100 q 429 -46 389 -46 q 494 -73 468 -46 q 522 -139 521 -100 q 476 -257 524 -217 q 390 -289 428 -297 q 444 -231 438 -271 l 428 -232 q 363 -208 392 -235 q 335 -140 335 -181 z "},"ț":{"ha":546,"x_min":67,"x_max":481,"o":"m 196 -117 q 223 -49 196 -76 q 290 -22 250 -22 q 356 -50 329 -22 q 383 -115 383 -78 q 337 -234 385 -193 q 251 -267 289 -275 q 306 -207 300 -247 l 289 -208 q 224 -185 251 -211 q 196 -117 196 -158 m 406 556 l 201 556 l 201 357 q 260 203 201 264 q 403 142 318 142 l 481 142 l 481 6 l 403 6 q 233 52 310 6 q 111 179 156 99 q 67 357 67 260 l 67 789 l 201 789 l 201 692 l 406 692 l 406 556 z "},"ȷ":{"ha":415,"x_min":67,"x_max":346,"o":"m 340 50 q 273 -146 346 -75 q 67 -217 200 -217 l 67 -83 q 173 -53 140 -83 q 206 49 206 -22 l 208 694 l 344 694 l 340 50 z "},"ˆ":{"ha":560,"x_min":67,"x_max":494,"o":"m 67 756 l 239 972 l 322 972 l 494 756 l 378 756 l 281 878 l 182 756 l 67 756 z "},"ˇ":{"ha":560,"x_min":67,"x_max":494,"o":"m 67 972 l 239 756 l 322 756 l 494 972 l 378 972 l 281 850 l 182 972 l 67 972 z "},"ˉ":{"ha":508,"x_min":67,"x_max":442,"o":"m 67 833 l 67 947 l 442 947 l 442 833 l 67 833 z "},"˘":{"ha":569,"x_min":67,"x_max":503,"o":"m 67 972 l 185 972 l 185 967 q 286 861 186 861 q 385 967 383 861 l 385 972 l 503 972 l 503 950 q 439 811 503 861 q 286 761 375 761 q 131 811 194 761 q 67 950 67 861 l 67 972 z "},"˙":{"ha":356,"x_min":67,"x_max":289,"o":"m 179 733 q 98 763 129 733 q 67 843 67 793 q 99 919 67 890 q 179 947 131 947 q 258 918 226 947 q 289 843 289 889 q 258 764 289 794 q 179 733 228 733 z "},"˚":{"ha":357,"x_min":67,"x_max":292,"o":"m 179 757 q 99 786 131 757 q 67 864 67 815 q 99 942 67 913 q 179 972 131 972 q 260 942 228 972 q 292 864 292 911 q 260 787 292 817 q 179 757 228 757 m 178 899 q 143 864 147 899 q 153 839 143 849 q 178 829 163 829 q 214 864 211 829 q 203 889 214 879 q 178 899 193 899 z "},"˛":{"ha":407,"x_min":67,"x_max":342,"o":"m 342 -328 q 188 -303 249 -325 q 97 -242 126 -282 q 67 -140 67 -201 q 95 -32 67 -83 q 175 44 124 19 l 271 22 q 194 -104 194 -40 q 233 -173 194 -150 q 342 -196 272 -196 l 342 -328 z "},"˜":{"ha":543,"x_min":67,"x_max":478,"o":"m 67 833 q 94 940 67 897 q 179 982 121 982 q 299 961 219 982 q 367 949 350 949 q 394 972 394 949 l 478 972 q 451 873 472 911 q 375 835 431 835 q 267 851 342 835 q 197 864 214 864 q 163 833 163 864 l 67 833 z "},"˝":{"ha":650,"x_min":47,"x_max":518,"o":"m 47 778 l 136 972 l 282 972 l 138 778 l 47 778 m 282 778 l 371 972 l 518 972 l 374 778 l 282 778 z "},"̦":{"ha":243,"x_min":67,"x_max":256,"o":"m 67 369 q 93 437 67 410 q 160 464 119 464 q 226 437 200 464 q 253 371 253 410 q 206 252 254 293 q 122 219 158 211 q 175 279 168 239 l 160 278 q 94 301 122 275 q 67 369 67 328 z "},"Δ":{"ha":736,"x_min":67,"x_max":671,"o":"m 282 826 l 281 829 l 446 829 l 671 76 l 67 76 l 282 826 m 488 211 l 361 654 l 243 211 l 488 211 z "},"Ω":{"ha":1132,"x_min":67,"x_max":1067,"o":"m 201 481 q 270 277 201 369 q 447 144 339 185 l 447 3 l 67 3 l 67 144 l 214 144 q 108 295 149 207 q 67 481 67 383 q 134 735 67 619 q 317 917 201 850 q 567 983 432 983 q 817 916 703 983 q 999 733 932 849 q 1067 481 1067 618 q 1022 289 1067 379 q 901 139 978 199 l 1067 139 l 1067 3 l 672 3 l 672 139 q 859 267 788 174 q 931 481 931 361 q 882 665 931 581 q 749 798 833 749 q 567 847 665 847 q 383 798 467 847 q 250 665 299 749 q 201 481 201 581 z "},"μ":{"ha":789,"x_min":67,"x_max":724,"o":"m 564 1 l 564 88 q 495 18 540 43 q 394 -7 450 -7 q 290 19 335 -7 q 226 92 246 44 l 226 -237 l 67 -237 l 67 696 l 226 696 l 226 342 q 394 140 226 140 q 519 189 474 140 q 564 325 564 238 l 564 696 l 724 696 l 724 1 l 564 1 z "},"π":{"ha":529,"x_min":28,"x_max":499,"o":"m 192 693 l 338 693 l 338 0 l 192 0 l 192 693 m 28 899 l 28 1024 l 499 1024 l 499 899 l 28 899 z "},"Ẁ":{"ha":1344,"x_min":67,"x_max":1278,"o":"m 1142 971 l 1278 971 l 1278 347 q 1233 173 1278 251 q 1110 49 1188 94 q 935 3 1032 4 q 758 56 835 3 q 672 183 682 108 l 661 183 q 585 56 654 106 q 413 6 517 6 q 240 51 318 6 q 114 174 161 96 q 67 344 67 251 l 67 972 l 201 972 l 201 344 q 261 201 201 261 q 407 140 321 140 q 547 200 489 140 q 604 344 604 260 l 604 972 l 739 972 l 739 344 q 792 197 739 256 q 938 139 846 139 q 1084 200 1026 139 q 1142 347 1142 261 l 1142 971 m 553 1250 l 700 1250 l 792 1056 l 701 1056 l 553 1250 z "},"ẁ":{"ha":1247,"x_min":67,"x_max":1181,"o":"m 381 4 q 221 47 293 4 q 108 165 149 89 q 67 336 67 242 l 67 693 l 201 693 l 201 336 q 252 194 201 249 q 381 139 303 139 q 505 195 454 139 q 556 336 556 251 l 556 694 l 692 694 l 692 336 q 740 195 692 251 q 868 139 788 139 q 994 195 944 139 q 1044 338 1044 251 l 1044 693 l 1181 693 l 1181 338 q 1094 100 1181 193 q 868 3 1007 7 q 704 53 776 3 q 624 172 632 103 l 614 172 q 542 51 607 99 q 381 4 476 4 m 506 972 l 651 972 l 743 778 l 653 778 l 506 972 z "},"Ẃ":{"ha":1344,"x_min":67,"x_max":1278,"o":"m 1142 971 l 1278 971 l 1278 347 q 1233 173 1278 251 q 1110 49 1188 94 q 935 3 1032 4 q 758 56 835 3 q 672 183 682 108 l 661 183 q 585 56 654 106 q 413 6 517 6 q 240 51 318 6 q 114 174 161 96 q 67 344 67 251 l 67 972 l 201 972 l 201 344 q 261 201 201 261 q 407 140 321 140 q 547 200 489 140 q 604 344 604 260 l 604 972 l 739 972 l 739 344 q 792 197 739 256 q 938 139 846 139 q 1084 200 1026 139 q 1142 347 1142 261 l 1142 971 m 554 1056 l 643 1250 l 790 1250 l 646 1056 l 554 1056 z "},"ẃ":{"ha":1247,"x_min":67,"x_max":1181,"o":"m 381 4 q 221 47 293 4 q 108 165 149 89 q 67 336 67 242 l 67 693 l 201 693 l 201 336 q 252 194 201 249 q 381 139 303 139 q 505 195 454 139 q 556 336 556 251 l 556 694 l 692 694 l 692 336 q 740 195 692 251 q 868 139 788 139 q 994 195 944 139 q 1044 338 1044 251 l 1044 693 l 1181 693 l 1181 338 q 1094 100 1181 193 q 868 3 1007 7 q 704 53 776 3 q 624 172 632 103 l 614 172 q 542 51 607 99 q 381 4 476 4 m 506 778 l 594 972 l 742 972 l 597 778 l 506 778 z "},"Ẅ":{"ha":1344,"x_min":67,"x_max":1278,"o":"m 1142 971 l 1278 971 l 1278 347 q 1233 173 1278 251 q 1110 49 1188 94 q 935 3 1032 4 q 758 56 835 3 q 672 183 682 108 l 661 183 q 585 56 654 106 q 413 6 517 6 q 240 51 318 6 q 114 174 161 96 q 67 344 67 251 l 67 972 l 201 972 l 201 344 q 261 201 201 261 q 407 140 321 140 q 547 200 489 140 q 604 344 604 260 l 604 972 l 739 972 l 739 344 q 792 197 739 256 q 938 139 846 139 q 1084 200 1026 139 q 1142 347 1142 261 l 1142 971 m 540 1056 q 478 1081 504 1056 q 453 1144 453 1107 q 478 1206 453 1181 q 540 1231 504 1231 q 601 1206 576 1231 q 626 1144 626 1181 q 601 1081 626 1107 q 540 1056 576 1056 m 806 1056 q 744 1081 769 1056 q 718 1144 718 1107 q 744 1206 718 1181 q 806 1231 769 1231 q 867 1206 842 1231 q 893 1144 893 1181 q 867 1081 893 1107 q 806 1056 842 1056 z "},"ẅ":{"ha":1247,"x_min":67,"x_max":1181,"o":"m 381 4 q 221 47 293 4 q 108 165 149 89 q 67 336 67 242 l 67 693 l 201 693 l 201 336 q 252 194 201 249 q 381 139 303 139 q 505 195 454 139 q 556 336 556 251 l 556 694 l 692 694 l 692 336 q 740 195 692 251 q 868 139 788 139 q 994 195 944 139 q 1044 338 1044 251 l 1044 693 l 1181 693 l 1181 338 q 1094 100 1181 193 q 868 3 1007 7 q 704 53 776 3 q 624 172 632 103 l 614 172 q 542 51 607 99 q 381 4 476 4 m 492 778 q 428 803 454 778 q 403 867 403 829 q 428 928 403 903 q 492 953 454 953 q 553 928 528 953 q 578 867 578 903 q 553 803 578 829 q 492 778 528 778 m 758 778 q 695 803 721 778 q 669 867 669 829 q 695 928 669 903 q 758 953 721 953 q 819 928 794 953 q 844 867 844 903 q 819 803 844 829 q 758 778 794 778 z "},"–":{"ha":647,"x_min":67,"x_max":581,"o":"m 67 339 l 67 453 l 581 453 l 581 339 l 67 339 z "},"—":{"ha":1203,"x_min":67,"x_max":1136,"o":"m 67 339 l 67 453 l 1136 453 l 1136 339 l 67 339 z "},"‘":{"ha":364,"x_min":67,"x_max":297,"o":"m 67 778 l 150 972 l 297 972 l 157 778 l 67 778 z "},"’":{"ha":364,"x_min":67,"x_max":299,"o":"m 67 972 l 214 972 l 299 778 l 208 778 l 67 972 z "},"‚":{"ha":364,"x_min":67,"x_max":297,"o":"m 67 -89 l 150 106 l 297 106 l 157 -89 l 67 -89 z "},"“":{"ha":606,"x_min":67,"x_max":540,"o":"m 67 778 l 150 972 l 297 972 l 157 778 l 67 778 m 308 778 l 394 972 l 540 972 l 400 778 l 308 778 z "},"”":{"ha":561,"x_min":67,"x_max":494,"o":"m 67 972 l 214 972 l 299 778 l 208 778 l 67 972 m 263 972 l 411 972 l 494 778 l 404 778 l 263 972 z "},"„":{"ha":586,"x_min":67,"x_max":519,"o":"m 67 -89 l 150 106 l 297 106 l 157 -89 l 67 -89 m 289 -89 l 372 106 l 519 106 l 379 -89 l 289 -89 z "},"†":{"ha":617,"x_min":67,"x_max":550,"o":"m 247 -50 l 247 719 l 67 719 l 67 829 l 247 829 l 247 1021 l 372 1021 l 372 829 l 550 829 l 550 719 l 372 719 l 372 -50 l 247 -50 z "},"‡":{"ha":742,"x_min":67,"x_max":675,"o":"m 308 -50 l 308 242 l 67 242 l 67 367 l 308 367 l 308 611 l 67 611 l 67 736 l 308 736 l 308 1021 l 433 1021 l 433 736 l 675 736 l 675 611 l 433 611 l 433 367 l 675 367 l 675 242 l 433 242 l 433 -50 l 308 -50 z "},"•":{"ha":331,"x_min":67,"x_max":264,"o":"m 167 754 q 94 781 122 754 q 67 851 67 807 q 95 919 67 894 q 167 944 124 944 q 236 919 208 944 q 264 851 264 893 q 238 781 264 808 q 167 754 211 754 z "},"…":{"ha":1064,"x_min":67,"x_max":997,"o":"m 67 97 q 94 164 67 136 q 160 192 121 192 q 226 164 199 192 q 253 97 253 136 q 226 33 253 60 q 160 6 199 6 q 94 33 121 6 q 67 97 67 60 m 439 97 q 466 164 439 136 q 532 192 493 192 q 598 164 571 192 q 625 97 625 136 q 598 33 625 60 q 532 6 571 6 q 466 33 493 6 q 439 97 439 60 m 811 97 q 838 164 811 136 q 904 192 865 192 q 970 164 943 192 q 997 97 997 136 q 970 33 997 60 q 904 6 943 6 q 838 33 865 6 q 811 97 811 60 z "},"‰":{"ha":1692,"x_min":67,"x_max":1625,"o":"m 881 0 q 712 61 776 0 q 647 226 647 122 q 712 392 647 331 q 881 453 776 453 q 1049 392 985 453 q 1114 226 1114 331 q 1049 61 1114 122 q 881 0 985 0 m 1393 0 q 1226 61 1290 0 q 1161 226 1161 122 q 1225 392 1161 331 q 1393 453 1289 453 q 1561 392 1497 453 q 1625 226 1625 331 q 1560 61 1625 122 q 1393 0 1496 0 m 299 528 q 131 589 196 528 q 67 754 67 650 q 131 919 67 858 q 299 981 194 981 q 467 919 403 981 q 531 754 531 858 q 466 589 531 650 q 299 528 401 528 m 825 1042 l 963 1042 l 379 6 l 242 6 l 825 1042 m 881 361 q 806 318 829 361 q 783 226 783 275 q 807 135 783 179 q 881 92 831 92 q 954 135 931 92 q 978 226 978 179 q 955 318 978 275 q 881 361 932 361 m 1393 361 q 1319 318 1342 361 q 1296 226 1296 275 q 1319 135 1296 179 q 1393 92 1342 92 q 1467 135 1444 92 q 1490 226 1490 179 q 1467 318 1490 275 q 1393 361 1444 361 m 299 889 q 224 845 247 889 q 201 754 201 801 q 224 663 201 707 q 299 619 247 619 q 373 663 350 619 q 396 754 396 707 q 373 845 396 801 q 299 889 350 889 z "},"‹":{"ha":554,"x_min":67,"x_max":489,"o":"m 347 19 l 67 354 l 347 689 l 489 689 l 214 354 l 489 19 l 347 19 z "},"›":{"ha":554,"x_min":67,"x_max":489,"o":"m 339 354 l 67 689 l 207 689 l 489 354 l 207 19 l 67 19 l 339 354 z "},"⁄":{"ha":594,"x_min":67,"x_max":528,"o":"m 67 -26 l 428 994 l 528 994 l 168 -26 l 67 -26 z "},"₣":{"ha":813,"x_min":67,"x_max":747,"o":"m 108 168 l 67 167 l 67 279 l 108 279 l 108 614 q 154 798 108 717 q 278 925 200 879 q 453 971 357 971 l 747 971 l 747 836 l 447 836 q 301 772 360 836 q 243 618 243 708 l 243 564 l 678 567 l 678 431 l 243 428 l 243 279 l 517 279 l 517 158 l 243 158 l 243 0 l 108 0 l 108 168 z "},"₤":{"ha":725,"x_min":58,"x_max":676,"o":"m 58 0 l 58 146 q 152 174 129 146 q 175 283 175 201 l 175 419 l 75 419 l 75 558 l 175 558 l 175 700 q 241 898 175 824 q 428 972 307 972 q 642 925 540 972 l 642 771 q 559 810 610 794 q 461 825 508 825 q 368 794 404 824 q 332 708 332 765 l 332 558 l 635 558 l 635 419 l 332 419 l 332 289 q 219 146 332 167 l 676 146 l 676 0 l 58 0 z "},"₧":{"ha":2072,"x_min":67,"x_max":2006,"o":"m 67 0 l 67 642 q 113 812 67 733 q 240 937 160 890 q 413 983 319 983 l 531 983 q 744 897 661 983 q 828 674 828 810 q 732 429 828 503 q 514 356 636 356 l 203 356 l 203 0 l 67 0 m 203 492 l 514 492 q 648 542 603 492 q 693 674 693 593 q 648 798 693 747 q 528 849 603 849 l 413 849 q 314 824 363 849 q 234 751 265 799 q 203 642 203 704 l 203 492 m 1279 556 l 1075 556 l 1075 357 q 1133 203 1075 264 q 1275 142 1190 142 l 1353 142 l 1353 6 l 1275 6 q 1105 52 1182 6 q 983 179 1028 99 q 939 357 939 260 l 939 789 l 1075 789 l 1075 692 l 1279 692 l 1279 556 m 2006 197 q 1930 44 2006 92 q 1742 -3 1854 -3 q 1591 14 1660 -3 q 1483 53 1522 31 l 1483 181 q 1763 119 1606 119 q 1834 134 1800 119 q 1868 183 1868 149 q 1835 242 1868 224 q 1731 282 1803 261 q 1715 286 1721 285 q 1699 292 1710 288 q 1581 333 1626 313 q 1501 394 1535 354 q 1468 501 1468 435 q 1547 647 1468 593 q 1756 700 1626 700 q 1972 661 1881 700 l 1972 539 q 1862 572 1911 561 q 1754 583 1813 583 q 1644 564 1685 583 q 1604 508 1604 544 q 1751 406 1604 440 q 1941 334 1876 376 q 2006 197 2006 292 z "},"€":{"ha":1056,"x_min":67,"x_max":1019,"o":"m 213 474 l 213 439 l 682 440 l 682 324 l 242 324 q 356 192 269 247 q 547 136 443 136 q 738 186 651 136 q 865 321 825 236 l 1011 321 q 844 97 969 194 q 557 0 718 0 q 312 65 425 0 q 133 242 199 131 q 67 485 67 353 q 133 727 67 615 q 311 904 199 839 q 556 969 424 969 q 761 923 664 969 q 926 797 858 876 q 1019 621 994 717 l 878 621 q 753 773 842 713 q 554 833 665 833 q 336 760 432 833 q 219 589 240 688 l 682 589 l 682 474 l 213 474 z "},"ℓ":{"ha":267,"x_min":67,"x_max":201,"o":"m 67 967 l 201 967 l 201 0 l 67 0 l 67 967 z "},"™":{"ha":1636,"x_min":67,"x_max":1368,"o":"m 1269 825 q 1234 907 1269 876 q 1139 938 1199 938 q 1022 826 1025 938 l 1022 440 l 924 440 l 924 826 q 887 906 924 876 q 794 936 850 936 q 705 906 738 936 q 672 826 672 875 l 672 440 l 575 440 l 575 826 q 640 974 575 914 q 797 1035 706 1035 q 915 999 871 1035 q 963 899 958 963 l 971 899 q 1020 998 974 961 q 1139 1035 1067 1035 q 1295 976 1231 1036 q 1368 825 1360 915 l 1368 442 l 1269 442 l 1269 825 m 231 947 l 67 947 l 67 1035 l 508 1035 l 508 947 l 329 947 l 329 440 l 231 440 l 231 947 z "},"℮":{"ha":819,"x_min":67,"x_max":763,"o":"m 67 344 q 114 519 67 439 q 241 647 161 600 q 417 694 321 694 q 608 645 528 694 q 725 506 688 596 q 750 299 763 417 l 281 299 l 282 181 q 331 146 296 161 q 400 131 365 131 q 502 153 451 131 q 578 215 553 175 l 733 214 q 610 55 697 114 q 408 -4 522 -4 q 237 43 315 -4 q 113 170 158 90 q 67 344 67 250 m 281 414 l 567 414 l 567 486 q 508 537 547 514 q 418 558 469 560 q 341 542 379 558 q 283 508 303 526 l 281 414 z "},"∂":{"ha":878,"x_min":63,"x_max":826,"o":"m 438 647 q 580 613 514 647 q 669 525 646 578 q 640 678 671 608 q 554 787 610 747 q 431 826 499 826 q 267 792 332 826 q 160 694 203 757 l 106 821 q 242 926 153 888 q 442 964 331 965 q 727 799 629 958 q 810 374 825 639 q 692 104 799 206 q 419 3 585 3 q 240 47 322 3 q 110 168 157 92 q 67 338 64 244 q 176 568 72 489 q 438 647 279 647 m 653 326 q 590 457 654 403 q 432 511 525 511 q 270 457 338 511 q 201 326 203 403 q 265 194 200 249 q 425 139 331 139 q 584 194 517 139 q 653 326 651 249 z "},"∏":{"ha":897,"x_min":67,"x_max":831,"o":"m 414 836 q 264 773 326 836 q 201 632 201 710 l 201 -12 l 67 -12 l 67 632 q 113 804 67 726 q 240 927 160 882 q 418 972 321 972 l 489 972 q 659 927 581 972 q 784 804 738 882 q 831 632 831 726 l 831 -12 l 696 -12 l 696 632 q 633 773 696 710 q 483 836 571 836 l 414 836 z "},"∑":{"ha":789,"x_min":67,"x_max":724,"o":"m 654 444 l 203 443 l 203 350 q 264 199 203 261 q 411 136 325 136 l 724 136 l 724 0 l 415 0 q 238 47 318 0 q 113 174 158 93 q 67 351 67 254 q 84 451 67 410 q 136 500 101 492 l 136 514 q 83 568 99 532 q 67 668 67 604 q 164 890 67 810 q 415 971 261 971 l 724 971 l 724 836 l 411 836 q 261 777 319 836 q 203 632 203 718 l 203 578 l 654 581 l 654 444 z "},"−":{"ha":647,"x_min":67,"x_max":581,"o":"m 67 339 l 67 453 l 581 453 l 581 339 l 67 339 z "},"∕":{"ha":594,"x_min":67,"x_max":528,"o":"m 67 -26 l 428 994 l 528 994 l 168 -26 l 67 -26 z "},"∙":{"ha":308,"x_min":67,"x_max":242,"o":"m 67 390 q 92 453 67 428 q 153 479 117 479 q 216 453 190 479 q 242 390 242 428 q 216 328 242 354 q 153 303 190 303 q 92 328 117 303 q 67 390 67 354 z "},"√":{"ha":981,"x_min":67,"x_max":915,"o":"m 453 17 l 289 599 l 67 599 l 67 681 l 367 681 l 510 175 l 814 1038 l 915 1038 l 556 17 l 453 17 z "},"∞":{"ha":960,"x_min":67,"x_max":894,"o":"m 894 354 q 832 203 894 261 q 675 146 769 146 q 556 176 608 146 q 479 258 504 206 q 400 178 453 207 q 282 149 347 149 q 127 206 188 149 q 67 356 67 263 q 127 503 67 449 q 282 557 188 557 q 403 529 350 557 q 481 450 456 501 q 558 527 507 500 q 675 554 608 554 q 833 501 771 554 q 894 354 894 447 m 175 354 q 204 268 175 306 q 283 231 233 231 q 362 268 333 231 q 390 354 390 306 q 362 439 390 403 q 283 475 333 475 q 204 439 233 475 q 175 354 175 403 m 567 351 q 597 265 567 303 q 675 228 626 228 q 754 265 725 228 q 783 351 783 303 q 754 436 783 400 q 675 472 725 472 q 596 436 625 472 q 567 351 567 400 z "},"∫":{"ha":563,"x_min":67,"x_max":497,"o":"m 340 272 q 272 68 346 143 q 67 -7 199 -7 l 67 128 q 206 272 208 128 l 206 579 q 276 785 199 711 q 497 858 354 858 l 497 724 q 376 692 411 724 q 340 583 340 660 l 340 272 z "},"≈":{"ha":704,"x_min":67,"x_max":639,"o":"m 639 418 q 511 399 576 399 q 340 421 451 399 q 189 442 239 442 q 67 418 121 442 l 67 536 q 214 572 132 572 q 378 547 269 572 q 542 521 486 521 q 639 536 593 521 l 639 418 m 639 199 q 511 181 581 181 q 339 203 450 181 q 188 224 238 224 q 67 199 125 224 l 67 317 q 214 353 132 353 q 378 328 269 353 q 542 301 486 301 q 639 317 593 301 l 639 199 z "},"≠":{"ha":742,"x_min":67,"x_max":675,"o":"m 353 283 l 322 203 l 221 203 l 250 283 l 67 283 l 67 406 l 294 406 l 349 546 l 67 546 l 67 668 l 393 668 l 431 767 l 532 767 l 494 668 l 675 668 l 675 546 l 450 546 l 397 406 l 675 406 l 675 283 l 353 283 z "},"≤":{"ha":742,"x_min":67,"x_max":675,"o":"m 67 36 l 67 150 l 675 150 l 675 36 l 67 36 m 69 418 l 67 417 l 67 551 l 675 744 l 675 611 l 269 483 l 675 371 l 675 238 l 69 418 z "},"≥":{"ha":742,"x_min":67,"x_max":675,"o":"m 67 150 l 675 150 l 675 36 l 67 36 l 67 150 m 67 371 l 472 483 l 67 611 l 67 744 l 675 551 l 675 417 l 672 418 l 67 238 l 67 371 z "},"◊":{"ha":869,"x_min":67,"x_max":803,"o":"m 363 15 l 364 18 l 67 356 l 365 693 l 364 696 l 510 696 l 508 693 l 803 356 l 508 18 l 510 15 l 363 15 m 436 103 l 653 356 l 436 611 l 215 356 l 436 103 z "},"ﬀ":{"ha":1078,"x_min":67,"x_max":1011,"o":"m 633 694 l 633 733 q 707 901 633 835 q 894 967 781 967 l 1011 967 l 1011 832 l 894 832 q 804 805 839 832 q 769 738 769 778 l 769 694 l 961 694 l 961 560 l 765 560 l 764 0 l 629 0 l 629 560 l 300 560 l 299 0 l 164 0 l 164 560 l 67 560 l 67 694 l 167 694 l 167 733 q 240 901 167 835 q 428 967 314 967 l 546 967 l 546 832 l 429 832 q 338 805 374 832 q 303 738 303 778 l 303 694 l 633 694 z "},"ﬁ":{"ha":867,"x_min":67,"x_max":801,"o":"m 647 560 l 300 560 l 299 0 l 164 0 l 164 560 l 67 560 l 67 694 l 167 694 l 167 733 q 240 901 167 835 q 428 967 314 967 l 546 967 l 546 832 l 429 832 q 338 805 374 832 q 303 738 303 778 l 303 694 l 783 694 l 783 0 l 647 0 l 647 560 m 629 851 q 655 911 629 886 q 717 936 681 936 q 776 911 751 936 q 801 851 801 886 q 776 790 801 815 q 717 764 751 764 q 655 790 681 764 q 629 851 629 815 z "},"ﬂ":{"ha":817,"x_min":67,"x_max":750,"o":"m 750 967 l 750 0 l 615 0 l 615 832 l 429 832 q 338 805 374 832 q 303 738 303 778 l 303 694 l 496 694 l 496 560 l 300 560 l 299 0 l 164 0 l 164 560 l 67 560 l 67 694 l 167 694 l 167 733 q 240 901 167 835 q 428 967 314 967 l 750 967 z "},"ﬃ":{"ha":1331,"x_min":53,"x_max":1264,"o":"m 286 560 l 285 0 l 150 0 l 150 560 l 53 560 l 53 694 l 153 694 l 153 736 q 226 901 153 835 q 414 967 300 967 l 532 967 l 532 832 l 415 832 q 324 805 360 832 q 289 738 289 778 l 289 694 l 626 694 l 626 733 q 700 901 626 835 q 886 967 774 967 l 1006 967 l 1006 832 l 888 832 q 797 805 832 832 q 761 738 761 778 l 761 694 l 1246 694 l 1246 0 l 1111 0 l 1111 560 l 758 560 l 758 0 l 622 0 l 622 560 l 286 560 m 1092 851 q 1117 911 1092 886 q 1178 936 1142 936 q 1239 911 1214 936 q 1264 851 1264 886 q 1239 790 1264 815 q 1178 764 1214 764 q 1117 790 1142 764 q 1092 851 1092 815 z "},"ﬄ":{"ha":1286,"x_min":67,"x_max":1219,"o":"m 300 560 l 299 0 l 164 0 l 164 560 l 67 560 l 67 694 l 167 694 l 167 733 q 240 901 167 835 q 428 967 314 967 l 546 967 l 546 832 l 429 832 q 338 805 374 832 q 303 738 303 778 l 303 694 l 636 694 l 636 733 q 710 901 636 835 q 897 967 783 967 l 1219 967 l 1219 0 l 1085 0 l 1085 832 l 899 832 q 808 805 843 832 q 772 738 772 778 l 772 694 l 965 694 l 965 560 l 769 560 l 768 0 l 633 0 l 633 560 l 300 560 z "},"ﬅ":{"ha":803,"x_min":67,"x_max":738,"o":"m 67 769 q 131 915 67 858 q 297 972 196 972 l 476 972 l 476 681 l 674 681 l 674 544 l 476 544 l 476 308 q 526 178 476 228 q 651 128 575 128 l 738 128 l 738 -8 l 651 -8 q 436 79 529 -8 q 342 311 343 167 l 342 836 l 308 836 q 230 819 258 836 q 201 772 201 803 l 201 0 l 67 0 l 67 769 z "},"":{"ha":890,"x_min":67,"x_max":825,"o":"m 67 628 q 112 800 67 722 q 236 922 157 878 q 411 967 315 967 l 486 967 q 656 922 578 967 q 779 799 733 876 q 825 628 825 722 l 825 0 l 689 0 l 689 89 q 611 285 689 219 q 397 350 533 351 l 201 349 l 201 0 l 67 0 l 67 628 m 411 832 q 262 774 322 832 q 201 628 201 715 l 201 483 l 397 486 q 590 445 524 488 q 675 338 656 403 l 689 338 l 689 561 q 627 753 689 674 q 479 832 565 832 l 411 832 z "},"":{"ha":967,"x_min":67,"x_max":904,"o":"m 538 981 q 754 906 669 981 q 839 714 839 831 q 794 578 839 633 q 676 517 749 522 l 676 503 q 842 453 785 508 q 901 292 900 399 q 813 76 904 153 q 550 -3 721 -1 l 68 -3 l 67 632 q 113 805 67 725 q 239 933 158 885 q 419 981 319 981 l 538 981 m 442 846 q 267 787 332 851 q 203 629 203 722 l 203 413 l 217 413 q 218 415 217 414 q 304 517 239 471 q 546 579 369 564 q 658 615 614 583 q 703 714 701 647 q 662 806 704 765 q 558 846 619 846 l 442 846 m 203 133 l 550 132 q 706 176 646 132 q 765 290 765 219 q 713 404 767 363 q 547 444 658 446 q 306 391 413 443 q 203 229 199 339 l 203 133 z "},"":{"ha":1086,"x_min":67,"x_max":993,"o":"m 201 485 q 248 310 201 390 q 374 183 294 229 q 547 136 454 136 q 738 186 651 136 q 865 321 825 236 l 993 279 q 822 81 940 161 q 557 0 704 0 q 312 65 425 0 q 133 242 199 131 q 67 485 67 353 q 133 727 67 615 q 311 904 199 839 q 556 969 424 969 q 762 925 675 968 q 896 815 849 882 q 942 624 960 722 q 826 468 925 525 l 729 553 q 774 740 836 642 q 690 805 747 779 q 554 833 633 831 q 378 787 460 833 q 249 660 297 740 q 201 485 201 579 z "},"":{"ha":901,"x_min":67,"x_max":836,"o":"m 67 647 q 112 815 67 738 q 235 938 157 892 q 411 983 314 983 l 540 983 q 690 948 622 983 q 797 851 757 913 q 836 713 836 789 l 836 293 q 572 0 836 0 l 401 3 q 270 34 318 3 q 213 108 222 65 l 201 108 l 201 0 l 67 0 l 67 647 m 203 278 q 252 166 203 197 q 389 135 301 135 l 544 135 q 700 293 700 138 l 700 711 q 653 806 700 764 q 536 849 606 849 l 411 849 q 261 789 319 849 q 203 649 203 729 l 203 278 z "},"":{"ha":785,"x_min":67,"x_max":719,"o":"m 650 444 l 417 444 q 263 416 325 443 q 201 350 200 389 q 264 199 201 263 q 413 136 326 136 l 719 136 l 719 0 l 417 0 q 240 47 321 0 q 113 174 160 93 q 67 350 67 254 l 67 617 q 113 794 67 714 q 240 920 160 874 q 417 967 321 967 l 719 967 l 719 832 l 413 832 q 264 769 326 832 q 201 617 201 706 l 201 458 l 214 460 q 285 547 226 514 q 446 581 344 579 l 650 581 l 650 444 z "},"":{"ha":785,"x_min":67,"x_max":719,"o":"m 650 444 l 444 444 q 273 420 343 446 q 201 344 203 394 l 201 0 l 67 0 l 67 611 q 113 790 67 708 q 240 919 160 871 q 417 967 321 967 l 719 967 l 719 832 l 413 832 q 265 767 328 832 q 201 615 201 703 l 201 458 l 215 458 q 290 544 222 511 q 444 579 358 578 l 650 581 l 650 444 z "},"":{"ha":1107,"x_min":67,"x_max":1039,"o":"m 201 485 q 248 311 201 390 q 374 185 294 232 q 551 136 454 138 q 740 171 667 133 q 825 253 813 208 l 729 551 l 864 550 l 1039 3 l 903 3 l 856 160 l 846 160 q 750 47 831 93 q 551 0 669 0 q 308 65 419 0 q 131 242 196 131 q 67 485 67 353 q 131 728 67 617 q 307 904 196 839 q 551 969 418 969 q 814 892 701 969 q 965 694 926 814 l 822 694 q 709 795 782 757 q 551 833 636 833 q 375 787 456 833 q 248 660 294 740 q 201 485 201 579 z "},"":{"ha":890,"x_min":67,"x_max":825,"o":"m 67 975 l 201 975 l 201 567 l 397 569 q 587 526 510 569 q 675 417 664 482 l 689 417 l 689 975 l 825 975 l 825 0 l 689 0 l 689 172 q 610 368 689 301 q 397 433 532 435 l 201 432 l 201 0 l 67 0 l 67 975 z "},"":{"ha":268,"x_min":67,"x_max":201,"o":"m 67 0 l 67 969 l 201 969 l 201 0 l 67 0 z "},"":{"ha":876,"x_min":67,"x_max":811,"o":"m 469 136 q 615 196 556 136 q 675 342 675 256 l 675 836 l 396 836 l 396 972 l 811 972 l 811 342 q 766 169 811 247 q 644 47 721 92 q 478 1 567 1 l 408 1 q 236 48 314 1 q 113 174 158 94 q 67 344 67 253 l 201 344 q 263 197 201 257 q 408 136 324 136 l 469 136 z "},"":{"ha":849,"x_min":67,"x_max":783,"o":"m 67 967 l 201 967 l 201 244 l 619 969 l 775 969 l 525 531 q 530 389 506 490 q 621 209 554 288 q 783 139 688 131 l 782 -3 q 586 45 665 -7 q 466 177 507 97 q 415 342 425 257 l 218 0 l 67 0 l 67 967 z "},"":{"ha":776,"x_min":67,"x_max":711,"o":"m 67 971 l 201 971 l 201 308 q 233 225 201 265 q 315 160 264 185 q 418 136 365 135 l 711 136 l 711 0 l 418 1 q 282 31 339 0 q 210 132 225 63 l 200 132 l 199 0 l 67 0 l 67 971 z "},"":{"ha":1153,"x_min":67,"x_max":1086,"o":"m 656 356 q 742 185 735 249 q 702 42 753 94 q 581 -10 651 -11 q 449 40 500 -10 q 407 176 399 89 q 428 244 411 211 q 485 339 444 278 q 494 356 490 350 l 201 746 l 201 1 l 67 1 l 67 961 l 208 961 l 576 458 l 956 961 l 1086 961 l 1086 3 l 951 3 l 951 742 l 656 356 m 526 163 q 535 119 521 138 q 574 101 550 101 q 610 120 599 101 q 614 167 622 139 q 579 239 608 193 q 574 247 575 244 q 563 232 571 243 q 526 163 533 189 z "},"":{"ha":890,"x_min":67,"x_max":825,"o":"m 67 975 l 201 975 l 481 660 q 631 460 589 536 q 675 289 674 385 l 689 289 l 689 975 l 825 975 l 825 0 l 689 0 l 689 44 q 627 244 689 142 q 429 504 565 347 l 201 761 l 201 0 l 67 0 l 67 975 z "},"":{"ha":964,"x_min":67,"x_max":921,"o":"m 493 196 q 280 249 378 196 q 124 392 182 301 q 67 588 67 482 q 124 785 67 694 q 280 929 182 876 q 493 982 378 982 q 707 929 608 982 q 863 785 806 876 q 921 588 921 694 q 863 392 921 482 q 707 249 806 301 q 493 196 608 196 m 493 329 q 633 365 568 329 q 735 460 697 400 q 774 589 774 519 q 735 718 774 658 q 633 813 697 778 q 493 849 568 849 q 353 813 418 849 q 251 718 289 778 q 213 589 213 658 q 251 461 213 521 q 353 365 289 401 q 493 329 418 329 m 819 26 q 661 4 738 4 q 474 18 585 4 q 301 31 369 29 q 161 13 232 32 l 161 128 q 286 149 218 150 q 468 136 354 149 q 665 122 585 124 q 819 142 744 121 l 819 26 z "},"":{"ha":894,"x_min":67,"x_max":828,"o":"m 67 0 l 67 642 q 113 812 67 733 q 240 937 160 890 q 413 983 319 983 l 531 983 q 744 897 661 983 q 828 674 828 810 q 732 430 828 503 q 514 356 636 357 q 287 311 372 358 q 203 189 201 264 l 203 0 l 67 0 m 203 346 l 215 346 q 308 449 224 406 q 514 492 392 492 q 648 542 603 492 q 693 674 693 593 q 648 798 693 747 q 528 849 603 849 l 413 849 q 314 824 363 849 q 234 751 265 799 q 203 642 203 704 l 203 346 z "},"":{"ha":1132,"x_min":67,"x_max":1065,"o":"m 67 485 q 133 734 67 619 q 315 916 200 849 q 567 983 431 983 q 817 916 703 983 q 999 734 932 849 q 1065 485 1065 619 q 999 234 1065 349 q 817 53 932 119 q 567 -14 703 -14 q 315 53 431 -14 q 133 234 200 119 q 67 485 67 349 m 201 485 q 250 303 201 386 q 383 171 299 219 q 567 122 467 122 q 749 171 665 122 q 882 303 833 219 q 931 485 931 386 q 882 667 931 583 q 749 799 833 750 q 567 847 665 847 q 383 799 467 847 q 250 667 299 750 q 201 485 201 583 m 932 -136 q 871 -110 896 -136 q 846 -49 846 -85 q 872 12 846 -14 q 932 38 897 38 q 992 12 967 38 q 1018 -49 1018 -14 q 993 -110 1018 -85 q 932 -136 968 -136 z "},"":{"ha":903,"x_min":67,"x_max":1035,"o":"m 67 633 q 114 803 67 722 q 237 932 161 883 q 392 981 313 981 l 536 981 q 689 941 621 981 q 797 833 757 901 q 836 678 836 764 q 780 507 836 568 q 608 444 724 446 l 608 429 q 703 369 675 431 q 742 221 731 307 q 779 58 757 119 q 861 -40 801 -3 q 1035 -58 921 -76 l 1035 -178 q 786 -146 872 -193 q 669 -26 700 -99 q 618 164 639 47 q 576 310 606 249 q 479 375 547 372 q 283 335 365 381 q 201 211 201 289 l 200 0 l 67 0 l 67 633 m 218 372 q 324 474 233 440 q 542 511 415 508 q 659 559 618 513 q 700 678 700 606 q 656 797 700 747 q 536 846 611 846 l 392 846 q 259 783 315 846 q 203 633 203 721 l 203 372 l 218 372 z "},"":{"ha":836,"x_min":67,"x_max":769,"o":"m 769 258 q 671 54 769 118 q 424 -10 572 -10 q 226 13 317 -10 q 86 65 136 36 l 86 217 q 238 150 138 175 q 444 125 339 125 q 581 157 526 125 q 635 258 635 189 q 590 337 635 310 q 451 397 546 364 q 401 414 418 408 q 367 426 390 418 q 208 492 267 463 q 108 577 149 522 q 67 718 67 632 q 160 908 67 833 q 417 983 253 983 q 593 948 503 983 q 726 833 683 913 q 744 691 760 778 q 636 572 728 604 l 550 657 q 611 724 606 685 q 592 792 617 764 q 519 834 568 821 q 417 847 469 847 q 260 815 319 847 q 201 718 201 783 q 253 628 201 663 q 390 563 304 594 q 474 532 418 551 q 636 466 578 494 q 732 388 694 438 q 769 258 769 338 z "},"":{"ha":840,"x_min":24,"x_max":810,"o":"m 810 851 q 678 824 747 826 q 518 831 610 822 q 489 833 499 832 l 489 0 l 354 0 l 354 847 q 321 851 343 849 q 172 859 236 861 q 24 828 107 857 l 24 942 q 163 974 82 972 q 388 963 244 975 q 621 949 525 950 q 810 967 717 947 l 810 851 z "},"":{"ha":897,"x_min":67,"x_max":831,"o":"m 483 136 q 633 197 571 136 q 696 342 696 257 l 696 972 l 831 972 l 831 342 q 784 169 831 247 q 660 47 738 92 q 490 1 582 1 l 419 1 q 242 46 322 1 q 114 169 161 90 q 67 342 67 247 l 67 972 l 201 972 l 201 342 q 265 197 201 257 q 419 136 329 136 l 483 136 z "},"":{"ha":869,"x_min":67,"x_max":831,"o":"m 696 972 l 831 972 l 569 1 l 328 1 l 67 972 l 201 972 l 429 136 l 472 136 l 696 972 z "},"":{"ha":1146,"x_min":67,"x_max":1081,"o":"m 651 594 q 739 767 729 701 q 699 909 750 857 q 576 961 649 961 q 445 912 496 961 q 404 775 394 863 q 426 706 408 740 q 482 608 443 672 q 490 596 488 600 l 201 206 l 201 950 l 67 950 l 67 -10 l 208 -10 l 572 493 l 949 -10 l 1081 -10 l 1081 949 l 944 949 l 944 208 l 651 594 m 524 789 q 533 832 518 814 q 569 850 547 850 q 606 831 593 850 q 611 785 618 813 q 569 704 603 754 q 560 719 567 708 q 524 789 529 763 z "},"":{"ha":936,"x_min":56,"x_max":881,"o":"m 571 469 l 881 -1 l 735 -1 l 474 392 l 461 392 l 201 -1 l 56 -1 l 360 469 l 360 486 l 97 957 l 243 957 l 461 563 l 474 564 l 714 957 l 860 957 l 571 486 l 571 469 z "},"":{"ha":853,"x_min":67,"x_max":786,"o":"m 651 972 l 786 972 l 492 329 l 494 0 l 361 0 l 358 329 l 67 972 l 201 972 l 425 479 l 436 479 l 651 972 z "},"":{"ha":810,"x_min":67,"x_max":744,"o":"m 572 833 l 108 833 l 108 969 l 736 969 l 736 833 l 233 131 l 744 131 l 744 -4 l 67 -4 l 67 135 l 572 833 z "}}}
